<svg xmlns="http://www.w3.org/2000/svg" viewBox="0 0 696 459"><defs><style>.cls-1{fill:#afd3cd}.cls-2{fill:#5c7de4}.cls-3{fill:#222b3e}.cls-4{fill:#fff}.cls-6{fill:#476cc6}</style></defs><g id="Layer_2" data-name="Layer 2"><g id="Birth_Certificate" data-name="Birth Certificate"><path class="cls-1" d="M0 .2h696V459H0z"/><path class="cls-2" transform="rotate(90 261 372)" d="M174 111h174v522H174z"/><path class="cls-3" d="M348 285l54 87-54 87H87V285h261z"/><path class="cls-2" d="M174 285l54 87-54 87H15V285h159z"/><path class="cls-1" d="M107.6 284h-42l21 25.2 21-25.2z"/><path class="cls-2" d="M455.3 25H66.8v226h388.5V25z"/><path class="cls-4" d="M409 77H113v132h296V77z"/><path fill="#ffae8a" d="M522 0h174v459H522z"/><path class="cls-1" d="M521 28v42l25.2-21L521 28z"/><circle class="cls-4" cx="609" cy="137" r="55"/><circle class="cls-4" cx="609" cy="261" r="55"/><path class="cls-1" d="M375 173.5h.6c1.3 0 1.3 0 1.8-1.3l.7-1.9c.2-.4.4-.5.8-.4.9.2 1.7.3 2.5.6a1 1 0 0 0 1.3-.5l1.3-2.3a.6.6 0 0 1 .9-.3l2.5 1.1a.8.8 0 0 0 1.1-.2l1.9-2c.3-.4.6-.4 1-.1l2.1 1.5a.8.8 0 0 0 1.2 0l2-1.6a.7.7 0 0 1 1.1 0l1.9 2a.8.8 0 0 0 1 .2l2.4-1.2a.8.8 0 0 1 1.2.4l1.3 2a.8.8 0 0 0 1.1.5l2.4-.7c.8-.2 1 0 1.2.6l1 2.5c.1.4.4.5.8.4 1 0 1.9 0 2.8-.2.5 0 .7.2.8.7l.4 2.3a1 1 0 0 0 1.1 1l2.4.3c.5 0 .8.2.7.7l.1 2.7a.9.9 0 0 0 .7 1l2.6.8c.4.1.5.3.5.8l-.5 2.7a.8.8 0 0 0 .5 1l2.3 1.2a.7.7 0 0 1 .4 1l-1 2.4a.8.8 0 0 0 .2 1.1l2.1 1.7a.7.7 0 0 1 .2 1l-1.5 2.4a.7.7 0 0 0 0 1c.7.6 1.2 1.3 1.8 2 .4.4.5.7 0 1.2l-1.8 1.8a1 1 0 0 0-.1 1.4l1.1 2a.9.9 0 0 1-.3 1.4l-1.8 1.3a1 1 0 0 0-.5 1.3l.8 2.4a.7.7 0 0 1-.4 1l-2.2 1a1 1 0 0 0-.7 1.2l.3 2.4c0 .7 0 1-.8 1.1l-2.3.6a1 1 0 0 0-.9 1v2.5c0 .5-.3.8-.8.8l-2.8.1a.7.7 0 0 0-.8.6l-.5 2.5c-.2.6-.5.9-1.2.8l-2.2-.4a1 1 0 0 0-1.3.7l-1 2.2c-.3.8-.7.7-1.2.4l-2.5-.8a.7.7 0 0 0-1 .3l-1.5 2.2c-.3.4-.6.6-1 .2s-1.3-.7-2-1a1.4 1.4 0 0 0-1.9.2l-1.5 1.4c-.5.5-.9.4-1.3 0a19.4 19.4 0 0 0-1.9-1.6 1.1 1.1 0 0 0-1 0 23.3 23.3 0 0 0-2.4 1.4.6.6 0 0 1-1-.2l-1.5-2a1 1 0 0 0-1.3-.4l-2.5 1a.6.6 0 0 1-.8-.3c-.4-.8-.9-1.5-1.2-2.3a1 1 0 0 0-1.4-.6l-2.4.4a.6.6 0 0 1-.8-.5l-.8-2.5a.8.8 0 0 0-1-.8 20 20 0 0 1-2.8 0 .7.7 0 0 1-.5-.5l-.3-2.8c0-.5-.2-.8-.8-1-.9 0-1.7-.3-2.6-.4-.4-.1-.6-.3-.6-.8l.3-2.6a.9.9 0 0 0-.7-1.1l-2.5-1c-.5-.2-.5-.6-.4-1l.8-2.4a1 1 0 0 0-.5-1.2l-2.2-1.5a.6.6 0 0 1-.2-.9l1.1-2.3a1 1 0 0 0-.1-1.3l-2-1.9a.6.6 0 0 1 0-1l1.6-2a1 1 0 0 0 0-1.4l-1.5-2a.6.6 0 0 1 .1-1l2-1.7a1 1 0 0 0 .3-1.4l-1-2c-.4-.7 0-1 .5-1.4l2.2-1.2a.8.8 0 0 0 .4-1l-.6-2.5c-.2-.8 0-1 .7-1.1l2.5-1c.4 0 .5-.3.4-.7v-2.8c0-.5.2-.7.6-.7l2.6-.4a.9.9 0 0 0 .9-.9l.3-2.4c0-.6.3-.8 1-.8h1.3zM145 121.5h224.5a1.5 1.5 0 0 0 0-3H145a1.5 1.5 0 0 0 0 3zM145 163.5h224.5a1.5 1.5 0 0 0 0-3H145a1.5 1.5 0 0 0 0 3z"/><path class="cls-1" d="M188 95v24.5a1.5 1.5 0 0 0 3 0V95a1.5 1.5 0 0 0-3 0zM166.2 98.7l-6 14c-.8 1.8 1.8 3.3 2.6 1.6l6-14c.7-1.8-1.8-3.3-2.6-1.6zM245 95v24.5a1.5 1.5 0 0 0 3 0V95a1.5 1.5 0 0 0-3 0zM329 95v104a1.5 1.5 0 0 0 3 0V95a1.5 1.5 0 0 0-3 0zM245 162.5V199a1.5 1.5 0 0 0 3 0v-36.5a1.5 1.5 0 0 0-3 0z"/><rect class="cls-1" x="148" y="137" width="175" height="9" rx="4.5" ry="4.5"/><rect class="cls-1" x="201" y="102" width="35" height="9" rx="4.5" ry="4.5"/><rect class="cls-1" x="148" y="178" width="88" height="9" rx="4.5" ry="4.5"/><rect class="cls-1" x="339" y="102" width="28" height="9" rx="4.5" ry="4.5"/><rect class="cls-1" x="339" y="137" width="28" height="9" rx="4.5" ry="4.5"/><rect class="cls-1" x="257" y="102" width="63" height="9" rx="4.5" ry="4.5"/><rect class="cls-1" x="257" y="178" width="63" height="9" rx="4.5" ry="4.5"/><path class="cls-1" d="M163 102h-10.5a4.5 4.5 0 0 0 0 9h6.4zM179.5 102h-9.3l-3.4 9h12.7a4.5 4.5 0 0 0 0-9z"/><path class="cls-6" d="M483.3 324.2c-2.1-4.6-7.4-7.3-12.2-7.9-10.2-1.2-16.6 9-21 16.5a3.4 3.4 0 0 0-.3.6 27.7 27.7 0 0 1 10.3-.8l1.3-2 .6-.7a1.6 1.6 0 0 1 .1-.2l.5-.6a25.2 25.2 0 0 1 2.7-2.6l.3-.3.1-.1 1.9-1 .3-.1 1-.3a11.4 11.4 0 0 1 1.4 0 7.3 7.3 0 0 0 1 .2l.6.2.5.2.4.2.7.3 1 .7.4.4.4.4.5.9.1.4c0 .3.2 1.5.2.5v2.9c0 .2 0 .3-.2.5l-.2 1.2a49.1 49.1 0 0 1-2 6.3c-.2.1-.2.3-.3.5a2.6 2.6 0 0 0-.1.4 88 88 0 0 1-2.9 5.8 63 63 0 0 1-4.6 7.4l-.6.9-1.5 1.7a31.2 31.2 0 0 1-2.8 2.7l-.8.7.4-.3-.5.3a14.7 14.7 0 0 1-1.7 1l-.7.3a1.8 1.8 0 0 1-.2.1 7 7 0 0 1-.9.3h-.4c-.3.1-.3 0-.1 0h-1.2l-1-.3-.8-.4-.9-.5v-.1l-.3-.2c-1.6-1.4-4.3-1.8-6 0-1.4 1.5-1.8 4.4 0 6a15 15 0 0 0 9.5 4 15.4 15.4 0 0 0 8.4-2.6c5.7-3.6 9.8-9.4 13-15.1a66.9 66.9 0 0 0 7-16.5c1.1-3.9 1.3-8.1-.4-11.9zm-8.7 2.3c.5.4.2.1 0 0zm-21 35c-.7-.2 0 0 .2 0zm.3 0v.1c0 .1 0 0 0 0zM476 332c0 .7 0 .2 0 0zm-.2-3.7c.2.3.1.2 0 0z"/><path class="cls-6" d="M456.4 361.8a1 1 0 0 0-.4 0 2.3 2.3 0 0 1 .4 0z"/><path class="cls-6" d="M449.9 375.4l-.6.7-.1.2-.6.6a25 25 0 0 1-2.6 2.6l-.3.3-.1.1-1.9 1-.3.1-1 .3a11.4 11.4 0 0 1-1.4 0 7.8 7.8 0 0 0-1-.2l-.6-.2-.5-.2-.4-.2a8.8 8.8 0 0 1-1.7-1l-.4-.4-.4-.4a7.6 7.6 0 0 0-.5-.9l-.1-.4c-.1-.1-.2-1.5-.2-.5v-1.6-1.3l.1-.5.3-1.2a46.2 46.2 0 0 1 2-6.3l.3-.5.1-.4 1-2c.5-1.3 1.2-2.5 1.9-3.8a64 64 0 0 1 4.6-7.4l.6-.9 1.4-1.7a28.9 28.9 0 0 1 2.9-2.7c.2-.2.6-.7.8-.7l-.4.3.5-.3a15.3 15.3 0 0 1 1.7-1l.6-.3.3-.1.9-.3h.4c.3-.1.3 0 0 0h1.3l1 .3.8.4.9.5.3.3c1.6 1.4 4.3 1.8 6 0 1.4-1.5 1.8-4.4 0-6a15 15 0 0 0-9.5-4 15.4 15.4 0 0 0-8.4 2.6 42 42 0 0 0-13 15.1 66.9 66.9 0 0 0-7 16.4c-1 4-1.3 8.2.5 12 2.1 4.6 7.4 7.3 12.2 7.9 10.2 1.2 16.6-9 21-16.5a4.3 4.3 0 0 0 .3-.6 27.7 27.7 0 0 1-10.3.9l-1.4 1.9zm7.9-31c.6.3-.1 0-.3 0zm-.3 0h-.1zM435.2 374c0-.7 0-.2 0 0zm.2 3.7c-.2-.3-.1-.2 0 0zm1.3 1.8c-.5-.4-.2-.2 0 0z"/><path class="cls-6" d="M454.9 344.2a1 1 0 0 0 .4 0 1.5 1.5 0 0 1-.4 0z"/><path class="cls-4" d="M401.2 402.3a4.5 4.5 0 0 0-1.8-.4 4.6 4.6 0 0 0-2.3.6 4.6 4.6 0 0 0-1.7 1.7 4.6 4.6 0 0 0 1.7 6.2 4.6 4.6 0 0 0 4.1.3 5.3 5.3 0 0 0 1.6-1l1 1a6.6 6.6 0 0 1-2 1.4 6.2 6.2 0 0 1-5.6-.3 6 6 0 0 1-3-5.3 5.8 5.8 0 0 1 .8-3 6 6 0 0 1 2.3-2.2 6.6 6.6 0 0 1 5.5-.3 6 6 0 0 1 2 1.3l-1 1.2a5 5 0 0 0-1.6-1.2zM406 399.8h1.6v12.7H406zM412.3 400.2a1 1 0 0 1 .2.7 1 1 0 0 1-.2.7 1 1 0 0 1-.7.3 1 1 0 0 1-.8-.3 1 1 0 0 1-.2-.7 1 1 0 0 1 .3-.7 1 1 0 0 1 .7-.3.9.9 0 0 1 .7.3zm-1.5 3.3h1.6v9h-1.6zM419.2 404.8a3.1 3.1 0 0 0-1.6.4 2.7 2.7 0 0 0-1 1.1 3.4 3.4 0 0 0-.5 1.7 3.5 3.5 0 0 0 .4 1.6 2.8 2.8 0 0 0 1 1.1 2.9 2.9 0 0 0 1.6.4 4 4 0 0 0 1.6-.3 3 3 0 0 0 1.1-.8l1 1a4 4 0 0 1-1.6 1.1 5.4 5.4 0 0 1-2.2.4 4.6 4.6 0 0 1-2.3-.6 4 4 0 0 1-1.6-1.6 4.8 4.8 0 0 1-.5-2.3 4.8 4.8 0 0 1 .5-2.4 4.1 4.1 0 0 1 1.6-1.6 4.7 4.7 0 0 1 2.3-.6 5.7 5.7 0 0 1 2 .4 4 4 0 0 1 1.6 1l-.9 1a3.5 3.5 0 0 0-2.5-1zM431.3 412.5l-2.9-4.4-1.8 1.8v2.6h-1.5v-12.7h1.5v8l4.4-4.4h1.9l-3.4 3.6 3.7 5.5zM441.6 401.5a1.4 1.4 0 0 0-.4 1.1v1.2h2.5v1.2h-2.5v7.5h-1.6V405h-1.1v-1.2h1.1v-1a3.1 3.1 0 0 1 .5-1.7 2.7 2.7 0 0 1 1-1 3.2 3.2 0 0 1 1.5-.3 3.6 3.6 0 0 1 1.6.4l-.4 1.3a2.7 2.7 0 0 0-1.1-.3 1.4 1.4 0 0 0-1 .3zM451.1 404a4.2 4.2 0 0 1 1.6 1.6 4.7 4.7 0 0 1 .6 2.4 4.7 4.7 0 0 1-.6 2.3 4.1 4.1 0 0 1-1.6 1.6 5.3 5.3 0 0 1-4.8 0 4.1 4.1 0 0 1-1.6-1.6 5 5 0 0 1 0-4.7 4.2 4.2 0 0 1 1.6-1.6 5.3 5.3 0 0 1 4.8 0zm-4 1.2a2.9 2.9 0 0 0-1 1.1 3.5 3.5 0 0 0-.4 1.7 3.6 3.6 0 0 0 .3 1.6 2.9 2.9 0 0 0 1.1 1.2 3.2 3.2 0 0 0 3.1 0 2.8 2.8 0 0 0 1.1-1.2 3.5 3.5 0 0 0 .4-1.6 3.4 3.4 0 0 0-.4-1.7 2.8 2.8 0 0 0-1-1 3.2 3.2 0 0 0-3.2 0zM458.4 404a3.9 3.9 0 0 1 2-.6v1.5a3 3 0 0 0-2.3.8 3 3 0 0 0-1 2v4.7h-1.6v-9h1.6v2a3.3 3.3 0 0 1 1.3-1.5zM480.5 404.4a3.5 3.5 0 0 1 1 2.5v5.6h-1.7v-5.2a2.5 2.5 0 0 0-.6-1.8 2.3 2.3 0 0 0-1.7-.6 2.6 2.6 0 0 0-2 .9 3.3 3.3 0 0 0-.8 2.2v4.5h-1.6v-5.2a2.5 2.5 0 0 0-.6-1.8 2.2 2.2 0 0 0-1.7-.6 2.7 2.7 0 0 0-2 .9 3.3 3.3 0 0 0-.7 2.2v4.5h-1.6v-9h1.6v1.9a3.9 3.9 0 0 1 5.4-1.4 3 3 0 0 1 1.1 1.7 3.4 3.4 0 0 1 3.5-2.3 3.2 3.2 0 0 1 2.4 1zM490.4 404a4.1 4.1 0 0 1 1.6 1.6 4.7 4.7 0 0 1 .6 2.4 4.7 4.7 0 0 1-.6 2.3 4 4 0 0 1-1.6 1.6 5.2 5.2 0 0 1-4.8 0 4.1 4.1 0 0 1-1.7-1.6 5 5 0 0 1 0-4.7 4.2 4.2 0 0 1 1.7-1.6 5.2 5.2 0 0 1 4.8 0zm-4 1.2a2.8 2.8 0 0 0-1.1 1.1 3.4 3.4 0 0 0-.4 1.7 3.5 3.5 0 0 0 .4 1.6 2.8 2.8 0 0 0 1 1.2 3.3 3.3 0 0 0 3.2 0 2.8 2.8 0 0 0 1-1.2 3.6 3.6 0 0 0 .5-1.6 3.5 3.5 0 0 0-.4-1.6 2.8 2.8 0 0 0-1-1.2 3.2 3.2 0 0 0-3.2 0zM497.6 404a3.9 3.9 0 0 1 2-.6v1.5a2.9 2.9 0 0 0-3.2 2.8v4.8h-1.6v-9h1.6v1.9a3.3 3.3 0 0 1 1.2-1.5zM508 404.6a5 5 0 0 1 1.1 3.5v.5H502a3 3 0 0 0 1 1.9 3 3 0 0 0 2 .7 3.9 3.9 0 0 0 1.5-.3 3.5 3.5 0 0 0 1.2-.8l.9 1a4.4 4.4 0 0 1-1.7 1 5.3 5.3 0 0 1-2 .4 4.8 4.8 0 0 1-2.4-.6 4 4 0 0 1-1.6-1.6 4.8 4.8 0 0 1-.5-2.3 4.8 4.8 0 0 1 .5-2.4 4.1 4.1 0 0 1 1.6-1.6 4.6 4.6 0 0 1 2.3-.6 4 4 0 0 1 3.3 1.3zm-.3 2.8a2.6 2.6 0 0 0-2.8-2.7 2.8 2.8 0 0 0-2 .7 3 3 0 0 0-1 2zM394.1 420.7h1.6v11.5h-1.6zM407.2 420.7h1.5v11.5h-1.5l-6.6-9v9H399v-11.5h1.6l6.6 8.9zM412 420.7h7.5v1.4h-5.9v3.8h5.3v1.4h-5.3v4.9H412zM429.4 421.3a6 6 0 0 1 2.2 2.1 5.6 5.6 0 0 1 .8 3 5.7 5.7 0 0 1-.8 3 5.8 5.8 0 0 1-2.2 2.1 6.3 6.3 0 0 1-6 0 5.8 5.8 0 0 1-3-5 5.7 5.7 0 0 1 .8-3 6 6 0 0 1 2.1-2.1 6.4 6.4 0 0 1 6.1 0zm-5.2 1.3a4.6 4.6 0 0 0-1.6 1.6 4.4 4.4 0 0 0 0 4.4 4.6 4.6 0 0 0 1.6 1.6 4.4 4.4 0 0 0 2.2.7 4.3 4.3 0 0 0 2.2-.6 4.5 4.5 0 0 0 1.6-1.7 4.4 4.4 0 0 0 0-4.4 4.6 4.6 0 0 0-1.6-1.6 4.3 4.3 0 0 0-2.2-.6 4.5 4.5 0 0 0-2.2.6zM442.1 432.2l-2.3-3.6h-3.6v3.5h-1.5v-11.4h4.5a5 5 0 0 1 3.4 1 3.6 3.6 0 0 1 1.2 2.8 4 4 0 0 1-.7 2.4 3.6 3.6 0 0 1-1.9 1.4l2.7 3.9zm-2.9-5a3.5 3.5 0 0 0 2.3-.7 2.4 2.4 0 0 0 .8-1.9 2.3 2.3 0 0 0-.8-1.9 3.6 3.6 0 0 0-2.3-.6h-3v5zM446.6 420.7h1.8l4.3 8 4.1-8h2v11.5h-1.6V423l-4 8h-1l-4.2-8v9.2h-1.5zM470.5 432.2l-1.2-2.8h-6l-1.2 2.8h-1.7l5.1-11.5h1.6l5.1 11.5zm-6.6-4.3h4.8l-2.4-5.5zM471.3 420.7h9v1.4h-3.7v10H475v-10h-3.7zM482.1 420.7h1.6v11.5h-1.6zM495 421.3a6 6 0 0 1 2.3 2.1 5.6 5.6 0 0 1 .7 3 5.7 5.7 0 0 1-.7 3 5.8 5.8 0 0 1-2.2 2.1 6.3 6.3 0 0 1-6.1 0 5.8 5.8 0 0 1-3-5 5.7 5.7 0 0 1 .8-3 6 6 0 0 1 2.2-2.1 6.4 6.4 0 0 1 6 0zm-5.2 1.3a4.5 4.5 0 0 0-1.6 1.6 4.4 4.4 0 0 0 0 4.4 4.5 4.5 0 0 0 1.6 1.6 4.4 4.4 0 0 0 2.2.7 4.3 4.3 0 0 0 2.2-.6 4.5 4.5 0 0 0 1.7-1.7 4.4 4.4 0 0 0 0-4.4 4.6 4.6 0 0 0-1.7-1.6 4.3 4.3 0 0 0-2.2-.6 4.5 4.5 0 0 0-2.2.6zM508.5 420.7h1.6v11.5h-1.6l-6.6-9v9h-1.6v-11.5h1.6l6.6 8.9zM25.3 339.4l-3-5.2h-4.1v5.2H14v-18.3H22a8.3 8.3 0 0 1 5.5 1.7 5.8 5.8 0 0 1 2 4.7 7 7 0 0 1-.8 3.6 5.6 5.6 0 0 1-2.6 2.3l4 6zm-7.1-8.6H22a4 4 0 0 0 2.6-.8 3 3 0 0 0 1-2.4 2.8 2.8 0 0 0-1-2.3 4 4 0 0 0-2.6-.7h-3.8zM33 321.1h13.9v3.5H37v4h8.8v3.4h-8.8v4h10v3.4H33zM61.5 325.1a5.6 5.6 0 0 0-2.6-.6 5.5 5.5 0 0 0-4.8 2.8 6 6 0 0 0-.8 2.9 6 6 0 0 0 .8 2.9 5.5 5.5 0 0 0 2 2 5.3 5.3 0 0 0 2.8.9 5.9 5.9 0 0 0 2.5-.6 8 8 0 0 0 2.2-1.6l2.5 2.6a10.8 10.8 0 0 1-3.5 2.4 9.6 9.6 0 0 1-4 1 9.8 9.8 0 0 1-4.8-1.3 9.2 9.2 0 0 1-3.5-3.4 9.6 9.6 0 0 1-1.2-4.9 9.1 9.1 0 0 1 4.7-8.1 10.1 10.1 0 0 1 5-1.2 10.4 10.4 0 0 1 7.3 3l-2.5 3a6.9 6.9 0 0 0-2.1-1.8zM81.7 322a9.3 9.3 0 0 1 0 16.5 10.7 10.7 0 0 1-10 0 9.3 9.3 0 0 1-3.5-3.4 9.6 9.6 0 0 1 0-9.6 9.2 9.2 0 0 1 3.5-3.4 10.8 10.8 0 0 1 10 0zm-7.7 3.2a5.6 5.6 0 0 0-2 2.1 5.9 5.9 0 0 0-.8 3 5.7 5.7 0 0 0 .8 3 5.9 5.9 0 0 0 2 2 5.3 5.3 0 0 0 2.8.8 5.3 5.3 0 0 0 2.8-.8 5.5 5.5 0 0 0 2-2 6.2 6.2 0 0 0 0-6 5.5 5.5 0 0 0-2-2 5.3 5.3 0 0 0-2.8-.8 5.5 5.5 0 0 0-2.8.7zM100.5 339.4l-2.9-5.2h-4.2v5.2h-4.1v-18.3h8a8.3 8.3 0 0 1 5.4 1.7 5.8 5.8 0 0 1 2 4.7 7 7 0 0 1-.8 3.6 5.6 5.6 0 0 1-2.6 2.3l4 6zm-7.1-8.6h3.8a4 4 0 0 0 2.7-.8 3 3 0 0 0 .9-2.4 2.8 2.8 0 0 0-1-2.3 4 4 0 0 0-2.6-.7h-3.8zM121 322.3a8.5 8.5 0 0 1 3.3 3.2 9.3 9.3 0 0 1 1.3 4.8 9 9 0 0 1-1.3 4.7 8.7 8.7 0 0 1-3.4 3.3 10.8 10.8 0 0 1-5.1 1.1h-7.6v-18.3h7.8a10.6 10.6 0 0 1 5 1.2zm-2.2 13a5 5 0 0 0 1.9-2 6.6 6.6 0 0 0 0-6 5.2 5.2 0 0 0-2-2 5.5 5.5 0 0 0-2.8-.6h-3.6V336h3.7a5.3 5.3 0 0 0 2.8-.8zM137.3 324.9a9 9 0 0 0-2.7-.5 3.1 3.1 0 0 0-1.7.4 1.3 1.3 0 0 0-.6 1.1 1.6 1.6 0 0 0 .9 1.5 14 14 0 0 0 2.8 1 24.1 24.1 0 0 1 3 1.1 5.5 5.5 0 0 1 2.2 1.7 4.6 4.6 0 0 1 .8 2.9 5 5 0 0 1-1 3 5.6 5.6 0 0 1-2.4 1.9 9.7 9.7 0 0 1-3.7.7 12.7 12.7 0 0 1-4.4-.8 11.8 11.8 0 0 1-3.7-2.2l1.6-3.3a11.3 11.3 0 0 0 3.2 2 8.5 8.5 0 0 0 3.3.7 3.6 3.6 0 0 0 2-.5 1.6 1.6 0 0 0 .3-2.5 3.6 3.6 0 0 0-1.3-.7l-2-.7a22.9 22.9 0 0 1-3-1 5.4 5.4 0 0 1-2.1-1.6 4.4 4.4 0 0 1-.9-2.9 4.8 4.8 0 0 1 1-2.9 5.7 5.7 0 0 1 2.4-1.9 9.4 9.4 0 0 1 3.7-.6 12.7 12.7 0 0 1 3.7.5 12.3 12.3 0 0 1 3.3 1.5l-1.6 3.4a13.7 13.7 0 0 0-3-1.3zM27.6 364l-1.5-3.6h-8.5l-1.4 3.6H12l8-18.3h4.2L32 364zm-8.6-6.9h5.8l-2.9-7.1zM30.5 345.7h4.4l5 13.8 5-13.8h4.3L41.9 364h-4.2zM63.3 364l-1.4-3.6h-8.5L52 364h-4.3l8-18.3h4.2l7.8 18.3zm-8.5-6.9h5.8l-3-7.1zM69.7 345.7h4V364h-4zM77.8 345.7H82v14.7h7.8v3.6h-12zM105.9 364l-1.5-3.6H96l-1.5 3.6h-4.2l7.9-18.3h4.3l7.8 18.3zm-8.6-6.9h5.8l-2.9-7.1zM125.4 347a3.9 3.9 0 0 1 1.7 3.3 4 4 0 0 1-.8 2.5 4.3 4.3 0 0 1-2.3 1.5 4.5 4.5 0 0 1 3.8 4.6 4.3 4.3 0 0 1-1.9 3.7 8.4 8.4 0 0 1-5 1.4h-8.7v-18.3h8.4a8.2 8.2 0 0 1 4.8 1.2zm-3.2 5.5a1.8 1.8 0 0 0 .7-1.5 1.8 1.8 0 0 0-.7-1.4 2.9 2.9 0 0 0-1.8-.5h-4v4h4a2.9 2.9 0 0 0 1.8-.6zm.5 7.5a1.9 1.9 0 0 0 .8-1.6 1.8 1.8 0 0 0-.8-1.6 3.9 3.9 0 0 0-2.3-.5h-4v4.3h4a4 4 0 0 0 2.3-.6zM130.8 345.7h4.1v14.7h7.8v3.6h-12zM145.2 345.7h14v3.4h-9.9v4h8.8v3.4h-8.8v4h10.1v3.5h-14.2zM549 53a4 4 0 0 0 3 1.1 3.8 3.8 0 0 0 2.8-1.1 4.3 4.3 0 0 0 1-3.1V39h4.2V50a8.5 8.5 0 0 1-1 4.2 6.6 6.6 0 0 1-2.8 2.7 9.1 9.1 0 0 1-4.3 1 9.3 9.3 0 0 1-4.4-1 6.7 6.7 0 0 1-2.8-2.7 8.3 8.3 0 0 1-1-4.2V39h4.1V50A4.2 4.2 0 0 0 549 53zM572.8 42.9a9 9 0 0 0-2.7-.5 3.1 3.1 0 0 0-1.7.4 1.3 1.3 0 0 0-.7 1.1 1.6 1.6 0 0 0 1 1.5 14 14 0 0 0 2.7 1 24.1 24.1 0 0 1 3.1 1.1 5.4 5.4 0 0 1 2.1 1.7 4.5 4.5 0 0 1 .9 2.9 5 5 0 0 1-1 3A5.7 5.7 0 0 1 574 57a9.7 9.7 0 0 1-3.7.7 12.7 12.7 0 0 1-4.4-.8 11.9 11.9 0 0 1-3.7-2.2l1.7-3.3a11 11 0 0 0 3.2 2 8.5 8.5 0 0 0 3.3.7 3.7 3.7 0 0 0 2-.5 1.6 1.6 0 0 0 .7-1.3 1.5 1.5 0 0 0-.5-1.2 3.6 3.6 0 0 0-1.2-.7l-2-.7a23.9 23.9 0 0 1-3.2-1 5.5 5.5 0 0 1-2-1.6 4.4 4.4 0 0 1-.8-2.8 4.9 4.9 0 0 1 .9-2.9 5.6 5.6 0 0 1 2.5-1.9 9.4 9.4 0 0 1 3.7-.7 12.7 12.7 0 0 1 3.7.6 12.3 12.3 0 0 1 3.2 1.4l-1.6 3.5a13.6 13.6 0 0 0-3-1.4zM580.4 39.1h13.9v3.5h-9.8v4h8.8V50h-8.8v4h10v3.4h-14.1zM610.6 40.3a8.5 8.5 0 0 1 3.4 3.2 9.3 9.3 0 0 1 1.2 4.8A9 9 0 0 1 614 53a8.7 8.7 0 0 1-3.5 3.2 10.8 10.8 0 0 1-5 1.2h-7.6V39.1h7.7a10.6 10.6 0 0 1 5 1.2zm-2.2 13a5 5 0 0 0 2-2 6.2 6.2 0 0 0 .6-3 6 6 0 0 0-.7-3 5.2 5.2 0 0 0-2-2 5.5 5.5 0 0 0-2.8-.7H602V54h3.7a5.3 5.3 0 0 0 2.7-.8zM624 39.1h13.2v3.5h-9V47h8.2v3.4h-8.3v7H624zM653 40a9.3 9.3 0 0 1 3.6 3.5 9.6 9.6 0 0 1 0 9.6 9.4 9.4 0 0 1-3.5 3.4 10.7 10.7 0 0 1-10 0 9.3 9.3 0 0 1-3.6-3.4 9.6 9.6 0 0 1 0-9.6 9.2 9.2 0 0 1 3.6-3.4 10.8 10.8 0 0 1 10 0zm-7.7 3.2a5.6 5.6 0 0 0-2 2.1 5.9 5.9 0 0 0-.8 3 5.7 5.7 0 0 0 .8 3 5.9 5.9 0 0 0 2 2 5.3 5.3 0 0 0 2.8.9 5.3 5.3 0 0 0 2.8-.8 5.5 5.5 0 0 0 2-2.1 6.2 6.2 0 0 0 0-6 5.5 5.5 0 0 0-2-2 5.3 5.3 0 0 0-2.8-.8 5.5 5.5 0 0 0-2.8.7zM671.9 57.4l-2.9-5.2h-4.2v5.2h-4.1V39.1h8a8.3 8.3 0 0 1 5.4 1.7 5.8 5.8 0 0 1 2 4.7 7 7 0 0 1-.8 3.6 5.6 5.6 0 0 1-2.6 2.3l4 6zm-7.1-8.6h3.8a4 4 0 0 0 2.6-.8 3 3 0 0 0 1-2.4 2.8 2.8 0 0 0-1-2.3 4 4 0 0 0-2.6-.7h-3.8z"/><path class="cls-3" d="M590 266l.6-3.9-3-5-2 1.3 2.9 2.8 1 2.3-1.2-.1 1.8 2.6z"/><path class="cls-1" d="M610.8 230.5a1.4 1.4 0 0 0 0-1.3l-.6-1.2a4.8 4.8 0 0 1 .6-4 5.5 5.5 0 0 1 1.2-1.6 6.6 6.6 0 0 1 3.5-1.2 9.6 9.6 0 0 1 3.2 0c1 .1 2 .6 2.9 0 .1 0 .3-.2.4 0a.3.3 0 0 1 .2 0 4.1 4.1 0 0 1-.5 2.7 8.3 8.3 0 0 0-.4 3.5 2.3 2.3 0 0 1-.1 1.2 3.4 3.4 0 0 0-.3.7c-.1.3.2.7.5 1s.5.7.3 1-.9.2-1.4.4a1.5 1.5 0 0 0-.8 1.5 1.2 1.2 0 0 1 0 .5c-.2.3-.5.3-.8.5s-.4.5-.1.7l9.2 9.6 11-3.7 1-3.3 3-1.5-.4 1 1.8 2.4-1.3 1.5-1.8-2.2 1 3.1-2.6 1.8.5 2.5s-10.2 3.8-12.2 3.7-9-3.6-9-3.6l-3.1 15.4 17.9 7L643 288l9.3.5-11.4 7.2-11.2-20.8-16-3.8-19 18.9-20.4-14.7-8.2 4 8-13.2 20.2 14 7.1-18.7-1.2-18.8-7 1.9-1.7 17-1.5 2.5-.1-2.2-1.2 1.3-2.8-2.7 2-3v-1l-1.9-1 2.2-14.5 12-6.4s.6-3.9 3.6-3.8a27.3 27.3 0 0 1 5.4.8z"/><path class="cls-3" d="M577.6 280.2l2.3 1.4 13.8-9.2-9.8-18.2-1.6-.7-4.7 26.7z"/><path class="cls-2" d="M582.3 253.5l9.4 17.3-14.1 9.4-8.9-17.4 13.6-9.3zM616.2 235.7s-.9 2.4.2 3l1.2.5.1-3z"/><path class="cls-2" d="M617.3 237.7s5-.2 2.5 3.3a96.6 96.6 0 0 0-5 8.4l3 7-1 2.4-2.2-2.3s-1.6-5.8-.6-8.6a81.2 81.2 0 0 1 3.8-7.7l-.9-1.3"/><path class="cls-4" d="M669.8 100.2h-121a4.5 4.5 0 0 0-4.6 4.5v66.6a4.5 4.5 0 0 0 4.6 4.5h121a4.5 4.5 0 0 0 4.5-4.5v-66.6a4.5 4.5 0 0 0-4.5-4.5z"/><path class="cls-2" d="M669.8 100.2h-121a4.5 4.5 0 0 0-4.6 4.5v13.6h130v-13.6a4.5 4.5 0 0 0-4.4-4.5z"/><rect class="cls-1" x="593.8" y="126.6" width="52.5" height="3.7" rx="1.8" ry="1.8"/><rect class="cls-3" x="556.7" y="122.3" width="21.4" height="3.7" rx="1.8" ry="1.8"/><rect class="cls-1" x="593.8" y="168.4" width="23.8" height="3" rx="1.5" ry="1.5"/><rect class="cls-1" x="593.8" y="150.7" width="34.1" height="3" rx="1.5" ry="1.5"/><rect class="cls-1" x="593.8" y="155.4" width="34.1" height="3" rx="1.5" ry="1.5"/><rect class="cls-1" x="653.7" y="149.7" width="17.1" height="3" rx="1.5" ry="1.5"/><path class="cls-1" d="M550.6 131.3h33.6v40.3h-33.6zM657.8 163.7v-5.8a2.2 2.2 0 0 1 2.2-2.1h8.7a2 2 0 0 1 2 2v11.7a2 2 0 0 1-2 2H660a2 2 0 0 1-2-2z"/><rect class="cls-1" x="593.8" y="133" width="52.5" height="3.7" rx="1.8" ry="1.8"/><rect class="cls-1" x="593.8" y="139.3" width="52.5" height="3.7" rx="1.8" ry="1.8"/><rect class="cls-1" x="621.2" y="168.4" width="23.8" height="3" rx="1.5" ry="1.5"/><path class="cls-3" d="M570.6 161.6v-2c3.7-2 6.2-6.6 6.2-12 0-7.2-4.4-13-9.8-13s-9.9 5.8-9.9 13c0 5.6 2.8 10.4 6.8 12.1v2c-3.8 2-9.4 5.8-9.4 10h25.8c0-4.3-5.9-8-9.7-10zm-3.2 4zM668 114.3a1.3 1.3 0 0 1 1 .9c.2.7.6 1.4 1 2a2.2 2.2 0 0 1 .1 1l.2 6.3a2 2 0 0 0 .2.8 1.6 1.6 0 0 1 .2 1.2l-.8 3.8a4 4 0 0 1-.3 1l-1.5 3a23.6 23.6 0 0 1-2.4 4 2.8 2.8 0 0 0-.5 1.2l-.4 2.7a1.7 1.7 0 0 1-.3.7l-1.6 1.8c-.7.7-2.2.5-2.4-.4a14 14 0 0 1-.3-2.4c0-.3.3-.6.4-1l-1-.2a6.1 6.1 0 0 1-2.3-.6 13 13 0 0 0-1.8-1 12.1 12.1 0 0 1-3-2.2 6.3 6.3 0 0 1-1.8-2.5 1.2 1.2 0 0 1 0-.7 13.7 13.7 0 0 0 .6-3 1 1 0 0 1 .5-.8 4.6 4.6 0 0 1 .7-.4 3 3 0 0 0 1.8-1.5 22.8 22.8 0 0 1 1.8-2.8 23.4 23.4 0 0 1 2-1.9l.4-.4a3 3 0 0 0-.3-.2l-3.7-2.5a1.6 1.6 0 0 1-.7-.8l-.4-1a.4.4 0 0 0-.4-.4l-1.1-.1a1 1 0 0 1-.9-.9l-.6-2.1a1 1 0 0 1 .7-1.4l.3-.2a1.1 1.1 0 0 0 .8-1.5.7.7 0 0 0-.2-.2 6 6 0 0 1-.5-.5l-.3-.7a5.5 5.5 0 0 1 .4-1.6 18.9 18.9 0 0 1 1-1.8 1.4 1.4 0 0 0 .2-.6v-1.6a1.4 1.4 0 0 1 .3-1l1.7-2.1a1.1 1.1 0 0 1 1.5-.4l3.2 1.4 4.6 1.5a19.9 19.9 0 0 1 3.3 1.4 1 1 0 0 1 .6.9 7.7 7.7 0 0 1-.1 2.7 7 7 0 0 0 0 2.5l.1 1.5a6.5 6.5 0 0 1 0 1z"/><path class="cls-4" d="M599.6 107.3a3.5 3.5 0 0 0-1.1-.2c-.3 0-.4 0-.4.3a.4.4 0 0 0 .2.4 6 6 0 0 0 1 .3 10.6 10.6 0 0 1 1.2.4 2.2 2.2 0 0 1 .8.7 1.8 1.8 0 0 1 .4 1.2 2 2 0 0 1-.4 1.2 2.4 2.4 0 0 1-1 .8 4.5 4.5 0 0 1-1.5.3 6.2 6.2 0 0 1-2-.4 5.2 5.2 0 0 1-1.6-.8l.9-1.7a4.7 4.7 0 0 0 1.3.7 3.7 3.7 0 0 0 1.4.4.8.8 0 0 0 .4-.1.3.3 0 0 0 .1-.3.4.4 0 0 0-.2-.4 5.2 5.2 0 0 0-1-.3 9.1 9.1 0 0 1-1.2-.4 2.2 2.2 0 0 1-.8-.6 1.7 1.7 0 0 1-.4-1.2 2 2 0 0 1 .4-1.2 2.4 2.4 0 0 1 1-.8 4.1 4.1 0 0 1 1.6-.3 6.2 6.2 0 0 1 1.6.2 5.6 5.6 0 0 1 1.5.6l-.9 1.8a7.2 7.2 0 0 0-1.3-.6zM601.9 105.5h6.3v1.8h-2v5.2h-2.3v-5.2h-2zM613 112.5l-.3-1h-2.6l-.4 1h-2.4l3-7h2.4l2.9 7zm-2.3-2.6h1.5l-.8-2.1zM614.7 105.5h6.3v1.8h-2v5.2h-2.3v-5.2h-2zM621.6 105.5h6v1.8H624v.8h3.3v1.8H624v.8h3.7v1.8h-6zM630.5 105.5h2.3v7h-2.3zM639 106a3.2 3.2 0 0 1 1.3 1.1 3.9 3.9 0 0 1 0 3.8 3.2 3.2 0 0 1-1.3 1.2 4.6 4.6 0 0 1-2.1.4h-3v-7h3.1a4.5 4.5 0 0 1 2 .4zm-1 4.2a2 2 0 0 0 .4-1.2 1.8 1.8 0 0 0-.4-1.2 1.4 1.4 0 0 0-1-.5h-.8v3.4h.8a1.2 1.2 0 0 0 1-.5zM100.8 41.3h7.5l4.3 13.8 4.3-13.8h7.1l-8 21h-7.2zM125.4 41.3h7v21h-7zM134 41.3h19v5.5h-6v15.5h-7V46.8h-6zM167.5 62.3l-1-3h-7.9l-1 3h-7.2l8.9-21h7.1l8.5 21zm-7.1-8h4.4l-2.2-6.1zM176.2 41.3h7v15.2h8.7v5.8h-15.8zM212.7 47.4a4.9 4.9 0 0 0-2.6-.8 4 4 0 0 0-2.2.7 4.3 4.3 0 0 0-1.6 1.8 5.8 5.8 0 0 0-.5 2.5 5.9 5.9 0 0 0 .5 2.6 4.4 4.4 0 0 0 1.6 1.9 4 4 0 0 0 2.2.6 5.4 5.4 0 0 0 2.5-.7 8.3 8.3 0 0 0 2.3-1.7l4 4.2a13.2 13.2 0 0 1-4.3 3.1 11.6 11.6 0 0 1-10.6-.2 10.3 10.3 0 0 1-4-4 11.3 11.3 0 0 1-1.4-5.7A10.8 10.8 0 0 1 200 46a10.4 10.4 0 0 1 4.1-3.9 12.2 12.2 0 0 1 10.7-.3 11.9 11.9 0 0 1 4 2.8l-4 4.8a7.6 7.6 0 0 0-2.2-2zM220.3 41.3h17.8v5.3h-10.8V49h9.8v5.3h-9.8V57h11v5.3h-18zM253.1 62.3l-2.5-5.4H248v5.4h-7v-21h10.2a10 10 0 0 1 6.6 2 6.9 6.9 0 0 1 2.3 5.6 8.7 8.7 0 0 1-.8 4 6.6 6.6 0 0 1-2.5 2.7l4.2 6.7zM248 51.6h3.2a2.3 2.3 0 0 0 1.8-.7 2.7 2.7 0 0 0 .6-1.9 2.5 2.5 0 0 0-.6-1.8 2.3 2.3 0 0 0-1.8-.6H248zM261.4 41.3h19v5.5h-6v15.5h-7V46.8h-6zM282 41.3h7v21h-7zM292 41.3h17v5.3h-10v3.6h9.3v5.3h-9.4v6.8h-7zM310.9 41.3h7v21h-7zM333.8 47.4a4.8 4.8 0 0 0-2.5-.8 4 4 0 0 0-2.3.7 4.3 4.3 0 0 0-1.5 1.8 5.8 5.8 0 0 0-.6 2.5 5.9 5.9 0 0 0 .6 2.6A4.4 4.4 0 0 0 329 56a4 4 0 0 0 2.2.7 5.3 5.3 0 0 0 2.5-.7 8.3 8.3 0 0 0 2.3-1.8l4 4.3a13.2 13.2 0 0 1-4.2 3.1 11.6 11.6 0 0 1-10.7-.2 10.3 10.3 0 0 1-4-4 11.3 11.3 0 0 1-1.4-5.7 10.8 10.8 0 0 1 1.5-5.6 10.4 10.4 0 0 1 4-3.9 12.1 12.1 0 0 1 5.9-1.4 12.6 12.6 0 0 1 8.9 3.9l-4 4.8a7.7 7.7 0 0 0-2.2-2zM356.5 62.3l-1-3h-7.9l-1 3h-7.2l8.9-21h7.1l8.6 21zm-7.1-8h4.4l-2.2-6.1zM361.4 41.3h19v5.5h-6v15.5h-7V46.8h-6zM382 41.3h17.8v5.3h-10.9V49h9.9v5.3h-9.9V57H400v5.3h-18zM414.6 46.8a10.7 10.7 0 0 0-3.4-.7q-1.3 0-1.3 1a1.2 1.2 0 0 0 .8 1 16.9 16.9 0 0 0 2.7.9 31.4 31.4 0 0 1 3.7 1.3 6.7 6.7 0 0 1 2.6 2 5.5 5.5 0 0 1 1.1 3.6 6 6 0 0 1-1.2 3.8 7 7 0 0 1-3.2 2.3 12.7 12.7 0 0 1-4.4.7 18.3 18.3 0 0 1-5.7-.9 16 16 0 0 1-4.9-2.5L404 54a14.2 14.2 0 0 0 4 2.4 11.2 11.2 0 0 0 4 1 2.3 2.3 0 0 0 1.2-.3 1 1 0 0 0 .5-1 1.3 1.3 0 0 0-.9-1 15.3 15.3 0 0 0-2.7-.9 28.2 28.2 0 0 1-3.7-1.2 6.6 6.6 0 0 1-2.5-1.9 5.2 5.2 0 0 1-1.1-3.5 6.2 6.2 0 0 1 1.1-3.6 7 7 0 0 1 3.2-2.4 12.4 12.4 0 0 1 4.7-.8 18 18 0 0 1 4.9.6 16 16 0 0 1 4.3 1.9l-2.5 5.3a23 23 0 0 0-3.9-1.8zM23.8 386.7a2.5 2.5 0 0 1 1 2.1 2.5 2.5 0 0 1-.5 1.7 2.7 2.7 0 0 1-1.6 1 3 3 0 0 1 2 1 2.8 2.8 0 0 1 .6 1.9 2.7 2.7 0 0 1-1.1 2.3 5 5 0 0 1-3 .8h-5V386H21a4.5 4.5 0 0 1 2.8.7zm-1.2 3.7a1.5 1.5 0 0 0 .6-1.3 1.5 1.5 0 0 0-.6-1.3 2.7 2.7 0 0 0-1.6-.4h-3.3v3.4H21a2.6 2.6 0 0 0 1.6-.4zm.4 5.1a1.6 1.6 0 0 0 .7-1.4 1.6 1.6 0 0 0-.7-1.3 3.5 3.5 0 0 0-2-.5h-3.3v3.7H21a3.4 3.4 0 0 0 2-.5zM29.1 385.6a1 1 0 0 1 .3.7 1 1 0 0 1-.3.7 1 1 0 0 1-1.3 0 1 1 0 0 1-.3-.7 1 1 0 0 1 .3-.7 1 1 0 0 1 1.3 0zm-1.4 3.2h1.5v8.7h-1.5zM35 389.2a3.6 3.6 0 0 1 1.8-.5v1.5a2.8 2.8 0 0 0-3 2.7v4.6h-1.6v-8.7h1.5v1.8a3.2 3.2 0 0 1 1.2-1.4zM43.1 396.9a3.7 3.7 0 0 1-2 .6 2.3 2.3 0 0 1-1.7-.6 2.5 2.5 0 0 1-.6-1.9v-4.8h-1.3v-1.1h1.3v-2.4h1.5v2.4H43v1.1h-2.7v4.6a1.6 1.6 0 0 0 .3 1 1 1 0 0 0 .8.3 2.8 2.8 0 0 0 1.3-.4zM52.3 389.6a3.4 3.4 0 0 1 .9 2.5v5.4h-1.6v-5a2.3 2.3 0 0 0-.6-1.8 2.3 2.3 0 0 0-1.7-.6 2.6 2.6 0 0 0-2 .9 3.1 3.1 0 0 0-.7 2.2v4.2H45v-12.1h1.5v5.3a3.3 3.3 0 0 1 3.3-1.9 3.2 3.2 0 0 1 2.4 1zM67.2 387.6a4.3 4.3 0 0 0-1.8-.3 4.4 4.4 0 0 0-2.3.5 4.5 4.5 0 0 0-1.6 1.6 4.4 4.4 0 0 0-.6 2.3 4.4 4.4 0 0 0 4.5 4.4 4.6 4.6 0 0 0 1.7-.4 5.3 5.3 0 0 0 1.6-1l1 1a6.5 6.5 0 0 1-2 1.4 6 6 0 0 1-2.4.4 6 6 0 0 1-3-.7 5.8 5.8 0 0 1-3-5.1 5.5 5.5 0 0 1 .9-3 5.6 5.6 0 0 1 2.2-2 6 6 0 0 1 3-.9 6.2 6.2 0 0 1 2.3.5 5.7 5.7 0 0 1 2 1.3l-1 1.1a4.6 4.6 0 0 0-1.5-1zM78 390a4.9 4.9 0 0 1 1 3.2v.5h-6.9a3 3 0 0 0 1 1.9 2.9 2.9 0 0 0 2 .7 3.6 3.6 0 0 0 2.6-1.1l.8.9a4.3 4.3 0 0 1-1.5 1 5.2 5.2 0 0 1-2 .4 4.7 4.7 0 0 1-2.3-.5 4 4 0 0 1-1.5-1.6 4.7 4.7 0 0 1-.6-2.3 4.6 4.6 0 0 1 .6-2.3 4 4 0 0 1 1.5-1.5 4.4 4.4 0 0 1 2.3-.6 3.8 3.8 0 0 1 3 1.2zm-.3 2.5A2.5 2.5 0 0 0 75 390a2.8 2.8 0 0 0-2 .7 2.9 2.9 0 0 0-.9 1.8zM83.8 389.2a3.6 3.6 0 0 1 1.9-.5v1.5a3 3 0 0 0-2.2.7 3 3 0 0 0-.9 2v4.6h-1.5v-8.7h1.5v1.9a3.2 3.2 0 0 1 1.2-1.5zM92 396.9a3.7 3.7 0 0 1-2 .6 2.3 2.3 0 0 1-1.7-.6 2.5 2.5 0 0 1-.6-1.9v-4.8h-1.3v-1.1h1.3v-2.4h1.5v2.4h2.7v1.1h-2.7v4.6a1.6 1.6 0 0 0 .3 1 1 1 0 0 0 .8.3 2.8 2.8 0 0 0 1.3-.4zM95.3 385.6a1 1 0 0 1 .3.7 1 1 0 0 1-.3.7 1 1 0 0 1-.7.3 1 1 0 0 1-.7-.3 1 1 0 0 1-.2-.7 1 1 0 0 1 .2-.7 1 1 0 0 1 .7-.3 1 1 0 0 1 .7.3zm-1.4 3.2h1.5v8.7h-1.5zM100.6 386.9a1.4 1.4 0 0 0-.4 1v1.1h2.4v1.2h-2.4v7.2h-1.5v-7.2h-1.2V389h1.2v-.9a3 3 0 0 1 .4-1.6 2.7 2.7 0 0 1 1-1 3.1 3.1 0 0 1 1.4-.4 3.4 3.4 0 0 1 1.5.4l-.3 1.3a2.6 2.6 0 0 0-1.1-.3 1.4 1.4 0 0 0-1 .4zm4.8-1.3a1 1 0 0 1 .3.7 1 1 0 0 1-.3.7 1 1 0 0 1-.7.3 1 1 0 0 1-.7-.3 1 1 0 0 1-.2-.7 1 1 0 0 1 .2-.7 1 1 0 0 1 .7-.3 1 1 0 0 1 .7.3zm-1.4 3.2h1.5v8.7H104zM112 390a3 3 0 0 0-1.4.5 2.7 2.7 0 0 0-1 1 3.3 3.3 0 0 0-.4 1.6 3.3 3.3 0 0 0 .4 1.6 2.8 2.8 0 0 0 1 1 2.8 2.8 0 0 0 1.4.5 4 4 0 0 0 1.6-.3 2.9 2.9 0 0 0 1-.8l1 .9a3.8 3.8 0 0 1-1.6 1.1 5 5 0 0 1-2 .4 4.5 4.5 0 0 1-2.3-.6 4 4 0 0 1-1.5-1.5 4.7 4.7 0 0 1-.6-2.3 4.8 4.8 0 0 1 .6-2.3 4 4 0 0 1 1.5-1.5 4.5 4.5 0 0 1 2.3-.6 5.4 5.4 0 0 1 2 .4 3.8 3.8 0 0 1 1.5 1l-.9 1a3.4 3.4 0 0 0-2.5-1zM122.6 397.5v-1.3a3.5 3.5 0 0 1-3 1.3 3.5 3.5 0 0 1-1.6-.3 2.6 2.6 0 0 1-1-1 2.6 2.6 0 0 1-.4-1.3 2.2 2.2 0 0 1 .9-1.9 3.8 3.8 0 0 1 2.4-.7h2.7v-.4a1.8 1.8 0 0 0-.5-1.4 2.4 2.4 0 0 0-1.7-.5 4.8 4.8 0 0 0-2.7 1l-.6-1.1a8.1 8.1 0 0 1 1.7-1 5.9 5.9 0 0 1 2-.2 3.6 3.6 0 0 1 2.4.8 2.9 2.9 0 0 1 1 2.2v5.8zm-1-1.8a2 2 0 0 0 1-1.3v-.9H120a3 3 0 0 0-1.5.3 1 1 0 0 0-.5 1 1.3 1.3 0 0 0 .5 1 2.2 2.2 0 0 0 1.3.5 3 3 0 0 0 1.9-.6zM131.5 396.9a3.7 3.7 0 0 1-2 .6 2.3 2.3 0 0 1-1.7-.6 2.5 2.5 0 0 1-.6-1.9v-4.8h-1.3v-1.1h1.2v-2.4h1.6v2.4h2.6v1.1h-2.6v4.6a1.6 1.6 0 0 0 .2 1 1 1 0 0 0 .8.3 2.8 2.8 0 0 0 1.4-.4zM139.8 390a4.9 4.9 0 0 1 1 3.2v.5h-7a3 3 0 0 0 1 1.9 2.9 2.9 0 0 0 2 .7 3.6 3.6 0 0 0 2.7-1.1l.8.9a4.4 4.4 0 0 1-1.5 1 5.2 5.2 0 0 1-2 .4 4.7 4.7 0 0 1-2.3-.5 4 4 0 0 1-1.5-1.6 4.7 4.7 0 0 1-.6-2.3 4.6 4.6 0 0 1 .6-2.3 4 4 0 0 1 1.5-1.5 4.4 4.4 0 0 1 2.2-.6 3.8 3.8 0 0 1 3 1.2zm-.4 2.5a2.5 2.5 0 0 0-2.7-2.5 2.8 2.8 0 0 0-1.9.7 2.9 2.9 0 0 0-.9 1.8zM146.4 390.2a4.4 4.4 0 0 0-1.2-.2 2.1 2.1 0 0 0-1.1.2.8.8 0 0 0-.4.8.9.9 0 0 0 .4.8 6.4 6.4 0 0 0 1.5.6 10.8 10.8 0 0 1 1.4.5 2.5 2.5 0 0 1 1 .8 2.1 2.1 0 0 1 .4 1.3 2.1 2.1 0 0 1-.9 1.9 4 4 0 0 1-2.3.6 6 6 0 0 1-1.9-.3 4.4 4.4 0 0 1-1.5-.9l.6-1.1a4.1 4.1 0 0 0 1.3.8 4.3 4.3 0 0 0 1.6.3 2.4 2.4 0 0 0 1.2-.3 1 1 0 0 0 .4-.9 1 1 0 0 0-.5-.8 6 6 0 0 0-1.4-.6 10.6 10.6 0 0 1-1.4-.5 2.5 2.5 0 0 1-1-.8 2 2 0 0 1-.4-1.3 2 2 0 0 1 1-1.8 3.9 3.9 0 0 1 2.1-.6 5.4 5.4 0 0 1 1.6.2 4.5 4.5 0 0 1 1.3.6l-.5 1.2a5.3 5.3 0 0 0-1.3-.5zM16.1 405.7H18l4.2 8 4.2-8h1.9v11.5h-1.5V408l-4 8h-1l-4.2-8v9.2H16zM36.7 417.2V416a3.6 3.6 0 0 1-3 1.3 3.4 3.4 0 0 1-1.6-.4 2.5 2.5 0 0 1-1-1 2.6 2.6 0 0 1-.4-1.3 2.2 2.2 0 0 1 .9-1.8 3.9 3.9 0 0 1 2.4-.7h2.7v-.4a1.8 1.8 0 0 0-.6-1.5 2.5 2.5 0 0 0-1.6-.5 4.7 4.7 0 0 0-2.7 1l-.6-1a7.6 7.6 0 0 1 1.7-1 6 6 0 0 1 1.9-.2 3.6 3.6 0 0 1 2.5.8 2.9 2.9 0 0 1 1 2.2v5.7zm-.9-1.7a2 2 0 0 0 .9-1.4v-.9h-2.5a3 3 0 0 0-1.6.3 1 1 0 0 0-.5 1 1.3 1.3 0 0 0 .5 1 2.2 2.2 0 0 0 1.4.5 3.2 3.2 0 0 0 1.8-.6zM43.7 409a3.6 3.6 0 0 1 1.9-.6v1.5a2.9 2.9 0 0 0-2.2.7 3 3 0 0 0-1 2v4.6H41v-8.7h1.5v1.9a3.1 3.1 0 0 1 1.2-1.5zM50 409a3.6 3.6 0 0 1 1.9-.6v1.5a2.9 2.9 0 0 0-2.2.7 3 3 0 0 0-1 2v4.6h-1.5v-8.7h1.5v1.9a3.1 3.1 0 0 1 1.3-1.5zM55 405.3a1 1 0 0 1 .2.7 1 1 0 0 1-.3.7 1 1 0 0 1-1.3 0 1 1 0 0 1-.3-.7 1 1 0 0 1 .3-.7 1 1 0 0 1 1.3 0zm-1.5 3.2H55v8.7h-1.5zM63.3 417.2V416a3.6 3.6 0 0 1-3 1.3 3.5 3.5 0 0 1-1.6-.4 2.5 2.5 0 0 1-1.4-2.3 2.3 2.3 0 0 1 .8-1.8 3.9 3.9 0 0 1 2.5-.7h2.7v-.4a1.8 1.8 0 0 0-.6-1.5 2.5 2.5 0 0 0-1.6-.5 4.7 4.7 0 0 0-2.7 1l-.6-1a7.7 7.7 0 0 1 1.7-1 5.9 5.9 0 0 1 2-.2 3.6 3.6 0 0 1 2.4.8 2.9 2.9 0 0 1 1 2.2v5.7zm-1-1.7a2 2 0 0 0 1-1.4v-.9h-2.6a3 3 0 0 0-1.5.3 1 1 0 0 0-.5 1 1.3 1.3 0 0 0 .5 1 2.2 2.2 0 0 0 1.4.5 3.1 3.1 0 0 0 1.8-.6zM75.2 408.5v7.8a4.2 4.2 0 0 1-.5 2.2 3.7 3.7 0 0 1-1.6 1.4 5.2 5.2 0 0 1-2.3.5 6 6 0 0 1-3.6-1.2l.7-1.1a4.8 4.8 0 0 0 1.3.7 4.4 4.4 0 0 0 1.5.3 3 3 0 0 0 2.2-.8 2.7 2.7 0 0 0 .8-2v-1.2a3.1 3.1 0 0 1-1.3 1.2 3.6 3.6 0 0 1-1.8.5 4 4 0 0 1-2-.5 3.7 3.7 0 0 1-1.4-1.5 4.7 4.7 0 0 1-.5-2.2 4.6 4.6 0 0 1 .5-2.2 3.6 3.6 0 0 1 1.4-1.4 4 4 0 0 1 2-.5 3.8 3.8 0 0 1 1.8.4 3.2 3.2 0 0 1 1.3 1.2v-1.6zm-2.8 6.7a2.6 2.6 0 0 0 1-1 3.3 3.3 0 0 0 .3-1.5 3.2 3.2 0 0 0-.3-1.6 2.6 2.6 0 0 0-1-1 2.7 2.7 0 0 0-1.5-.4 2.8 2.8 0 0 0-1.4.4 2.6 2.6 0 0 0-1 1 3 3 0 0 0-.4 1.6 3 3 0 0 0 .8 2 2.6 2.6 0 0 0 2 .9 2.7 2.7 0 0 0 1.4-.4zM84.5 409.6a4.9 4.9 0 0 1 1 3.3v.5h-6.8a3 3 0 0 0 1 1.9 2.9 2.9 0 0 0 2 .7 3.8 3.8 0 0 0 1.4-.3 3.5 3.5 0 0 0 1.2-.8l.8.9a4.3 4.3 0 0 1-1.5 1 5 5 0 0 1-2 .4 4.6 4.6 0 0 1-2.3-.5 3.8 3.8 0 0 1-1.5-1.6 5 5 0 0 1 0-4.6 4 4 0 0 1 1.5-1.5 4.5 4.5 0 0 1 2.2-.6 3.8 3.8 0 0 1 3 1.2zm-.3 2.6a2.5 2.5 0 0 0-2.7-2.5 2.8 2.8 0 0 0-1.9.7 2.9 2.9 0 0 0-1 1.8zM88.5 415.7a.9.9 0 0 1 .3.7 1 1 0 0 1-.1.4l-.2.3-.9 1.9h-.8l.7-1.9a.8.8 0 0 1-.4-.3 1 1 0 0 1-.1-.4.9.9 0 0 1 .9-1 .8.8 0 0 1 .6.3zM103.2 406.4a5.5 5.5 0 0 1 2.1 2 6 6 0 0 1 0 6 5.6 5.6 0 0 1-2.1 2 6.3 6.3 0 0 1-3 .8h-4.7v-11.5h4.6a6.1 6.1 0 0 1 3 .7zm-.8 8.8a4 4 0 0 0 1.5-1.6 4.3 4.3 0 0 0 .6-2.2 4.4 4.4 0 0 0-.6-2.2 4.3 4.3 0 0 0-1.6-1.5 4.5 4.5 0 0 0-2.2-.6h-3v8.6h3a4.3 4.3 0 0 0 2.3-.5zM114.7 409.6a4.9 4.9 0 0 1 1 3.3v.5h-6.9a3 3 0 0 0 1 1.9 2.9 2.9 0 0 0 2 .7 3.8 3.8 0 0 0 1.5-.3 3.6 3.6 0 0 0 1.1-.8l.9.9a4.3 4.3 0 0 1-1.6 1 5 5 0 0 1-2 .4 4.6 4.6 0 0 1-2.2-.5 3.8 3.8 0 0 1-1.6-1.6 5 5 0 0 1 0-4.6 4 4 0 0 1 1.5-1.5 4.5 4.5 0 0 1 2.3-.6 3.8 3.8 0 0 1 3 1.2zm-.3 2.6a2.6 2.6 0 0 0-.8-1.8 2.7 2.7 0 0 0-2-.7 2.7 2.7 0 0 0-1.8.7 2.9 2.9 0 0 0-1 1.8zM123.1 417.2V416a3.6 3.6 0 0 1-3 1.3 3.4 3.4 0 0 1-1.5-.4 2.4 2.4 0 0 1-1-1 2.5 2.5 0 0 1-.4-1.3 2.3 2.3 0 0 1 .8-1.8 3.9 3.9 0 0 1 2.5-.7h2.7v-.4a1.8 1.8 0 0 0-.6-1.5 2.5 2.5 0 0 0-1.6-.5 4.7 4.7 0 0 0-2.7 1l-.6-1a7.6 7.6 0 0 1 1.7-1 6 6 0 0 1 2-.2 3.6 3.6 0 0 1 2.4.8 3 3 0 0 1 1 2.2v5.7zm-.9-1.7a2 2 0 0 0 1-1.4v-.9h-2.6a3 3 0 0 0-1.6.3 1 1 0 0 0-.5 1 1.3 1.3 0 0 0 .6 1 2.2 2.2 0 0 0 1.3.5 3.1 3.1 0 0 0 1.8-.6zM132 416.6a3.7 3.7 0 0 1-2 .6 2.3 2.3 0 0 1-1.7-.6 2.5 2.5 0 0 1-.6-1.9V410h-1.3v-1.1h1.3v-2.4h1.5v2.4h2.7v1.1h-2.7v4.6a1.6 1.6 0 0 0 .3 1 1 1 0 0 0 .8.3 2.8 2.8 0 0 0 1.3-.4zM141.2 409.3a3.4 3.4 0 0 1 .9 2.5v5.4h-1.5v-5a2.1 2.1 0 0 0-2.3-2.4 2.6 2.6 0 0 0-2 .9 3.1 3.1 0 0 0-.8 2.2v4.2H134V405h1.5v5.4a3.3 3.3 0 0 1 3.3-2 3.2 3.2 0 0 1 2.4 1zM145.7 415.7a.9.9 0 0 1 .2.7 1 1 0 0 1 0 .4l-.2.3-1 1.9h-.7l.7-1.8a.9.9 0 0 1-.4-.4.9.9 0 0 1-.1-.4.9.9 0 0 1 .3-.7.9.9 0 0 1 .6-.2.8.8 0 0 1 .6.2zM24.3 437.1l-1.8-1.8a6 6 0 0 1-1.7 1.2 4.3 4.3 0 0 1-1.9.4 3.7 3.7 0 0 1-1.7-.4 3.2 3.2 0 0 1-1.3-1.1 3 3 0 0 1-.5-1.6 2.6 2.6 0 0 1 .7-1.9 7.3 7.3 0 0 1 1.9-1.4 6.3 6.3 0 0 1-.9-1.4 3.1 3.1 0 0 1-.3-1.3 2.4 2.4 0 0 1 .8-1.8 3 3 0 0 1 2.1-.7 3 3 0 0 1 2 .7 2 2 0 0 1 .8 1.7 2.3 2.3 0 0 1-.4 1.3 3.7 3.7 0 0 1-1 1 12.8 12.8 0 0 1-1.4.8l2.6 2.8a10.8 10.8 0 0 0 1.1-2.2l1 .8a11.6 11.6 0 0 1-1.2 2.2l1.9 2zm-2.7-2.7l-3-3a5.6 5.6 0 0 0-1.4 1 1.8 1.8 0 0 0-.5 1.3 2 2 0 0 0 .7 1.5 2.3 2.3 0 0 0 1.6.5 3.7 3.7 0 0 0 2.6-1.3zM19 430a8 8 0 0 0 1.7-1 1.6 1.6 0 0 0 .5-1.3 1.3 1.3 0 0 0-.4-1 1.6 1.6 0 0 0-1-.4 1.7 1.7 0 0 0-1.3.4 1.4 1.4 0 0 0-.4 1.1 4 4 0 0 0 .9 2.2zM38 427a4.4 4.4 0 0 0-4 .3 4.4 4.4 0 0 0-1.6 1.6 4.5 4.5 0 0 0 0 4.4A4.4 4.4 0 0 0 34 435a4.4 4.4 0 0 0 2.2.6 4.6 4.6 0 0 0 1.8-.4 5.4 5.4 0 0 0 1.6-1l.9 1a6.4 6.4 0 0 1-2 1.4 6 6 0 0 1-5.3-.3A5.8 5.8 0 0 1 31 434a5.8 5.8 0 0 1-.8-3 5.7 5.7 0 0 1 .8-3 5.7 5.7 0 0 1 2.2-2 6 6 0 0 1 3-.9 6.2 6.2 0 0 1 2.3.5 5.6 5.6 0 0 1 2 1.3l-1 1.1a4.7 4.7 0 0 0-1.5-1zM44 425a1 1 0 0 1 .3.7 1 1 0 0 1-.3.7 1 1 0 0 1-.7.3 1 1 0 0 1-.7-.3 1 1 0 0 1-.2-.7 1 1 0 0 1 .2-.7 1 1 0 0 1 .7-.3.9.9 0 0 1 .7.3zm-1.4 3.2H44v8.7h-1.6zM45.6 428.2h1.6l2.6 7.2 2.6-7.2H54l-3.4 8.7H49zM56.8 425a1 1 0 0 1 .3.7 1 1 0 0 1-.3.7 1 1 0 0 1-1.3 0 1 1 0 0 1-.3-.7 1 1 0 0 1 .3-.7 1 1 0 0 1 1.3 0zm-1.4 3.2h1.5v8.7h-1.5zM60 424.7h1.5v12.2H60zM71.2 434.7a3.2 3.2 0 0 0 2.5.9 3.2 3.2 0 0 0 2.4-1 3.4 3.4 0 0 0 .8-2.4v-6.8h1.6v6.8a4.7 4.7 0 0 1-1.3 3.5 4.8 4.8 0 0 1-3.5 1.3 4.9 4.9 0 0 1-3.6-1.3 4.7 4.7 0 0 1-1.3-3.5v-6.8h1.6v6.8a3.4 3.4 0 0 0 .8 2.5zM88.6 429a3.4 3.4 0 0 1 .9 2.5v5.3H88v-5a2.3 2.3 0 0 0-.6-1.7 2.3 2.3 0 0 0-1.7-.6 2.6 2.6 0 0 0-2 .8 2.9 2.9 0 0 0-.7 1.8v4.7h-1.6v-8.7h1.5v1.9a3.4 3.4 0 0 1 3.3-1.9 3.2 3.2 0 0 1 2.4.9zM93.7 425a1 1 0 0 1 .2.7 1 1 0 0 1-.2.7 1 1 0 0 1-.7.3 1 1 0 0 1-.7-.3 1 1 0 0 1-.3-.7 1 1 0 0 1 .3-.7 1 1 0 0 1 .7-.3.9.9 0 0 1 .7.3zm-1.5 3.2h1.5v8.7h-1.5zM102.6 428.7a4 4 0 0 1 1.6 1.5 5 5 0 0 1 0 4.6 4 4 0 0 1-1.6 1.6 5 5 0 0 1-4.6 0 4 4 0 0 1-1.6-1.6 5 5 0 0 1 0-4.6 4 4 0 0 1 1.6-1.5 5 5 0 0 1 4.6 0zm-3.8 1.2a2.7 2.7 0 0 0-1 1 3.3 3.3 0 0 0-.4 1.6 3.4 3.4 0 0 0 .4 1.6 2.7 2.7 0 0 0 1 1.1 3 3 0 0 0 1.5.4 3 3 0 0 0 1.5-.4 2.7 2.7 0 0 0 1-1 3.4 3.4 0 0 0 .4-1.7 3.3 3.3 0 0 0-.4-1.6 2.7 2.7 0 0 0-1-1 2.8 2.8 0 0 0-1.5-.4 2.9 2.9 0 0 0-1.5.4zM114.1 429a3.4 3.4 0 0 1 1 2.5v5.3h-1.6v-5a2.3 2.3 0 0 0-.6-1.7 2.3 2.3 0 0 0-1.7-.6 2.6 2.6 0 0 0-2 .8 3 3 0 0 0-.8 1.8v4.7H107v-8.7h1.5v1.9a3.4 3.4 0 0 1 3.3-1.9 3.2 3.2 0 0 1 2.4.9zM121.3 429.6a4.3 4.3 0 0 0-1.2-.2 2 2 0 0 0-1.1.2 1 1 0 0 0 0 1.6 6.4 6.4 0 0 0 1.4.6 10.8 10.8 0 0 1 1.4.5 2.5 2.5 0 0 1 1 .8 2.1 2.1 0 0 1 .4 1.3 2.1 2.1 0 0 1-.9 1.9 3.9 3.9 0 0 1-2.3.6 6 6 0 0 1-1.9-.3 4.4 4.4 0 0 1-1.5-.9l.6-1.1a4 4 0 0 0 1.3.8 4.3 4.3 0 0 0 1.6.3 2.4 2.4 0 0 0 1.2-.3 1 1 0 0 0 .4-.8 1 1 0 0 0-.4-1 6.4 6.4 0 0 0-1.5-.5 10.2 10.2 0 0 1-1.4-.5 2.5 2.5 0 0 1-1-.8 2 2 0 0 1-.4-1.2 2 2 0 0 1 1-1.9 3.9 3.9 0 0 1 2.1-.6 5.5 5.5 0 0 1 1.6.2 4.7 4.7 0 0 1 1.3.6l-.6 1.2a5 5 0 0 0-1.1-.5zM312 379.3v9.8h-39V381l19.2-19.8a28 28 0 0 0 4.2-5.1 8.7 8.7 0 0 0 1.5-4.3 4.5 4.5 0 0 0-2-3.9 8.8 8.8 0 0 0-5.2-1.3 17.4 17.4 0 0 0-7 1.7 30.7 30.7 0 0 0-7.4 4.7l-4.6-8.7q10.2-7.7 20.7-7.7a23.8 23.8 0 0 1 9.3 1.7 14.4 14.4 0 0 1 6.2 4.7 11.5 11.5 0 0 1 2.2 7 15.6 15.6 0 0 1-2.6 8.1 54.6 54.6 0 0 1-7.3 9.2l-12 12zM348.6 358a16 16 0 0 1 7 5.6 14 14 0 0 1 2.4 8.1 17.2 17.2 0 0 1-2.5 9.4 16.7 16.7 0 0 1-7.3 6.3 25.8 25.8 0 0 1-11 2.2 34.5 34.5 0 0 1-10.5-1.8 37 37 0 0 1-9.6-4.6l4.5-8.7a26.8 26.8 0 0 0 7 4.1 19.7 19.7 0 0 0 7.4 1.5 10.7 10.7 0 0 0 6.9-2 6.7 6.7 0 0 0 2.5-5.5 6 6 0 0 0-2.5-5.2 12.4 12.4 0 0 0-7.4-1.9c-1.8 0-4.2 0-7.2.2l-6.8.3v-29h34.1v9.9h-23.3v9.1h5.8a25.6 25.6 0 0 1 10.5 2zM246 357.3a28.1 28.1 0 0 0 5.7 2.1 49.5 49.5 0 0 1 6.3 2.3 11.2 11.2 0 0 1 4.3 3.3 9.2 9.2 0 0 1 1.7 6 9.9 9.9 0 0 1-3.2 7.5 14.6 14.6 0 0 1-8.3 3.6v7.7h-6.1V382a26.7 26.7 0 0 1-7.3-2 23.4 23.4 0 0 1-6-3.8l3.3-6.8a22.8 22.8 0 0 0 6.5 4 17.4 17.4 0 0 0 6.7 1.6 7.4 7.4 0 0 0 4-1 3.4 3.4 0 0 0 .5-5.2 7.8 7.8 0 0 0-2.5-1.5l-4.2-1.3a46 46 0 0 1-6.2-2.1 11 11 0 0 1-4.2-3.3 9 9 0 0 1-1.7-5.7 9.6 9.6 0 0 1 3-7.3 14.3 14.3 0 0 1 8-3.6v-7.2h6.2v7.1a29.1 29.1 0 0 1 6 1.4 22.2 22.2 0 0 1 5.3 2.6l-3.2 7a28 28 0 0 0-6.1-2.8 18.4 18.4 0 0 0-5.5-1 6.5 6.5 0 0 0-3.5.8 2.6 2.6 0 0 0-1.3 2.3 3.3 3.3 0 0 0 1.9 3zM233 399.3a1.5 1.5 0 0 0-.4 1.2v1.4h2.8v1.4h-2.8v8.5h-1.8v-8.5h-1.4v-1.4h1.4v-1.1a3.6 3.6 0 0 1 .4-2 3.1 3.1 0 0 1 1.3-1.2 3.6 3.6 0 0 1 1.7-.4 3.9 3.9 0 0 1 1.8.5l-.5 1.5a3 3 0 0 0-1.3-.3 1.6 1.6 0 0 0-1.1.4zM244 402.1a4.8 4.8 0 0 1 1.8 1.9 5.8 5.8 0 0 1 0 5.4 4.8 4.8 0 0 1-1.9 1.9 6 6 0 0 1-5.5 0 4.7 4.7 0 0 1-1.8-1.9 5.8 5.8 0 0 1 0-5.4 4.8 4.8 0 0 1 1.8-1.8 6 6 0 0 1 5.5 0zm-4.6 1.4a3.3 3.3 0 0 0-1.3 1.3 4 4 0 0 0-.4 1.9 4.1 4.1 0 0 0 .5 2 3.1 3.1 0 0 0 1.2 1.2 3.6 3.6 0 0 0 1.8.5 3.5 3.5 0 0 0 1.8-.5 3.1 3.1 0 0 0 1.2-1.3 4.1 4.1 0 0 0 .4-1.9 4 4 0 0 0-.4-1.9 3.3 3.3 0 0 0-1.2-1.3 3.5 3.5 0 0 0-1.8-.5 3.5 3.5 0 0 0-1.8.5zM252.3 402a4.4 4.4 0 0 1 2.2-.5v1.7a3.3 3.3 0 0 0-3.7 3.2v5.5H249v-10.4h1.8v2.2a3.8 3.8 0 0 1 1.5-1.6zM263.3 397.7a1.2 1.2 0 0 1 .3.9 1.2 1.2 0 0 1-.3.8 1.1 1.1 0 0 1-.8.3 1 1 0 0 1-.8-.3 1.2 1.2 0 0 1-.3-.8 1.1 1.1 0 0 1 .3-.9 1 1 0 0 1 .8-.3 1.1 1.1 0 0 1 .8.3zm-1.7 3.8h1.8v10.3h-1.8zM275.5 402.5a4 4 0 0 1 1 3v6.3h-1.8V406a2.5 2.5 0 0 0-2.8-2.8 3.1 3.1 0 0 0-2.2 1 3.5 3.5 0 0 0-1 2.2v5.5h-1.8v-10.4h1.8v2.2a4 4 0 0 1 4-2.2 3.8 3.8 0 0 1 2.8 1zM281.5 397.7a1.2 1.2 0 0 1 .3.9 1.2 1.2 0 0 1-.3.8 1.1 1.1 0 0 1-.8.3 1 1 0 0 1-.8-.3 1.2 1.2 0 0 1-.3-.8 1.1 1.1 0 0 1 .3-.9 1 1 0 0 1 .8-.3 1.1 1.1 0 0 1 .8.3zm-1.7 3.8h1.8v10.3h-1.8zM290.7 411.2a4.4 4.4 0 0 1-2.4.7 2.8 2.8 0 0 1-2-.7 2.9 2.9 0 0 1-.8-2.2v-5.7H284v-1.4h1.5V399h1.8v2.8h3.2v1.4h-3.2v5.3a2 2 0 0 0 .3 1.3 1.2 1.2 0 0 0 1 .4 3.3 3.3 0 0 0 1.6-.5zM294.6 397.7a1.1 1.1 0 0 1 .3.9 1.2 1.2 0 0 1-.3.8 1 1 0 0 1-.8.3 1.1 1.1 0 0 1-.8-.3 1.2 1.2 0 0 1-.4-.8 1.2 1.2 0 0 1 .4-.9 1.1 1.1 0 0 1 .8-.3 1 1 0 0 1 .8.3zm-1.7 3.8h1.8v10.3h-1.8zM304.5 411.9v-1.5a4.2 4.2 0 0 1-3.6 1.5 4.2 4.2 0 0 1-1.9-.4 3 3 0 0 1-1.6-2.7 2.6 2.6 0 0 1 1-2.2 4.6 4.6 0 0 1 2.8-.9h3.3v-.5a2.2 2.2 0 0 0-.7-1.6 3 3 0 0 0-2-.6 5.6 5.6 0 0 0-3.2 1l-.7-1.2a9.3 9.3 0 0 1 2-1 6.8 6.8 0 0 1 2.3-.3 4.3 4.3 0 0 1 3 1 3.4 3.4 0 0 1 1 2.6v6.8zm-1-2a2.4 2.4 0 0 0 1-1.7v-1h-3a3.6 3.6 0 0 0-1.8.4 1.3 1.3 0 0 0-.6 1.2 1.5 1.5 0 0 0 .6 1.2 2.5 2.5 0 0 0 1.6.5 3.7 3.7 0 0 0 2.2-.7zM309.7 397.4h1.8v14.5h-1.8zM324.5 403a3.6 3.6 0 0 0-1.8.5 3.2 3.2 0 0 0-1.2 1.3 3.9 3.9 0 0 0-.5 1.9 4 4 0 0 0 .5 1.9 3.2 3.2 0 0 0 1.2 1.3 3.4 3.4 0 0 0 1.8.4 4.7 4.7 0 0 0 1.8-.3 3.5 3.5 0 0 0 1.3-1l1 1a4.5 4.5 0 0 1-1.8 1.4 6.2 6.2 0 0 1-2.4.5 5.3 5.3 0 0 1-2.7-.7 4.6 4.6 0 0 1-1.8-1.9 5.5 5.5 0 0 1-.7-2.7 5.5 5.5 0 0 1 .7-2.7 4.6 4.6 0 0 1 1.8-1.8 5.4 5.4 0 0 1 2.7-.7 6.7 6.7 0 0 1 2.3.4 4.7 4.7 0 0 1 1.8 1.2l-1 1.2a4.1 4.1 0 0 0-3-1.1zM337.8 402.1a4.8 4.8 0 0 1 1.9 1.9 5.8 5.8 0 0 1 0 5.4 4.8 4.8 0 0 1-1.9 1.8 6 6 0 0 1-5.5 0 4.7 4.7 0 0 1-1.9-1.8 5.8 5.8 0 0 1 0-5.4 4.8 4.8 0 0 1 1.9-1.9 6 6 0 0 1 5.5 0zm-4.5 1.4a3.3 3.3 0 0 0-1.3 1.3 4 4 0 0 0-.4 1.9 4.1 4.1 0 0 0 .4 2 3.1 3.1 0 0 0 1.3 1.2 3.6 3.6 0 0 0 1.8.5 3.5 3.5 0 0 0 1.7-.5 3.1 3.1 0 0 0 1.3-1.3 4.1 4.1 0 0 0 .4-1.9 4 4 0 0 0-.4-1.9 3.3 3.3 0 0 0-1.2-1.3 3.5 3.5 0 0 0-1.8-.5 3.5 3.5 0 0 0-1.8.5zM351.2 402.1a4.5 4.5 0 0 1 1.8 1.9 6.3 6.3 0 0 1 0 5.4 4.4 4.4 0 0 1-1.7 1.9 5 5 0 0 1-2.6.6 4.8 4.8 0 0 1-2.3-.5 4 4 0 0 1-1.6-1.6v5.8H343v-14h1.8v2a4 4 0 0 1 1.6-1.6 4.7 4.7 0 0 1 2.2-.5 5 5 0 0 1 2.6.6zm-1.1 7.8a3.2 3.2 0 0 0 1.2-1.3 4 4 0 0 0 .4-2 4 4 0 0 0-.4-1.8 3.3 3.3 0 0 0-3-1.8 3.5 3.5 0 0 0-1.8.5 3.3 3.3 0 0 0-1.2 1.3 4.2 4.2 0 0 0 0 3.8 3.4 3.4 0 0 0 1.2 1.3 3.5 3.5 0 0 0 1.8.4 3.4 3.4 0 0 0 1.8-.4zM358 415.1a3.1 3.1 0 0 1-1.8.6 3.6 3.6 0 0 1-1.2-.2 3.4 3.4 0 0 1-1-.6l.7-1.4a2.4 2.4 0 0 0 1.4.5 1.9 1.9 0 0 0 1.7-1.3l.4-1-4.2-10.2h2l3.2 8.3 3-8.3h2l-4.8 11.8a4.1 4.1 0 0 1-1.3 1.8z"/></g></g></svg>