<svg xmlns="http://www.w3.org/2000/svg" viewBox="0 0 696 459"><defs><style>.cls-1{fill:#afd3cd}.cls-2{fill:#5c7de4}.cls-3{fill:#222b3e}.cls-4{fill:#fff}.cls-6{fill:#476cc6}</style></defs><g id="Layer_2" data-name="Layer 2"><g id="State_ID" data-name="State ID"><path class="cls-1" d="M0 .2h696V459H0z"/><path class="cls-2" transform="rotate(90 261 372)" d="M174 111h174v522H174z"/><path class="cls-3" d="M348 285l54 87-54 87H87V285h261z"/><path class="cls-2" d="M174 285l54 87-54 87H15V285h159z"/><path class="cls-1" d="M107.6 284h-42l21 25.2 21-25.2z"/><path class="cls-4" d="M442 25H80.6A13.5 13.5 0 0 0 67 38.5v199A13.5 13.5 0 0 0 80.5 251h361.6a13.5 13.5 0 0 0 13.5-13.5v-199A13.5 13.5 0 0 0 442 25z"/><path class="cls-2" d="M442 25H80.6A13.5 13.5 0 0 0 67 38.5V79h388.6V38.5A13.5 13.5 0 0 0 442 25z"/><path fill="#ffae8a" d="M522 0h174v459H522z"/><path class="cls-1" d="M521 28v42l25.2-21L521 28z"/><circle class="cls-4" cx="609" cy="137" r="55"/><circle class="cls-4" cx="609" cy="261" r="55"/><circle class="cls-4" cx="609" cy="385" r="55"/><rect class="cls-1" x="215" y="104" width="157" height="11" rx="5.5" ry="5.5"/><rect class="cls-3" x="104" y="91" width="64" height="11" rx="5.5" ry="5.5"/><rect class="cls-1" x="215" y="229" width="71" height="9" rx="4.5" ry="4.5"/><rect class="cls-1" x="215" y="176" width="102" height="9" rx="4.5" ry="4.5"/><rect class="cls-1" x="215" y="190" width="102" height="9" rx="4.5" ry="4.5"/><rect class="cls-1" x="394" y="173" width="51" height="9" rx="4.5" ry="4.5"/><path class="cls-1" d="M85.9 118h100.5v120.5H85.9zM406.4 214.8v-17.3a6.4 6.4 0 0 1 6.3-6.3H439a6.2 6.2 0 0 1 6.1 6v35.2a6.2 6.2 0 0 1-6.1 6h-26.4a6.2 6.2 0 0 1-6.1-6v-17.6z"/><rect class="cls-1" x="215" y="123" width="157" height="11" rx="5.5" ry="5.5"/><rect class="cls-1" x="215" y="142" width="157" height="11" rx="5.5" ry="5.5"/><rect class="cls-1" x="297" y="229" width="71" height="9" rx="4.5" ry="4.5"/><path class="cls-6" d="M483.3 324.2c-2.1-4.6-7.4-7.3-12.2-7.9-10.2-1.2-16.6 9-21 16.5a3.4 3.4 0 0 0-.3.6 27.7 27.7 0 0 1 10.3-.8l1.3-2 .6-.7a1.6 1.6 0 0 1 .1-.2l.5-.6a25.2 25.2 0 0 1 2.7-2.6l.3-.3.1-.1 1.9-1 .3-.1 1-.3a11.4 11.4 0 0 1 1.4 0 7.3 7.3 0 0 0 1 .2l.6.2.5.2.4.2.7.3 1 .7.4.4.4.4.5.9.1.4c0 .3.2 1.5.2.5v2.9c0 .2 0 .3-.2.5l-.2 1.2a49.1 49.1 0 0 1-2 6.3c-.2.1-.2.3-.3.5a2.6 2.6 0 0 0-.1.4 88 88 0 0 1-2.9 5.8 63 63 0 0 1-4.6 7.4l-.6.9-1.5 1.7a31.2 31.2 0 0 1-2.8 2.7l-.8.7.4-.3-.5.3a14.7 14.7 0 0 1-1.7 1l-.7.3a1.8 1.8 0 0 1-.2.1 7 7 0 0 1-.9.3h-.4c-.3.1-.3 0-.1 0h-1.2l-1-.3-.8-.4-.9-.5v-.1l-.3-.2c-1.6-1.4-4.3-1.8-6 0-1.4 1.5-1.8 4.4 0 6a15 15 0 0 0 9.5 4 15.4 15.4 0 0 0 8.4-2.6c5.7-3.6 9.8-9.4 13-15.1a66.9 66.9 0 0 0 7-16.5c1.1-3.9 1.3-8.1-.4-11.9zm-8.7 2.3c.5.4.2.1 0 0zm-21 35c-.7-.2 0 0 .2 0zm.3 0v.1c0 .1 0 0 0 0zM476 332c0 .7 0 .2 0 0zm-.2-3.7c.2.3.1.2 0 0z"/><path class="cls-6" d="M456.4 361.8a1 1 0 0 0-.4 0 2.3 2.3 0 0 1 .4 0z"/><path class="cls-6" d="M449.9 375.4l-.6.7-.1.2-.6.6a25 25 0 0 1-2.6 2.6l-.3.3-.1.1-1.9 1-.3.1-1 .3a11.4 11.4 0 0 1-1.4 0 7.8 7.8 0 0 0-1-.2l-.6-.2-.5-.2-.4-.2a8.8 8.8 0 0 1-1.7-1l-.4-.4-.4-.4a7.6 7.6 0 0 0-.5-.9l-.1-.4c-.1-.1-.2-1.5-.2-.5v-1.6-1.3l.1-.5.3-1.2a46.2 46.2 0 0 1 2-6.3l.3-.5.1-.4 1-2c.5-1.3 1.2-2.5 1.9-3.8a64 64 0 0 1 4.6-7.4l.6-.9 1.4-1.7a28.9 28.9 0 0 1 2.9-2.7c.2-.2.6-.7.8-.7l-.4.3.5-.3a15.3 15.3 0 0 1 1.7-1l.6-.3.3-.1.9-.3h.4c.3-.1.3 0 0 0h1.3l1 .3.8.4.9.5.3.3c1.6 1.4 4.3 1.8 6 0 1.4-1.5 1.8-4.4 0-6a15 15 0 0 0-9.5-4 15.4 15.4 0 0 0-8.4 2.6 42 42 0 0 0-13 15.1 66.9 66.9 0 0 0-7 16.4c-1 4-1.3 8.2.5 12 2.1 4.6 7.4 7.3 12.2 7.9 10.2 1.2 16.6-9 21-16.5a4.3 4.3 0 0 0 .3-.6 27.7 27.7 0 0 1-10.3.9l-1.4 1.9zm7.9-31c.6.3-.1 0-.3 0zm-.3 0h-.1zM435.2 374c0-.7 0-.2 0 0zm.2 3.7c-.2-.3-.1-.2 0 0zm1.3 1.8c-.5-.4-.2-.2 0 0z"/><path class="cls-6" d="M454.9 344.2a1 1 0 0 0 .4 0 1.5 1.5 0 0 1-.4 0z"/><path class="cls-4" d="M401.2 402.3a4.5 4.5 0 0 0-1.8-.4 4.6 4.6 0 0 0-2.3.6 4.6 4.6 0 0 0-1.7 1.7 4.6 4.6 0 0 0 1.7 6.2 4.6 4.6 0 0 0 4.1.3 5.3 5.3 0 0 0 1.6-1l1 1a6.6 6.6 0 0 1-2 1.4 6.2 6.2 0 0 1-5.6-.3 6 6 0 0 1-3-5.3 5.8 5.8 0 0 1 .8-3 6 6 0 0 1 2.3-2.2 6.6 6.6 0 0 1 5.5-.3 6 6 0 0 1 2 1.3l-1 1.2a5 5 0 0 0-1.6-1.2zM406 399.8h1.6v12.7H406zM412.3 400.2a1 1 0 0 1 .2.7 1 1 0 0 1-.2.7 1 1 0 0 1-.7.3 1 1 0 0 1-.8-.3 1 1 0 0 1-.2-.7 1 1 0 0 1 .3-.7 1 1 0 0 1 .7-.3.9.9 0 0 1 .7.3zm-1.5 3.3h1.6v9h-1.6zM419.2 404.8a3.1 3.1 0 0 0-1.6.4 2.7 2.7 0 0 0-1 1.1 3.4 3.4 0 0 0-.5 1.7 3.5 3.5 0 0 0 .4 1.6 2.8 2.8 0 0 0 1 1.1 2.9 2.9 0 0 0 1.6.4 4 4 0 0 0 1.6-.3 3 3 0 0 0 1.1-.8l1 1a4 4 0 0 1-1.6 1.1 5.4 5.4 0 0 1-2.2.4 4.6 4.6 0 0 1-2.3-.6 4 4 0 0 1-1.6-1.6 4.8 4.8 0 0 1-.5-2.3 4.8 4.8 0 0 1 .5-2.4 4.1 4.1 0 0 1 1.6-1.6 4.7 4.7 0 0 1 2.3-.6 5.7 5.7 0 0 1 2 .4 4 4 0 0 1 1.6 1l-.9 1a3.5 3.5 0 0 0-2.5-1zM431.3 412.5l-2.9-4.4-1.8 1.8v2.6h-1.5v-12.7h1.5v8l4.4-4.4h1.9l-3.4 3.6 3.7 5.5zM441.6 401.5a1.4 1.4 0 0 0-.4 1.1v1.2h2.5v1.2h-2.5v7.5h-1.6V405h-1.1v-1.2h1.1v-1a3.1 3.1 0 0 1 .5-1.7 2.7 2.7 0 0 1 1-1 3.2 3.2 0 0 1 1.5-.3 3.6 3.6 0 0 1 1.6.4l-.4 1.3a2.7 2.7 0 0 0-1.1-.3 1.4 1.4 0 0 0-1 .3zM451.1 404a4.2 4.2 0 0 1 1.6 1.6 4.7 4.7 0 0 1 .6 2.4 4.7 4.7 0 0 1-.6 2.3 4.1 4.1 0 0 1-1.6 1.6 5.3 5.3 0 0 1-4.8 0 4.1 4.1 0 0 1-1.6-1.6 5 5 0 0 1 0-4.7 4.2 4.2 0 0 1 1.6-1.6 5.3 5.3 0 0 1 4.8 0zm-4 1.2a2.9 2.9 0 0 0-1 1.1 3.5 3.5 0 0 0-.4 1.7 3.6 3.6 0 0 0 .3 1.6 2.9 2.9 0 0 0 1.1 1.2 3.2 3.2 0 0 0 3.1 0 2.8 2.8 0 0 0 1.1-1.2 3.5 3.5 0 0 0 .4-1.6 3.4 3.4 0 0 0-.4-1.7 2.8 2.8 0 0 0-1-1 3.2 3.2 0 0 0-3.2 0zM458.4 404a3.9 3.9 0 0 1 2-.6v1.5a3 3 0 0 0-2.3.8 3 3 0 0 0-1 2v4.7h-1.6v-9h1.6v2a3.3 3.3 0 0 1 1.3-1.5zM480.5 404.4a3.5 3.5 0 0 1 1 2.5v5.6h-1.7v-5.2a2.5 2.5 0 0 0-.6-1.8 2.3 2.3 0 0 0-1.7-.6 2.6 2.6 0 0 0-2 .9 3.3 3.3 0 0 0-.8 2.2v4.5h-1.6v-5.2a2.5 2.5 0 0 0-.6-1.8 2.2 2.2 0 0 0-1.7-.6 2.7 2.7 0 0 0-2 .9 3.3 3.3 0 0 0-.7 2.2v4.5h-1.6v-9h1.6v1.9a3.9 3.9 0 0 1 5.4-1.4 3 3 0 0 1 1.1 1.7 3.4 3.4 0 0 1 3.5-2.3 3.2 3.2 0 0 1 2.4 1zM490.4 404a4.1 4.1 0 0 1 1.6 1.6 4.7 4.7 0 0 1 .6 2.4 4.7 4.7 0 0 1-.6 2.3 4 4 0 0 1-1.6 1.6 5.2 5.2 0 0 1-4.8 0 4.1 4.1 0 0 1-1.7-1.6 5 5 0 0 1 0-4.7 4.2 4.2 0 0 1 1.7-1.6 5.2 5.2 0 0 1 4.8 0zm-4 1.2a2.8 2.8 0 0 0-1.1 1.1 3.4 3.4 0 0 0-.4 1.7 3.5 3.5 0 0 0 .4 1.6 2.8 2.8 0 0 0 1 1.2 3.3 3.3 0 0 0 3.2 0 2.8 2.8 0 0 0 1-1.2 3.6 3.6 0 0 0 .5-1.6 3.5 3.5 0 0 0-.4-1.6 2.8 2.8 0 0 0-1-1.2 3.2 3.2 0 0 0-3.2 0zM497.6 404a3.9 3.9 0 0 1 2-.6v1.5a2.9 2.9 0 0 0-3.2 2.8v4.8h-1.6v-9h1.6v1.9a3.3 3.3 0 0 1 1.2-1.5zM508 404.6a5 5 0 0 1 1.1 3.5v.5H502a3 3 0 0 0 1 1.9 3 3 0 0 0 2 .7 3.9 3.9 0 0 0 1.5-.3 3.5 3.5 0 0 0 1.2-.8l.9 1a4.4 4.4 0 0 1-1.7 1 5.3 5.3 0 0 1-2 .4 4.8 4.8 0 0 1-2.4-.6 4 4 0 0 1-1.6-1.6 4.8 4.8 0 0 1-.5-2.3 4.8 4.8 0 0 1 .5-2.4 4.1 4.1 0 0 1 1.6-1.6 4.6 4.6 0 0 1 2.3-.6 4 4 0 0 1 3.3 1.3zm-.3 2.8a2.6 2.6 0 0 0-2.8-2.7 2.8 2.8 0 0 0-2 .7 3 3 0 0 0-1 2zM394.1 420.7h1.6v11.5h-1.6zM407.2 420.7h1.5v11.5h-1.5l-6.6-9v9H399v-11.5h1.6l6.6 8.9zM412 420.7h7.5v1.4h-5.9v3.8h5.3v1.4h-5.3v4.9H412zM429.4 421.3a6 6 0 0 1 2.2 2.1 5.6 5.6 0 0 1 .8 3 5.7 5.7 0 0 1-.8 3 5.8 5.8 0 0 1-2.2 2.1 6.3 6.3 0 0 1-6 0 5.8 5.8 0 0 1-3-5 5.7 5.7 0 0 1 .8-3 6 6 0 0 1 2.1-2.1 6.4 6.4 0 0 1 6.1 0zm-5.2 1.3a4.6 4.6 0 0 0-1.6 1.6 4.4 4.4 0 0 0 0 4.4 4.6 4.6 0 0 0 1.6 1.6 4.4 4.4 0 0 0 2.2.7 4.3 4.3 0 0 0 2.2-.6 4.5 4.5 0 0 0 1.6-1.7 4.4 4.4 0 0 0 0-4.4 4.6 4.6 0 0 0-1.6-1.6 4.3 4.3 0 0 0-2.2-.6 4.5 4.5 0 0 0-2.2.6zM442.1 432.2l-2.3-3.6h-3.6v3.5h-1.5v-11.4h4.5a5 5 0 0 1 3.4 1 3.6 3.6 0 0 1 1.2 2.8 4 4 0 0 1-.7 2.4 3.6 3.6 0 0 1-1.9 1.4l2.7 3.9zm-2.9-5a3.5 3.5 0 0 0 2.3-.7 2.4 2.4 0 0 0 .8-1.9 2.3 2.3 0 0 0-.8-1.9 3.6 3.6 0 0 0-2.3-.6h-3v5zM446.6 420.7h1.8l4.3 8 4.1-8h2v11.5h-1.6V423l-4 8h-1l-4.2-8v9.2h-1.5zM470.5 432.2l-1.2-2.8h-6l-1.2 2.8h-1.7l5.1-11.5h1.6l5.1 11.5zm-6.6-4.3h4.8l-2.4-5.5zM471.3 420.7h9v1.4h-3.7v10H475v-10h-3.7zM482.1 420.7h1.6v11.5h-1.6zM495 421.3a6 6 0 0 1 2.3 2.1 5.6 5.6 0 0 1 .7 3 5.7 5.7 0 0 1-.7 3 5.8 5.8 0 0 1-2.2 2.1 6.3 6.3 0 0 1-6.1 0 5.8 5.8 0 0 1-3-5 5.7 5.7 0 0 1 .8-3 6 6 0 0 1 2.2-2.1 6.4 6.4 0 0 1 6 0zm-5.2 1.3a4.5 4.5 0 0 0-1.6 1.6 4.4 4.4 0 0 0 0 4.4 4.5 4.5 0 0 0 1.6 1.6 4.4 4.4 0 0 0 2.2.7 4.3 4.3 0 0 0 2.2-.6 4.5 4.5 0 0 0 1.7-1.7 4.4 4.4 0 0 0 0-4.4 4.6 4.6 0 0 0-1.7-1.6 4.3 4.3 0 0 0-2.2-.6 4.5 4.5 0 0 0-2.2.6zM508.5 420.7h1.6v11.5h-1.6l-6.6-9v9h-1.6v-11.5h1.6l6.6 8.9zM26.8 322.3a8.5 8.5 0 0 1 3.4 3.2 9.3 9.3 0 0 1 1.2 4.8 9 9 0 0 1-1.2 4.7 8.7 8.7 0 0 1-3.5 3.2 10.8 10.8 0 0 1-5 1.2H14v-18.3h7.8a10.6 10.6 0 0 1 5 1.2zm-2.2 13a5 5 0 0 0 2-2 6.2 6.2 0 0 0 .6-3 6 6 0 0 0-.7-3 5.2 5.2 0 0 0-2-2 5.5 5.5 0 0 0-2.8-.6h-3.5V336h3.7a5.3 5.3 0 0 0 2.7-.8zM47.2 322a9.3 9.3 0 0 1 3.5 3.5 9.6 9.6 0 0 1 0 9.6 9.4 9.4 0 0 1-3.5 3.4 10.7 10.7 0 0 1-10 0 9.3 9.3 0 0 1-3.6-3.4 9.6 9.6 0 0 1 0-9.6 9.2 9.2 0 0 1 3.6-3.4 10.8 10.8 0 0 1 10 0zm-7.8 3.2a5.6 5.6 0 0 0-2 2.1 5.9 5.9 0 0 0-.8 3 5.7 5.7 0 0 0 .8 3 5.9 5.9 0 0 0 2 2 5.3 5.3 0 0 0 2.8.8 5.3 5.3 0 0 0 2.8-.8 5.5 5.5 0 0 0 2-2 6.2 6.2 0 0 0 0-6 5.5 5.5 0 0 0-2-2 5.3 5.3 0 0 0-2.8-.8 5.5 5.5 0 0 0-2.8.7zM65.3 325.1a5.6 5.6 0 0 0-2.5-.6 5.4 5.4 0 0 0-2.9.7 5.3 5.3 0 0 0-2 2 5.8 5.8 0 0 0-.7 3 5.9 5.9 0 0 0 .7 2.9 5.4 5.4 0 0 0 2 2 5.3 5.3 0 0 0 2.9.9 5.9 5.9 0 0 0 2.4-.6 8 8 0 0 0 2.3-1.6l2.4 2.6a10.8 10.8 0 0 1-3.4 2.4 9.6 9.6 0 0 1-4 1 9.9 9.9 0 0 1-4.9-1.3 9 9 0 0 1-3.4-3.4 9.5 9.5 0 0 1-1.2-4.9 9.1 9.1 0 0 1 4.8-8.1 10 10 0 0 1 5-1.2 10 10 0 0 1 4 .8 9.8 9.8 0 0 1 3.2 2.2l-2.4 3a6.9 6.9 0 0 0-2.3-1.8zM77.3 335a4 4 0 0 0 3 1.1 3.8 3.8 0 0 0 2.9-1.1 4.3 4.3 0 0 0 1-3.1V321h4.2V332a8.4 8.4 0 0 1-1 4.2 6.7 6.7 0 0 1-2.8 2.7 9.2 9.2 0 0 1-4.4 1 9.3 9.3 0 0 1-4.3-1 6.7 6.7 0 0 1-2.8-2.8 8.4 8.4 0 0 1-1-4.1V321h4V332a4.2 4.2 0 0 0 1.2 3.1zM92 321.1h4.7l5.7 11.3L108 321h4.6v18.3h-3.7v-12.3l-5.2 10.5H101L95.8 327v12.3H92zM116.6 321.1h14v3.5h-9.8v4h8.8v3.4h-8.8v4h10v3.4h-14.2zM146.7 321.1h4v18.3h-3.8l-8.9-11.7v11.7h-4v-18.3h3.8l9 11.9zM152.9 321.1h15.3v3.5h-5.6v14.8h-4.2v-14.8H153zM179.4 324.9a9 9 0 0 0-2.7-.5 3.1 3.1 0 0 0-1.7.4 1.3 1.3 0 0 0-.6 1.1 1.6 1.6 0 0 0 .9 1.5 14 14 0 0 0 2.8 1 24.1 24.1 0 0 1 3 1.1 5.5 5.5 0 0 1 2.2 1.7 4.6 4.6 0 0 1 .8 2.9 5 5 0 0 1-1 3 5.6 5.6 0 0 1-2.5 1.9 9.7 9.7 0 0 1-3.6.7 12.7 12.7 0 0 1-4.4-.8 11.8 11.8 0 0 1-3.7-2.2l1.6-3.3a11.3 11.3 0 0 0 3.2 2 8.5 8.5 0 0 0 3.3.7 3.6 3.6 0 0 0 2-.5 1.6 1.6 0 0 0 .2-2.5 3.6 3.6 0 0 0-1.2-.7l-2-.7a23.4 23.4 0 0 1-3-1 5.4 5.4 0 0 1-2-1.6 4.4 4.4 0 0 1-1-2.9 4.8 4.8 0 0 1 1-2.9 5.7 5.7 0 0 1 2.5-1.9 9.4 9.4 0 0 1 3.7-.6 12.7 12.7 0 0 1 3.7.5 12.3 12.3 0 0 1 3.2 1.5l-1.6 3.4a13.5 13.5 0 0 0-3-1.3zM25.3 364l-3-5.2h-4.1v5.2H14v-18.3H22a8.3 8.3 0 0 1 5.5 1.7 5.8 5.8 0 0 1 2 4.6 7 7 0 0 1-.8 3.7 5.6 5.6 0 0 1-2.6 2.2L30 364zm-7.1-8.7H22a4 4 0 0 0 2.6-.8 3 3 0 0 0 1-2.3 2.8 2.8 0 0 0-1-2.3 4 4 0 0 0-2.6-.8h-3.8zM33 345.7h13.9v3.4H37v4h8.8v3.4h-8.8v4h10v3.5H33zM69.7 366.2a7.7 7.7 0 0 1-2.4 1.5 7.5 7.5 0 0 1-2.7.5 5.7 5.7 0 0 1-3.4-1 8 8 0 0 1-2.5-3 10.2 10.2 0 0 1-4.9-1.2 9.2 9.2 0 0 1-4.7-8.2 9.2 9.2 0 0 1 1.3-4.8 9.3 9.3 0 0 1 3.5-3.4 10.8 10.8 0 0 1 10 0 9.2 9.2 0 0 1 3.6 3.4 9.4 9.4 0 0 1-5 13.6A3.3 3.3 0 0 0 65 365a3.7 3.7 0 0 0 1.5-.3 9.7 9.7 0 0 0 1.7-1.1zm-15.6-8.4a6 6 0 0 0 2 2 5.4 5.4 0 0 0 5.7 0 5.6 5.6 0 0 0 2-2 6 6 0 0 0 .7-3 5.9 5.9 0 0 0-.7-3 5.6 5.6 0 0 0-2-2 5.2 5.2 0 0 0-2.8-.8 5.5 5.5 0 0 0-2.8.8 5.6 5.6 0 0 0-2 2 6 6 0 0 0 0 6zM76.6 359.5a4 4 0 0 0 3 1.2 3.8 3.8 0 0 0 2.8-1.2 4.3 4.3 0 0 0 1.1-3v-10.8h4.1v10.7a8.4 8.4 0 0 1-1 4.2 6.6 6.6 0 0 1-2.8 2.7 9.2 9.2 0 0 1-4.3 1 9.3 9.3 0 0 1-4.4-1 6.6 6.6 0 0 1-2.8-2.7 8.3 8.3 0 0 1-1-4.2v-10.7h4.1v10.7a4.2 4.2 0 0 0 1.2 3.1zM91.3 345.7h4.1V364h-4zM110.7 364l-2.9-5.2h-4.2v5.2h-4.1v-18.3h8a8.3 8.3 0 0 1 5.5 1.7 5.8 5.8 0 0 1 2 4.6 7.1 7.1 0 0 1-.9 3.7 5.6 5.6 0 0 1-2.5 2.2l3.9 6zm-7-8.7h3.7a4 4 0 0 0 2.7-.8 3 3 0 0 0 1-2.3 2.8 2.8 0 0 0-1-2.3 4 4 0 0 0-2.7-.8h-3.8zM118.4 345.7h14v3.4h-9.9v4h8.8v3.4h-8.8v4h10.1v3.5h-14.2zM148.6 346.9a8.5 8.5 0 0 1 3.4 3.2 9.8 9.8 0 0 1 0 9.5 8.6 8.6 0 0 1-3.5 3.2 10.8 10.8 0 0 1-5 1.2h-7.6v-18.3h7.7a10.5 10.5 0 0 1 5 1.2zm-2.1 12.9a5 5 0 0 0 1.8-2 6 6 0 0 0 .7-3 6 6 0 0 0-.7-2.9 5.2 5.2 0 0 0-2-2 5.5 5.5 0 0 0-2.8-.7H140v11.3h3.7a5.3 5.3 0 0 0 2.8-.7zM14.6 386h4.2v11.5h-1.6v-10.1h-2.6zM22.9 396a1 1 0 0 1 0 1.4.8.8 0 0 1-.6.2.8.8 0 0 1-.7-.3 1 1 0 0 1 0-1.3.8.8 0 0 1 .7-.3.8.8 0 0 1 .6.3zM37.7 387a3.6 3.6 0 0 1 1.1 2.9 3.8 3.8 0 0 1-1.2 3 4.8 4.8 0 0 1-3.3 1h-2.8v3.6h-1.6V386h4.4a4.9 4.9 0 0 1 3.4 1zm-1.2 4.8a2.4 2.4 0 0 0 .8-1.9 2.3 2.3 0 0 0-.8-1.9 3.6 3.6 0 0 0-2.2-.6h-2.8v5h2.8a3.5 3.5 0 0 0 2.2-.6zM43.5 389.2a3.6 3.6 0 0 1 1.9-.5v1.5a2.8 2.8 0 0 0-3.1 2.7v4.6h-1.5v-8.7h1.5v1.8a3.2 3.2 0 0 1 1.2-1.4zM53 389.3a4 4 0 0 1 1.6 1.5 4.5 4.5 0 0 1 .5 2.3 4.5 4.5 0 0 1-.5 2.3A4 4 0 0 1 53 397a5 5 0 0 1-4.6 0 4 4 0 0 1-1.6-1.6 4.9 4.9 0 0 1 0-4.5 4 4 0 0 1 1.6-1.6 5 5 0 0 1 4.6 0zm-3.8 1.1a2.6 2.6 0 0 0-1 1.1 3.3 3.3 0 0 0-.4 1.6 3.4 3.4 0 0 0 .4 1.6 2.6 2.6 0 0 0 1 1.1 3 3 0 0 0 1.5.4 2.9 2.9 0 0 0 1.5-.4 2.7 2.7 0 0 0 1-1 3.5 3.5 0 0 0 .4-1.7 3.4 3.4 0 0 0-.4-1.6 2.7 2.7 0 0 0-1-1 2.8 2.8 0 0 0-1.5-.5 2.9 2.9 0 0 0-1.6.4zM63.2 389.3a4 4 0 0 1 1.5 1.5 4.5 4.5 0 0 1 .6 2.3 4.5 4.5 0 0 1-.6 2.3 4 4 0 0 1-1.5 1.6 4.7 4.7 0 0 1-2.3.6 4.8 4.8 0 0 1-2.4-.6 4 4 0 0 1-1.5-1.6 4.9 4.9 0 0 1 0-4.6 4 4 0 0 1 1.6-1.5 4.8 4.8 0 0 1 2.3-.6 4.7 4.7 0 0 1 2.3.6zm-3.9 1.1a2.7 2.7 0 0 0-1 1.1 3.4 3.4 0 0 0-.3 1.6 3.5 3.5 0 0 0 .3 1.6 2.6 2.6 0 0 0 1 1.1 3.1 3.1 0 0 0 3 0 2.6 2.6 0 0 0 1-1 3.4 3.4 0 0 0 .4-1.7 3.3 3.3 0 0 0-.4-1.6 2.6 2.6 0 0 0-1-1 3 3 0 0 0-3 0zM69.6 386.9a1.3 1.3 0 0 0-.4 1v1.1h2.4v1.2h-2.4v7.2h-1.5v-7.2h-1.2V389h1.2v-.9a3 3 0 0 1 .4-1.6 2.7 2.7 0 0 1 1-1 3.1 3.1 0 0 1 1.4-.4 3.5 3.5 0 0 1 1.6.4l-.4 1.3a2.5 2.5 0 0 0-1.1-.3 1.4 1.4 0 0 0-1 .4zM83.2 389.3a4 4 0 0 1 1.6 1.5 4.5 4.5 0 0 1 .6 2.3 4.5 4.5 0 0 1-.6 2.3 4 4 0 0 1-1.6 1.6 4.7 4.7 0 0 1-2.3.6 4.8 4.8 0 0 1-2.3-.6 4 4 0 0 1-1.6-1.6 4.9 4.9 0 0 1 0-4.6 4 4 0 0 1 1.6-1.5 4.8 4.8 0 0 1 2.3-.6 4.7 4.7 0 0 1 2.3.6zm-3.8 1.1a2.7 2.7 0 0 0-1 1.1 3.4 3.4 0 0 0-.4 1.6 3.5 3.5 0 0 0 .4 1.6 2.6 2.6 0 0 0 1 1.1 3.1 3.1 0 0 0 3 0 2.6 2.6 0 0 0 1-1 3.4 3.4 0 0 0 .4-1.7 3.3 3.3 0 0 0-.4-1.6 2.6 2.6 0 0 0-1-1 3 3 0 0 0-3 0zM89.6 386.9a1.3 1.3 0 0 0-.3 1v1.1h2.4v1.2h-2.4v7.2h-1.6v-7.2h-1.1V389h1.1v-.9a3 3 0 0 1 .4-1.6 2.7 2.7 0 0 1 1-1 3.1 3.1 0 0 1 1.5-.4 3.5 3.5 0 0 1 1.5.4l-.4 1.3a2.5 2.5 0 0 0-1-.3 1.4 1.4 0 0 0-1 .4zM105 397.5l-2.4-3.7H99v3.6h-1.5V386h4.5a5.1 5.1 0 0 1 3.4 1 3.6 3.6 0 0 1 1.2 2.9 4.1 4.1 0 0 1-.7 2.3 3.7 3.7 0 0 1-1.9 1.4l2.7 3.9zm-3-5a3.5 3.5 0 0 0 2.3-.7 2.3 2.3 0 0 0 .7-1.9 2.3 2.3 0 0 0-.7-1.9 3.6 3.6 0 0 0-2.3-.6h-3v5zM115.8 390a4.9 4.9 0 0 1 1 3.2v.5h-7a3 3 0 0 0 1 1.9 2.9 2.9 0 0 0 2 .7 3.6 3.6 0 0 0 1.5-.3 3.5 3.5 0 0 0 1.2-.8l.8.9a4.3 4.3 0 0 1-1.5 1 5.2 5.2 0 0 1-2 .4 4.7 4.7 0 0 1-2.3-.5 4 4 0 0 1-1.5-1.6 4.7 4.7 0 0 1-.6-2.3 4.6 4.6 0 0 1 .6-2.3 4 4 0 0 1 1.5-1.5 4.4 4.4 0 0 1 2.3-.6 3.8 3.8 0 0 1 3 1.2zm-.4 2.5a2.5 2.5 0 0 0-2.7-2.5 2.8 2.8 0 0 0-1.9.7 2.9 2.9 0 0 0-1 1.8zM122.4 390.2a4.4 4.4 0 0 0-1.2-.2 2.1 2.1 0 0 0-1.1.2.8.8 0 0 0-.4.8.9.9 0 0 0 .4.8 6.4 6.4 0 0 0 1.5.6 11.6 11.6 0 0 1 1.4.5 2.6 2.6 0 0 1 1 .8 2.4 2.4 0 0 1-.5 3.2 4 4 0 0 1-2.3.6 6 6 0 0 1-1.9-.3 4.4 4.4 0 0 1-1.5-.9l.6-1.1a4.1 4.1 0 0 0 1.3.8 4.4 4.4 0 0 0 1.6.3 2.4 2.4 0 0 0 1.2-.3 1 1 0 0 0 .4-.9 1 1 0 0 0-.5-.8 6 6 0 0 0-1.4-.6 10.6 10.6 0 0 1-1.5-.5 2.5 2.5 0 0 1-.9-.8 2.3 2.3 0 0 1 .5-3 4 4 0 0 1 2.2-.7 5.4 5.4 0 0 1 1.6.2 4.6 4.6 0 0 1 1.3.6l-.6 1.2a5.1 5.1 0 0 0-1.2-.5zM127.9 385.6a1 1 0 0 1 .2.7 1 1 0 0 1-.2.7 1 1 0 0 1-1.4 0 1 1 0 0 1-.3-.7 1 1 0 0 1 .3-.7 1 1 0 0 1 1.4 0zm-1.5 3.2h1.6v8.7h-1.5zM139 385.3v12.2h-1.5v-1.8a3.5 3.5 0 0 1-1.4 1.4 3.9 3.9 0 0 1-1.9.4 4 4 0 0 1-2.1-.5 3.8 3.8 0 0 1-1.5-1.6 5 5 0 0 1-.5-2.3 4.8 4.8 0 0 1 .5-2.3 3.9 3.9 0 0 1 1.5-1.5 4.1 4.1 0 0 1 2.1-.6 4 4 0 0 1 2 .5 3.2 3.2 0 0 1 1.3 1.3v-5.2zm-3 10.5a2.8 2.8 0 0 0 1-1 3.3 3.3 0 0 0 .4-1.7 3.4 3.4 0 0 0-.3-1.6 2.8 2.8 0 0 0-1.1-1 3 3 0 0 0-1.5-.5 2.8 2.8 0 0 0-2.6 1.5 3.5 3.5 0 0 0 0 3.2 2.8 2.8 0 0 0 1 1.1 3 3 0 0 0 3 0zM148.6 390a4.9 4.9 0 0 1 1 3.2 3.2 3.2 0 0 1 0 .5h-6.8a3 3 0 0 0 1 1.9 2.9 2.9 0 0 0 2 .7 3.7 3.7 0 0 0 1.4-.3 3.4 3.4 0 0 0 1.2-.8l.8.9a4.3 4.3 0 0 1-1.5 1 5.2 5.2 0 0 1-2 .4 4.7 4.7 0 0 1-2.3-.5 3.9 3.9 0 0 1-1.6-1.6 4.7 4.7 0 0 1-.5-2.3 4.6 4.6 0 0 1 .5-2.3 4 4 0 0 1 1.6-1.5 4.4 4.4 0 0 1 2.2-.6 3.9 3.9 0 0 1 3 1.2zm-.3 2.5a2.6 2.6 0 0 0-.8-1.8 2.6 2.6 0 0 0-2-.7 2.7 2.7 0 0 0-1.8.7 2.9 2.9 0 0 0-1 1.8zM159 389.6a3.4 3.4 0 0 1 .9 2.5v5.4h-1.6v-5a2.3 2.3 0 0 0-.6-1.8 2.3 2.3 0 0 0-1.7-.6 2.6 2.6 0 0 0-1.9.8 3 3 0 0 0-.8 1.9v4.6h-1.5v-8.7h1.5v1.9a3.4 3.4 0 0 1 3.3-2 3.2 3.2 0 0 1 2.4 1zM166.2 390a3 3 0 0 0-1.5.5 2.7 2.7 0 0 0-1 1 3.3 3.3 0 0 0-.4 1.6 3.3 3.3 0 0 0 .3 1.6 2.8 2.8 0 0 0 1 1 2.8 2.8 0 0 0 1.5.5 4 4 0 0 0 1.6-.3 3 3 0 0 0 1-.8l1 .9a3.8 3.8 0 0 1-1.6 1.1 5 5 0 0 1-2 .4 4.5 4.5 0 0 1-2.3-.6 4 4 0 0 1-1.5-1.5 4.7 4.7 0 0 1-.6-2.3 4.8 4.8 0 0 1 .6-2.3 4 4 0 0 1 1.5-1.5 4.5 4.5 0 0 1 2.3-.6 5.4 5.4 0 0 1 2 .4 3.8 3.8 0 0 1 1.4 1l-.8 1a3.4 3.4 0 0 0-2.5-1zM173.7 400.2a2.6 2.6 0 0 1-1.6.5 3 3 0 0 1-1-.2 2.8 2.8 0 0 1-.8-.5l.6-1.2a2 2 0 0 0 1.2.4 1.6 1.6 0 0 0 1.5-1l.3-.8-3.6-8.6h1.6l2.8 7 2.6-7h1.5l-4 9.9a3.4 3.4 0 0 1-1 1.5zM23.4 415.7v1.5h-8.3V416l4.5-4.6a7.1 7.1 0 0 0 1.1-1.4 2.5 2.5 0 0 0 .4-1.3 1.4 1.4 0 0 0-.6-1.2 2.8 2.8 0 0 0-1.6-.5 4.2 4.2 0 0 0-1.7.4 5.4 5.4 0 0 0-1.6 1l-.6-1.2a7.5 7.5 0 0 1 2-1.2 5.8 5.8 0 0 1 2.1-.4 4.3 4.3 0 0 1 2.7.7 2.5 2.5 0 0 1 1 2.1q0 1.5-2.1 3.8l-3.5 3.5zM26.3 415.7a.9.9 0 0 1 .3.7 1 1 0 0 1-.3.6.8.8 0 0 1-.6.3.8.8 0 0 1-.6-.3 1 1 0 0 1-.3-.6.9.9 0 0 1 .3-.7.8.8 0 0 1 .6-.3.8.8 0 0 1 .6.3zM41 406.7a3.6 3.6 0 0 1 1.3 2.8 3.8 3.8 0 0 1-1.2 3 4.8 4.8 0 0 1-3.3 1.1h-2.9v3.6h-1.6v-11.5h4.5a4.9 4.9 0 0 1 3.3 1zm-1 4.8a2.4 2.4 0 0 0 .8-2 2.3 2.3 0 0 0-.8-1.8 3.6 3.6 0 0 0-2.3-.6H35v5h2.8a3.5 3.5 0 0 0 2.3-.6zM47 409a3.6 3.6 0 0 1 1.9-.6v1.5a2.9 2.9 0 0 0-2.2.7 3 3 0 0 0-1 2v4.6h-1.5v-8.7h1.5v1.9a3.1 3.1 0 0 1 1.3-1.5zM56.4 409a4 4 0 0 1 1.6 1.5 4.8 4.8 0 0 1 0 4.6 4 4 0 0 1-1.6 1.6 5 5 0 0 1-4.6 0 4 4 0 0 1-1.6-1.6 4.8 4.8 0 0 1 0-4.6 4 4 0 0 1 1.6-1.5 5 5 0 0 1 4.6 0zm-3.8 1.2a2.7 2.7 0 0 0-1 1 3.3 3.3 0 0 0-.4 1.6 3.4 3.4 0 0 0 .4 1.6 2.6 2.6 0 0 0 1 1.1 3 3 0 0 0 1.5.4 2.9 2.9 0 0 0 1.5-.4 2.7 2.7 0 0 0 1-1 3.5 3.5 0 0 0 .4-1.7 3.5 3.5 0 0 0-.4-1.6 2.7 2.7 0 0 0-1-1 2.9 2.9 0 0 0-1.5-.4 3 3 0 0 0-1.5.3zM66.6 409a4 4 0 0 1 1.6 1.6 4.8 4.8 0 0 1 0 4.5 4 4 0 0 1-1.6 1.6 4.6 4.6 0 0 1-2.3.5 4.7 4.7 0 0 1-2.3-.5 4 4 0 0 1-1.6-1.6 4.8 4.8 0 0 1 0-4.6A4 4 0 0 1 62 409a4.7 4.7 0 0 1 2.3-.6 4.6 4.6 0 0 1 2.3.6zm-3.8 1.2a2.8 2.8 0 0 0-1 1 3.5 3.5 0 0 0-.4 1.6 3.5 3.5 0 0 0 .4 1.6 2.7 2.7 0 0 0 1 1.1 3 3 0 0 0 1.5.4 2.9 2.9 0 0 0 1.5-.4 2.7 2.7 0 0 0 1-1 3.5 3.5 0 0 0 .4-1.7 3.5 3.5 0 0 0-.4-1.6 2.8 2.8 0 0 0-1-1 2.9 2.9 0 0 0-1.5-.4 3 3 0 0 0-1.5.3zM73 406.6a1.4 1.4 0 0 0-.4 1v1.1H75v1.2h-2.4v7.2h-1.5V410H70v-1.2h1.1v-.9a3.1 3.1 0 0 1 .4-1.6 2.7 2.7 0 0 1 1-1 3 3 0 0 1 1.5-.4 3.4 3.4 0 0 1 1.5.4l-.4 1.3a2.8 2.8 0 0 0-1-.3 1.4 1.4 0 0 0-1.1.4zM86.7 409a4 4 0 0 1 1.5 1.6 4.8 4.8 0 0 1 0 4.5 4 4 0 0 1-1.6 1.6 5 5 0 0 1-4.6 0 4 4 0 0 1-1.6-1.6 4.8 4.8 0 0 1 0-4.6A4 4 0 0 1 82 409a5 5 0 0 1 4.6 0zm-3.9 1.2a2.7 2.7 0 0 0-1 1 3.3 3.3 0 0 0-.3 1.6 3.4 3.4 0 0 0 .3 1.6 2.6 2.6 0 0 0 1 1.1 3 3 0 0 0 1.5.4 2.9 2.9 0 0 0 1.5-.4 2.7 2.7 0 0 0 1-1 3.5 3.5 0 0 0 .4-1.7 3.5 3.5 0 0 0-.4-1.6 2.8 2.8 0 0 0-1-1 2.9 2.9 0 0 0-1.5-.4 3 3 0 0 0-1.5.3zM93 406.6a1.4 1.4 0 0 0-.3 1v1.1H95v1.2h-2.4v7.2h-1.5V410H90v-1.2h1.1v-.9a3 3 0 0 1 .4-1.6 2.6 2.6 0 0 1 1-1 3 3 0 0 1 1.5-.4 3.4 3.4 0 0 1 1.5.4l-.4 1.3a2.8 2.8 0 0 0-1.1-.3 1.4 1.4 0 0 0-1 .4zM101 405.7h1.5v11.5h-1.6zM113.7 405v12.2h-1.5v-1.7a3.4 3.4 0 0 1-1.3 1.3 3.9 3.9 0 0 1-2 .5 4.1 4.1 0 0 1-2.1-.6 3.9 3.9 0 0 1-1.5-1.6 5 5 0 0 1-.5-2.3 4.8 4.8 0 0 1 .5-2.3 3.9 3.9 0 0 1 1.5-1.5 4.2 4.2 0 0 1 2.1-.6 4 4 0 0 1 2 .5 3.2 3.2 0 0 1 1.3 1.3V405zm-3 10.6a2.8 2.8 0 0 0 1-1.1 3.6 3.6 0 0 0 0-3.2 2.7 2.7 0 0 0-1-1.2 3.1 3.1 0 0 0-3 0 2.9 2.9 0 0 0-1 1.2 3.6 3.6 0 0 0 0 3.1 2.9 2.9 0 0 0 1 1.2 3.1 3.1 0 0 0 3 0zM123.3 409.6a4.9 4.9 0 0 1 1 3.3v.5h-6.8a3 3 0 0 0 1 1.9 2.9 2.9 0 0 0 2 .7 3.8 3.8 0 0 0 1.4-.3 3.6 3.6 0 0 0 1.2-.8l.8.9a4.3 4.3 0 0 1-1.5 1 5 5 0 0 1-2 .4 4.6 4.6 0 0 1-2.3-.5 3.8 3.8 0 0 1-1.6-1.6 5 5 0 0 1 0-4.6 4 4 0 0 1 1.5-1.5 4.5 4.5 0 0 1 2.3-.6 3.8 3.8 0 0 1 3 1.2zm-.3 2.6a2.6 2.6 0 0 0-.8-1.8 2.7 2.7 0 0 0-1.9-.7 2.7 2.7 0 0 0-2 .7 2.9 2.9 0 0 0-.8 1.8zM133.7 409.3a3.4 3.4 0 0 1 .9 2.5v5.4H133v-5a2.1 2.1 0 0 0-2.3-2.4 2.6 2.6 0 0 0-2 .8 3 3 0 0 0-.7 1.9v4.6h-1.6v-8.7h1.6v1.9a3.4 3.4 0 0 1 3.3-2 3.2 3.2 0 0 1 2.4 1zM142 416.6a3.7 3.7 0 0 1-2 .6 2.3 2.3 0 0 1-1.7-.6 2.5 2.5 0 0 1-.7-1.9V410h-1.2v-1.1h1.2v-2.4h1.6v2.4h2.6v1.1h-2.6v4.6a1.6 1.6 0 0 0 .2 1 1 1 0 0 0 .8.3 2.8 2.8 0 0 0 1.4-.4zM145.2 405.3a1 1 0 0 1 .3.7 1 1 0 0 1-.3.7 1 1 0 0 1-1.3 0 1 1 0 0 1-.3-.7 1 1 0 0 1 .3-.7 1 1 0 0 1 1.3 0zm-1.4 3.2h1.5v8.7h-1.5zM153 416.6a3.7 3.7 0 0 1-2 .6 2.3 2.3 0 0 1-1.7-.6 2.5 2.5 0 0 1-.6-1.9V410h-1.2v-1.1h1.2v-2.4h1.5v2.4h2.7v1.1h-2.7v4.6a1.6 1.6 0 0 0 .3 1 1 1 0 0 0 .8.3 2.8 2.8 0 0 0 1.3-.4zM156.8 420a2.6 2.6 0 0 1-1.6.4 2.8 2.8 0 0 1-2-.7l.7-1.2a2 2 0 0 0 1.2.5 1.6 1.6 0 0 0 1.5-1.2l.3-.7-3.6-8.6h1.6l2.8 7 2.6-7h1.5l-4 9.9a3.4 3.4 0 0 1-1 1.5zM549 53a4 4 0 0 0 3 1.1 3.8 3.8 0 0 0 2.8-1.1 4.3 4.3 0 0 0 1-3.1V39h4.2V50a8.5 8.5 0 0 1-1 4.2 6.6 6.6 0 0 1-2.8 2.7 9.1 9.1 0 0 1-4.3 1 9.3 9.3 0 0 1-4.4-1 6.7 6.7 0 0 1-2.8-2.7 8.3 8.3 0 0 1-1-4.2V39h4.1V50A4.2 4.2 0 0 0 549 53zM572.8 42.9a9 9 0 0 0-2.7-.5 3.1 3.1 0 0 0-1.7.4 1.3 1.3 0 0 0-.7 1.1 1.6 1.6 0 0 0 1 1.5 14 14 0 0 0 2.7 1 24.1 24.1 0 0 1 3.1 1.1 5.4 5.4 0 0 1 2.1 1.7 4.5 4.5 0 0 1 .9 2.9 5 5 0 0 1-1 3A5.7 5.7 0 0 1 574 57a9.7 9.7 0 0 1-3.7.7 12.7 12.7 0 0 1-4.4-.8 11.9 11.9 0 0 1-3.7-2.2l1.7-3.3a11 11 0 0 0 3.2 2 8.5 8.5 0 0 0 3.3.7 3.7 3.7 0 0 0 2-.5 1.6 1.6 0 0 0 .7-1.3 1.5 1.5 0 0 0-.5-1.2 3.6 3.6 0 0 0-1.2-.7l-2-.7a23.9 23.9 0 0 1-3.2-1 5.5 5.5 0 0 1-2-1.6 4.4 4.4 0 0 1-.8-2.8 4.9 4.9 0 0 1 .9-2.9 5.6 5.6 0 0 1 2.5-1.9 9.4 9.4 0 0 1 3.7-.7 12.7 12.7 0 0 1 3.7.6 12.3 12.3 0 0 1 3.2 1.4l-1.6 3.5a13.6 13.6 0 0 0-3-1.4zM580.4 39.1h13.9v3.5h-9.8v4h8.8V50h-8.8v4h10v3.4h-14.1zM610.6 40.3a8.5 8.5 0 0 1 3.4 3.2 9.3 9.3 0 0 1 1.2 4.8A9 9 0 0 1 614 53a8.7 8.7 0 0 1-3.5 3.2 10.8 10.8 0 0 1-5 1.2h-7.6V39.1h7.7a10.6 10.6 0 0 1 5 1.2zm-2.2 13a5 5 0 0 0 2-2 6.2 6.2 0 0 0 .6-3 6 6 0 0 0-.7-3 5.2 5.2 0 0 0-2-2 5.5 5.5 0 0 0-2.8-.7H602V54h3.7a5.3 5.3 0 0 0 2.7-.8zM624 39.1h13.2v3.5h-9V47h8.2v3.4h-8.3v7H624zM653 40a9.3 9.3 0 0 1 3.6 3.5 9.6 9.6 0 0 1 0 9.6 9.4 9.4 0 0 1-3.5 3.4 10.7 10.7 0 0 1-10 0 9.3 9.3 0 0 1-3.6-3.4 9.6 9.6 0 0 1 0-9.6 9.2 9.2 0 0 1 3.6-3.4 10.8 10.8 0 0 1 10 0zm-7.7 3.2a5.6 5.6 0 0 0-2 2.1 5.9 5.9 0 0 0-.8 3 5.7 5.7 0 0 0 .8 3 5.9 5.9 0 0 0 2 2 5.3 5.3 0 0 0 2.8.9 5.3 5.3 0 0 0 2.8-.8 5.5 5.5 0 0 0 2-2.1 6.2 6.2 0 0 0 0-6 5.5 5.5 0 0 0-2-2 5.3 5.3 0 0 0-2.8-.8 5.5 5.5 0 0 0-2.8.7zM671.9 57.4l-2.9-5.2h-4.2v5.2h-4.1V39.1h8a8.3 8.3 0 0 1 5.4 1.7 5.8 5.8 0 0 1 2 4.7 7 7 0 0 1-.8 3.6 5.6 5.6 0 0 1-2.6 2.3l4 6zm-7.1-8.6h3.8a4 4 0 0 0 2.6-.8 3 3 0 0 0 1-2.4 2.8 2.8 0 0 0-1-2.3 4 4 0 0 0-2.6-.7h-3.8z"/><path class="cls-3" d="M566.5 112.5h84.7v48.2h-84.7z"/><path class="cls-2" d="M608.6 93l-48 20.3h96l-48-20.3z"/><path class="cls-1" d="M562 114h8.1v40.5H562z"/><path class="cls-2" d="M569.8 112.9H562a2.6 2.6 0 1 0 2.5 2.6 2.5 2.5 0 0 0 0-.8h2.7a2.5 2.5 0 0 0-.1.8 2.6 2.6 0 1 0 2.6-2.6zM566.1 153.4h-5.2v2.6h-1.4v2.6h6.6"/><path class="cls-3" d="M551 158.6h116v16.6H551z"/><path class="cls-2" d="M566.1 153.4h5.1v2.6h1.5v2.6h-6.6"/><path class="cls-1" d="M586.7 114h8.1v40.5h-8.1z"/><path class="cls-2" d="M594.5 112.9h-7.8a2.6 2.6 0 1 0 2.6 2.6 2.5 2.5 0 0 0-.1-.8h2.8a2.5 2.5 0 0 0-.1.8 2.6 2.6 0 1 0 2.6-2.6zM590.8 153.4h-5.2v2.6h-1.5v2.6h6.7M590.8 153.4h5.1v2.6h1.5v2.6h-6.6"/><path class="cls-1" d="M623.2 114h8.1v40.5h-8.1z"/><path class="cls-2" d="M631 112.9h-7.8a2.6 2.6 0 1 0 2.6 2.6 2.5 2.5 0 0 0-.1-.8h2.7a2.5 2.5 0 0 0 0 .8 2.6 2.6 0 1 0 2.5-2.6zM627.2 153.4h-5.1v2.6h-1.5v2.6h6.6M627.2 153.4h5.2v2.6h1.5v2.6h-6.7"/><path class="cls-1" d="M647.9 114h8.1v40.5h-8.1z"/><path class="cls-2" d="M655.6 112.9h-7.7a2.6 2.6 0 1 0 2.5 2.6 2.5 2.5 0 0 0 0-.8h2.7a2.5 2.5 0 0 0 0 .8 2.6 2.6 0 1 0 2.5-2.6zM651.9 153.4h-5.1v2.6h-1.5v2.6h6.6M651.9 153.4h5.2v2.6h1.4v2.6H652M584.9 158.6h47.9v5.5h-47.9z"/><path class="cls-1" d="M578.6 164.1H639v5.5h-60.4z"/><path class="cls-2" d="M573.1 169.6h71.4v5.5h-71.4zM607.5 132.6a17.3 17.3 0 0 0 3.6 1.4 31.9 31.9 0 0 1 4 1.4 7 7 0 0 1 2.6 2 5.8 5.8 0 0 1 1 3.7 6.2 6.2 0 0 1-2 4.8 9 9 0 0 1-5.2 2.2v6.4h-3.8v-6.4a16.4 16.4 0 0 1-4.5-1.2 15.2 15.2 0 0 1-3.8-2.4l2-4.3a14.5 14.5 0 0 0 4.1 2.6 11 11 0 0 0 4.2 1 4.6 4.6 0 0 0 2.5-.6 2 2 0 0 0 1-1.7 2 2 0 0 0-.7-1.5 4.8 4.8 0 0 0-1.5-1c-.6-.3-1.5-.5-2.6-.8a31.2 31.2 0 0 1-4-1.4 7 7 0 0 1-2.5-2 5.6 5.6 0 0 1-1.1-3.6 6 6 0 0 1 1.9-4.5 9 9 0 0 1 5-2.3v-6h3.8v6a17.8 17.8 0 0 1 3.9.8 14.1 14.1 0 0 1 3.2 1.6l-2 4.3a17.7 17.7 0 0 0-3.8-1.7 11.6 11.6 0 0 0-3.4-.7 4 4 0 0 0-2.2.5 1.6 1.6 0 0 0-.8 1.5 2 2 0 0 0 1.1 2zM613.9 266.4a2363.2 2363.2 0 0 1-15 13.6 1.3 1.3 0 0 0-.6 1.5l1.9 10.2c.4 2.5.2 3-2.2 4.6l-7.5-11.3-6.6 4.2-.5-.5 4-6.6-11-7.4a3.8 3.8 0 0 1 4.7-2.1c3.2.7 6.5 1.2 9.7 1.8a1.9 1.9 0 0 0 2-.7c3.5-4 7-7.9 10.7-11.8l2.6-2.9c-1.6-1.7-2.7-3.8-4.8-5.1L580 240.5c1.2-2.2 2.1-2.6 4.4-2 3.7 1 7.3 2 11 3.2a1.3 1.3 0 0 0 1.6-.6 24.8 24.8 0 0 1 2-2.2 1.8 1.8 0 0 1 2.7-.2l.7.5c2.2 1.9 2.2 2 .4 4.5l4.4 1.2c.2.1.6-.3.8-.5l2.3-2.6a1.8 1.8 0 0 1 2.9-.2c2.9 2.2 2.9 2.2.9 5 1.8 1.4 3 1.3 4.5-.2 3-2.9 6-5.9 9.1-8.7 2.3-2 4.9-3.7 8-4 3-.2 3.6 0 3.2 3.5a14 14 0 0 1-4 7.8l-8.8 9.2c-1 1-1.4 1.7-.8 3a9.8 9.8 0 0 1 .5 1.4 1.4 1.4 0 0 0 .3 0c2.6-2 4-1.6 5.4 1.5a2.3 2.3 0 0 1-.4 2 13 13 0 0 1-2.6 2.2 1.5 1.5 0 0 0-.6 1.8l1 3.6h.3c2.1-1.5 4.7-.5 5.2 2.2a2.5 2.5 0 0 1-.7 1.8 11.8 11.8 0 0 1-2.1 1.9 1.4 1.4 0 0 0-.6 1.7l3 10.6c.7 2.3.9 2.9-1.8 4.8l-.7-1c-4.3-6.8-8.5-13.7-12.9-20.3-1.2-2-3.1-3.4-4.8-5z"/><path class="cls-3" d="M590 390l.6-3.9-3-5-2 1.3 2.9 2.8 1 2.3-1.2-.1 1.8 2.6z"/><path class="cls-1" d="M610.8 354.5a1.4 1.4 0 0 0 0-1.3l-.6-1.2a4.8 4.8 0 0 1 .6-4 5.5 5.5 0 0 1 1.2-1.6 6.6 6.6 0 0 1 3.5-1.2 9.6 9.6 0 0 1 3.2 0c1 .1 2 .6 2.9 0 .1 0 .3-.2.4 0a.3.3 0 0 1 .2 0 4.1 4.1 0 0 1-.5 2.7 8.3 8.3 0 0 0-.4 3.5 2.3 2.3 0 0 1-.1 1.2 3.4 3.4 0 0 0-.3.7c-.1.4.2.7.5 1s.5.7.3 1-.9.2-1.4.4a1.5 1.5 0 0 0-.8 1.5 1.2 1.2 0 0 1 0 .5c-.2.3-.5.3-.8.5s-.4.5-.1.7l9.2 9.6 11-3.7 1-3.3 3-1.5-.4 1 1.8 2.4-1.3 1.4-1.8-2.1 1 3-2.6 1.8.5 2.6s-10.2 3.7-12.2 3.6-9-3.5-9-3.5l-3.1 15.3 17.9 7L643 412l9.3.6-11.4 7.2-11.2-20.8-16-3.8-19 18.9-20.4-14.7-8.2 4 8-13.2 20.2 14 7.1-18.7-1.2-18.8-7 1.9-1.7 17-1.5 2.5-.1-2.2-1.2 1.3-2.8-2.7 2-3v-1l-1.9-1 2.2-14.5 12-6.4s.6-3.9 3.6-3.8a27.3 27.3 0 0 1 5.4.8z"/><path class="cls-3" d="M577.6 404.2l2.3 1.4 13.8-9.2-9.8-18.2-1.6-.7-4.7 26.7z"/><path class="cls-2" d="M582.3 377.5l9.4 17.3-14.1 9.4-8.9-17.4 13.6-9.3zM616.2 359.7s-.9 2.4.2 3l1.2.5.1-3z"/><path class="cls-2" d="M617.3 361.7s5-.2 2.5 3.3a96.6 96.6 0 0 0-5 8.4l3 7-1 2.4-2.2-2.3s-1.6-5.8-.6-8.6a81.2 81.2 0 0 1 3.8-7.7l-.9-1.3"/><path class="cls-4" d="M312 379.3v9.8h-39V381l19.2-19.8a28 28 0 0 0 4.2-5.1 8.6 8.6 0 0 0 1.5-4.3 4.5 4.5 0 0 0-2-3.9 8.8 8.8 0 0 0-5.2-1.3 17.4 17.4 0 0 0-7 1.7 30.7 30.7 0 0 0-7.4 4.7l-4.6-8.7q10.2-7.7 20.7-7.7a23.8 23.8 0 0 1 9.3 1.7 14.4 14.4 0 0 1 6.2 4.7 11.5 11.5 0 0 1 2.2 7 15.6 15.6 0 0 1-2.6 8.1 54.6 54.6 0 0 1-7.3 9.2l-12 12zM357 367.9v9.4h-7.2v11.8H339v-11.8h-24.2v-8.2l15.9-32h11.1L327 367.9H339v-11.5h10.8v11.5zM246 357.3a28.1 28.1 0 0 0 5.7 2.1 49.5 49.5 0 0 1 6.3 2.3 11.2 11.2 0 0 1 4.3 3.3 9.2 9.2 0 0 1 1.7 6 9.9 9.9 0 0 1-3.2 7.5 14.6 14.6 0 0 1-8.3 3.6v7.7h-6.1V382a26.7 26.7 0 0 1-7.3-2 23.4 23.4 0 0 1-6-3.8l3.3-6.8a22.8 22.8 0 0 0 6.5 4 17.4 17.4 0 0 0 6.7 1.6 7.4 7.4 0 0 0 4-1 3.4 3.4 0 0 0 .5-5.2 7.8 7.8 0 0 0-2.5-1.5l-4.2-1.3a46 46 0 0 1-6.2-2.1 11 11 0 0 1-4.2-3.3 9 9 0 0 1-1.7-5.7 9.6 9.6 0 0 1 3-7.3 14.3 14.3 0 0 1 8-3.6v-7.2h6.2v7.1a29.1 29.1 0 0 1 6 1.4 22.2 22.2 0 0 1 5.3 2.6l-3.2 7a28 28 0 0 0-6.1-2.8 18.4 18.4 0 0 0-5.5-1 6.5 6.5 0 0 0-3.5.8 2.6 2.6 0 0 0-1.3 2.3 3.3 3.3 0 0 0 1.9 3zM231.7 411.9v-1.5a4.2 4.2 0 0 1-3.6 1.5 4.2 4.2 0 0 1-1.9-.4 3 3 0 0 1-1.7-2.7 2.7 2.7 0 0 1 1-2.2 4.5 4.5 0 0 1 2.9-.9h3.3v-.5a2.1 2.1 0 0 0-.7-1.6 2.9 2.9 0 0 0-2-.6 5.6 5.6 0 0 0-3.2 1l-.8-1.2a9.3 9.3 0 0 1 2.1-1 6.8 6.8 0 0 1 2.3-.3 4.3 4.3 0 0 1 3 1 3.4 3.4 0 0 1 1 2.6v6.8zm-1-2a2.4 2.4 0 0 0 1-1.7v-1h-3a3.6 3.6 0 0 0-1.8.4 1.3 1.3 0 0 0-.6 1.2 1.5 1.5 0 0 0 .6 1.2 2.5 2.5 0 0 0 1.6.5 3.7 3.7 0 0 0 2.1-.7zM245 402.1a4.5 4.5 0 0 1 1.8 1.9 6.2 6.2 0 0 1 0 5.4 4.4 4.4 0 0 1-1.7 1.9 5 5 0 0 1-2.6.6 4.7 4.7 0 0 1-2.3-.5 4 4 0 0 1-1.5-1.6v5.8h-1.9v-14h1.8v2a4 4 0 0 1 1.6-1.6 4.6 4.6 0 0 1 2.3-.5 5 5 0 0 1 2.6.6zm-1 7.8a3.2 3.2 0 0 0 1.1-1.3 4.2 4.2 0 0 0 0-3.8 3.4 3.4 0 0 0-6 0 4.2 4.2 0 0 0 0 3.8 3.5 3.5 0 0 0 4.9 1.3zM258.3 402.1a4.6 4.6 0 0 1 1.8 1.9 6.3 6.3 0 0 1 0 5.4 4.4 4.4 0 0 1-1.8 1.9 5 5 0 0 1-2.6.6 4.7 4.7 0 0 1-2.2-.5 3.8 3.8 0 0 1-1.6-1.6v5.8H250v-14h1.8v2a4 4 0 0 1 1.5-1.6 4.7 4.7 0 0 1 2.3-.5 5 5 0 0 1 2.6.6zm-1.1 7.8a3.4 3.4 0 0 0 1.2-1.3 4 4 0 0 0 .4-2 4 4 0 0 0-.4-1.8 3.4 3.4 0 0 0-1.2-1.3 3.4 3.4 0 0 0-1.8-.5 3.5 3.5 0 0 0-1.8.5 3.3 3.3 0 0 0-1.2 1.3 4.2 4.2 0 0 0 0 3.8 3.3 3.3 0 0 0 1.2 1.3 3.6 3.6 0 0 0 3.6 0zM263.3 397.4h1.8v14.5h-1.8zM270.5 397.7a1.2 1.2 0 0 1 .3.9 1.2 1.2 0 0 1-.3.8 1.1 1.1 0 0 1-.8.3 1 1 0 0 1-.8-.3 1.2 1.2 0 0 1-.4-.8 1.1 1.1 0 0 1 .4-.9 1 1 0 0 1 .8-.3 1.1 1.1 0 0 1 .8.3zm-1.7 3.8h1.8v10.3h-1.8zM278.4 403a3.5 3.5 0 0 0-1.8.5 3.1 3.1 0 0 0-1.2 1.3 4.3 4.3 0 0 0 0 3.8 3.2 3.2 0 0 0 1.2 1.3 3.4 3.4 0 0 0 1.7.4 4.7 4.7 0 0 0 1.8-.3 3.5 3.5 0 0 0 1.4-1l1 1a4.5 4.5 0 0 1-1.8 1.4 6.2 6.2 0 0 1-2.5.5 5.2 5.2 0 0 1-2.6-.7 4.6 4.6 0 0 1-1.9-1.8 5.5 5.5 0 0 1-.6-2.7 5.5 5.5 0 0 1 .6-2.8 4.6 4.6 0 0 1 1.9-1.8 5.3 5.3 0 0 1 2.6-.7 6.7 6.7 0 0 1 2.4.4 4.6 4.6 0 0 1 1.7 1.2l-1 1.2a4.1 4.1 0 0 0-2.9-1.1zM290.9 411.9v-1.5a4.2 4.2 0 0 1-3.6 1.5 4.2 4.2 0 0 1-1.9-.4 3 3 0 0 1-1.3-1.1 3 3 0 0 1-.4-1.6 2.6 2.6 0 0 1 1-2.2 4.5 4.5 0 0 1 2.9-.9h3.2v-.5a2.1 2.1 0 0 0-.6-1.6 2.9 2.9 0 0 0-2-.6 5.6 5.6 0 0 0-3.2 1l-.8-1.2a9.2 9.2 0 0 1 2-1 7 7 0 0 1 2.3-.3 4.3 4.3 0 0 1 3 1 3.4 3.4 0 0 1 1.1 2.6v6.8zm-1-2a2.4 2.4 0 0 0 1-1.7v-1h-3a3.6 3.6 0 0 0-1.9.4 1.3 1.3 0 0 0-.5 1.2 1.5 1.5 0 0 0 .5 1.2 2.6 2.6 0 0 0 1.6.5 3.7 3.7 0 0 0 2.2-.7zM301.5 411.2a4.4 4.4 0 0 1-2.4.7 2.8 2.8 0 0 1-2-.7 2.9 2.9 0 0 1-.8-2.2v-5.7h-1.5v-1.4h1.5V399h1.8v2.8h3.2v1.4H298v5.3a2 2 0 0 0 .3 1.3 1.2 1.2 0 0 0 1 .4 3.3 3.3 0 0 0 1.6-.5zM305.4 397.7a1.1 1.1 0 0 1 .3.9 1.2 1.2 0 0 1-.3.8 1 1 0 0 1-.8.3 1.1 1.1 0 0 1-.8-.3 1.2 1.2 0 0 1-.4-.8 1.2 1.2 0 0 1 .4-.9 1.1 1.1 0 0 1 .8-.3 1 1 0 0 1 .8.3zm-1.7 3.8h1.8v10.3h-1.8zM316 402.1a4.7 4.7 0 0 1 2 1.9 5.7 5.7 0 0 1 0 5.4 4.7 4.7 0 0 1-2 1.8 6 6 0 0 1-5.4 0 4.8 4.8 0 0 1-2-1.8 5.8 5.8 0 0 1 0-5.4 4.8 4.8 0 0 1 2-1.9 6 6 0 0 1 5.5 0zm-4.5 1.4a3.4 3.4 0 0 0-1.2 1.3 4 4 0 0 0-.5 1.9 4.1 4.1 0 0 0 .5 2 3.3 3.3 0 0 0 1.2 1.2 3.6 3.6 0 0 0 1.8.5 3.5 3.5 0 0 0 1.8-.5 3.1 3.1 0 0 0 1.2-1.3 4 4 0 0 0 .5-1.9 4 4 0 0 0-.5-1.9 3.3 3.3 0 0 0-1.2-1.3 3.4 3.4 0 0 0-1.8-.5 3.5 3.5 0 0 0-1.8.5zM329.7 402.5a4 4 0 0 1 1 3v6.3H329V406a2.5 2.5 0 0 0-2.8-2.8 3.1 3.1 0 0 0-2.2 1 3.5 3.5 0 0 0-1 2.2v5.5h-1.8v-10.4h1.8v2.2a4 4 0 0 1 4-2.2 3.8 3.8 0 0 1 2.7 1zM341.8 399.3a1.6 1.6 0 0 0-.5 1.2v1.4h2.8v1.4h-2.8v8.5h-1.8v-8.5H338v-1.4h1.4v-1.1a3.6 3.6 0 0 1 .5-2 3.1 3.1 0 0 1 1.2-1.2 3.6 3.6 0 0 1 1.7-.4 3.9 3.9 0 0 1 1.8.5l-.4 1.5a3.1 3.1 0 0 0-1.4-.3 1.7 1.7 0 0 0-1.1.4zM353.4 402.9a5.8 5.8 0 0 1 1.2 4v.5h-8.2a3.5 3.5 0 0 0 1.2 2.2 3.4 3.4 0 0 0 2.3.8 4.4 4.4 0 0 0 1.7-.3 4 4 0 0 0 1.4-1l1 1a5.2 5.2 0 0 1-1.8 1.3 6.1 6.1 0 0 1-2.4.5 5.5 5.5 0 0 1-2.7-.7 4.6 4.6 0 0 1-1.8-1.8 5.9 5.9 0 0 1 0-5.5 4.8 4.8 0 0 1 1.8-1.8 5.3 5.3 0 0 1 2.7-.7 4.6 4.6 0 0 1 3.6 1.5zm-.4 3.1a3 3 0 0 0-3.2-3 3.3 3.3 0 0 0-2.3.8 3.5 3.5 0 0 0-1 2.2zM364.8 402.9a5.8 5.8 0 0 1 1.3 4 4.6 4.6 0 0 1 0 .5h-8.2a3.5 3.5 0 0 0 1.2 2.2 3.4 3.4 0 0 0 2.3.8 4.4 4.4 0 0 0 1.7-.3 4 4 0 0 0 1.4-1l1 1a5.2 5.2 0 0 1-1.9 1.3 6 6 0 0 1-2.4.5 5.5 5.5 0 0 1-2.6-.7 4.6 4.6 0 0 1-1.9-1.8 6 6 0 0 1 0-5.5 4.8 4.8 0 0 1 1.8-1.8 5.3 5.3 0 0 1 2.7-.7 4.6 4.6 0 0 1 3.6 1.5zm-.4 3a3.1 3.1 0 0 0-.9-2.1 3.2 3.2 0 0 0-2.3-.8 3.2 3.2 0 0 0-2.2.8 3.4 3.4 0 0 0-1.1 2.2z"/><path class="cls-3" d="M145.7 208.7v-6.4c11-5.7 18.6-19.5 18.6-35.8 0-21.2-13.2-38.5-29.5-38.5s-29.5 17.3-29.5 38.5c0 17 8.5 31.5 20.2 36.6l.2 6c-11.4 6.1-28 17.2-28 29.9h77c0-13-17.5-24.3-29-30.3zm-9.6 12zM436.5 67c1.6.1 2.5 1.2 3.1 2.7l3 6.4a6.6 6.6 0 0 1 .6 2.4l.5 19a5.8 5.8 0 0 0 .7 2.6 5 5 0 0 1 .5 3.6l-2.3 11.2a13.4 13.4 0 0 1-1 2.8c-1.4 3-3 6-4.3 9.2a69.8 69.8 0 0 1-7.2 11.9 8.6 8.6 0 0 0-1.5 3.7l-1.3 8a4.7 4.7 0 0 1-1 2 134 134 0 0 1-4.6 5.4c-2 2.1-6.6 1.4-7.2-1.2a39.7 39.7 0 0 1-.8-7.3c0-.9.7-1.8 1.2-2.9l-3-.4a18.3 18.3 0 0 1-6.9-2 39 39 0 0 0-5.5-2.6c-3.7-1.4-6-4.4-9-6.7-2.7-2-4-4.9-5.2-7.7a3.5 3.5 0 0 1-.2-2.1c.7-3 1.7-6 1.8-9.1a2.7 2.7 0 0 1 1.6-2.4 13.7 13.7 0 0 1 2.1-1c2.5-.7 4-2.5 5.4-4.7a65 65 0 0 1 5.5-8.1A69.3 69.3 0 0 1 407 94l1.2-1.1c-.3-.2-.5-.5-.8-.6l-11.1-7.5a4.5 4.5 0 0 1-2-2.5l-1.1-3a1.2 1.2 0 0 0-1.2-1l-3.3-.3a3.2 3.2 0 0 1-2.9-2.6l-1.6-6.3c-.6-2.1-.1-3.4 1.8-4.4l1.1-.6c2-1 2.5-2 2.2-4.2a1.6 1.6 0 0 0-.5-.7 17.8 17.8 0 0 1-1.5-1.6 3.4 3.4 0 0 1-.8-1.9 17.5 17.5 0 0 1 1.1-4.9 58 58 0 0 1 3.2-5.3 4 4 0 0 0 .5-1.8v-4.9a4.2 4.2 0 0 1 1-2.8l5-6.3c1.4-1.7 2.6-2 4.6-1.2 3.2 1.4 6.3 3 9.6 4.3 4.5 1.6 9 3.1 13.6 4.4a58.2 58.2 0 0 1 10 4.1 3.2 3.2 0 0 1 1.8 2.8 22.5 22.5 0 0 1-.5 8.2c-.7 2.4-.2 4.9 0 7.3.1 1.6.4 3 .4 4.6a16.7 16.7 0 0 1-.4 2.8z"/><path class="cls-4" d="M232.5 46.4a10.7 10.7 0 0 0-3.4-.8q-1.3 0-1.3 1a1.2 1.2 0 0 0 .8 1 16.9 16.9 0 0 0 2.6 1 31.4 31.4 0 0 1 3.8 1.2 6.7 6.7 0 0 1 2.6 2 5.5 5.5 0 0 1 1.1 3.6 6.1 6.1 0 0 1-1.2 3.8 7 7 0 0 1-3.2 2.3 12.7 12.7 0 0 1-4.4.7 18.3 18.3 0 0 1-5.7-.9 16 16 0 0 1-4.9-2.5l2.6-5.2a14.2 14.2 0 0 0 4 2.3 11.1 11.1 0 0 0 4 1 2.3 2.3 0 0 0 1.2-.3 1 1 0 0 0 .5-.9 1.3 1.3 0 0 0-.9-1 15.1 15.1 0 0 0-2.6-1 28.3 28.3 0 0 1-3.8-1.1 6.6 6.6 0 0 1-2.5-2 5.2 5.2 0 0 1-1.1-3.4 6.2 6.2 0 0 1 1.1-3.6A7 7 0 0 1 225 41a12.4 12.4 0 0 1 4.7-.8 18 18 0 0 1 4.9.7 16 16 0 0 1 4.3 1.8l-2.6 5.3a23 23 0 0 0-3.8-1.8zM239.1 40.8H258v5.5h-6v15.5h-7V46.3h-6zM272.6 61.8l-1-3h-7.9l-1 3h-7.2l8.9-21h7.1l8.6 21zm-7.1-8h4.4l-2.2-6zM277.5 40.8h19v5.5h-6v15.5h-7V46.3h-6zM298 40.8H316v5.3H305v2.6h9.8v5.2H305v2.6h11.1v5.3h-18zM324.8 40.8h7v21h-7zM350.2 42a9.4 9.4 0 0 1 4 3.8 10.7 10.7 0 0 1 1.4 5.5 10.5 10.5 0 0 1-1.5 5.6 9.6 9.6 0 0 1-4.1 3.6 13.8 13.8 0 0 1-6.2 1.3h-9v-21h9.3a13.3 13.3 0 0 1 6 1.3zm-2.9 13a5.7 5.7 0 0 0 1.2-3.6 5.5 5.5 0 0 0-1.3-3.7 4 4 0 0 0-3.2-1.5h-2.3v10.2h2.6a3.7 3.7 0 0 0 3-1.4z"/></g></g></svg>