<svg xmlns="http://www.w3.org/2000/svg" viewBox="0 0 696 459"><defs><style>.cls-1{fill:#afd3cd}.cls-2{fill:#5c7de4}.cls-3{fill:#222b3e}.cls-4{fill:#fff}.cls-5{fill:#ffae8a}.cls-9{fill:#476cc6}</style></defs><g id="Layer_2" data-name="Layer 2"><g id="Layer_1-2" data-name="Layer 1"><path class="cls-1" d="M0 .2h696V459H0z"/><path class="cls-2" transform="rotate(90 261 372)" d="M174 111h174v522H174z"/><path class="cls-3" d="M348 285l54 87-54 87H87V285h261z"/><path class="cls-2" d="M174 285l54 87-54 87H15V285h159z"/><path class="cls-1" d="M107.6 284h-42l21 25.2 21-25.2z"/><path class="cls-4" d="M314.6 389.9q-7 6.6-20.2 8V411h-9.6v-13a65.4 65.4 0 0 1-16.4-3.2 35.8 35.8 0 0 1-12.3-6.5l5.3-11.8a38.7 38.7 0 0 0 10.5 5.9 46.8 46.8 0 0 0 12.9 3V362a84.2 84.2 0 0 1-13.9-4.4 23.9 23.9 0 0 1-9.3-7q-3.7-4.6-3.7-12.2a21.6 21.6 0 0 1 6.9-16.2q6.9-6.6 20-8V301h9.6v13a55.5 55.5 0 0 1 12.8 2.2 42 42 0 0 1 11 5l-4.8 11.8a48.7 48.7 0 0 0-19-6.3v23.6a90 90 0 0 1 14 4.3 24 24 0 0 1 9.3 7q3.8 4.7 3.8 12.3a21.4 21.4 0 0 1-7 16zm-38.6-46a26 26 0 0 0 8.8 4V327c-4 .6-7 1.9-9 3.8a9.2 9.2 0 0 0-2.9 6.8 7.4 7.4 0 0 0 3.1 6.2zm27.6 37.6a8.6 8.6 0 0 0 3-6.6 7.6 7.6 0 0 0-3.2-6.4 27.3 27.3 0 0 0-9-4v20.7q6.2-1 9.2-3.7z"/><path class="cls-2" d="M455.3 25H66.8v226h388.5V25z"/><path class="cls-4" d="M409 77H113v132h296V77zM242 428l-5.2 11.5h-1.2l-5-11.5h1.3l4.4 10 4.4-10zM248.3 431.6a3.3 3.3 0 0 1 .9 2.5v5.4h-1.1V438a2.7 2.7 0 0 1-1.2 1 4 4 0 0 1-1.8.4 3.5 3.5 0 0 1-2.3-.6 2.4 2.4 0 0 1 0-3.6 4 4 0 0 1 2.5-.7h2.7v-.5a2.2 2.2 0 0 0-.6-1.7 2.5 2.5 0 0 0-1.9-.6 4.7 4.7 0 0 0-1.5.2 4 4 0 0 0-1.3.8l-.5-1a4.7 4.7 0 0 1 1.6-.8 6.2 6.2 0 0 1 1.9-.3 3.7 3.7 0 0 1 2.6.9zm-1.3 6.6a2.7 2.7 0 0 0 1-1.3v-1.4h-2.7c-1.5 0-2.2.5-2.2 1.5a1.4 1.4 0 0 0 .5 1.2 2.6 2.6 0 0 0 1.7.4 3.1 3.1 0 0 0 1.7-.4zM254.7 431.2a4 4 0 0 1 2-.5v1.2h-.3a2.8 2.8 0 0 0-2.1.8 3.4 3.4 0 0 0-.8 2.4v4.4h-1.1v-8.7h1v1.7a2.8 2.8 0 0 1 1.3-1.3zM258.8 428.7a.9.9 0 0 1-.2-.6.8.8 0 0 1 .2-.6.9.9 0 0 1 1.2 0 .8.8 0 0 1 .3.6.8.8 0 0 1-.9.8.8.8 0 0 1-.6-.2zm0 2.1h1.2v8.7h-1.2zM270.8 435.5h-7.3a3.1 3.1 0 0 0 1 2.2 3.5 3.5 0 0 0 2.4.8 3.8 3.8 0 0 0 1.5-.3 3.1 3.1 0 0 0 1.2-.8l.6.7a3.6 3.6 0 0 1-1.4 1 4.8 4.8 0 0 1-2 .4 4.8 4.8 0 0 1-2.3-.5 4 4 0 0 1-1.6-1.6 4.5 4.5 0 0 1-.6-2.3 4.7 4.7 0 0 1 .6-2.2 4.1 4.1 0 0 1 1.5-1.6 4.5 4.5 0 0 1 4.3 0 4 4 0 0 1 1.5 1.6 4.7 4.7 0 0 1 .6 2.2zm-6.3-3a3.2 3.2 0 0 0-1 2.1h6.1a3.1 3.1 0 0 0-1-2 3.2 3.2 0 0 0-4.2 0zM273.5 439.2a4.4 4.4 0 0 1-1.5-.7l.5-1a4.2 4.2 0 0 0 1.4.8 5.5 5.5 0 0 0 1.7.2 3.2 3.2 0 0 0 1.7-.4 1.2 1.2 0 0 0 .6-1 1 1 0 0 0-.3-.7 2 2 0 0 0-.8-.4 11.8 11.8 0 0 0-1.3-.3 13.8 13.8 0 0 1-1.7-.4 2.5 2.5 0 0 1-1-.7 2 2 0 0 1-.5-1.3 2.1 2.1 0 0 1 .9-1.8 4 4 0 0 1 2.5-.7 6.5 6.5 0 0 1 1.7.2 4.6 4.6 0 0 1 1.4.6l-.6 1a4.3 4.3 0 0 0-2.5-.8 3 3 0 0 0-1.7.4 1.2 1.2 0 0 0-.6 1 1 1 0 0 0 .4.8 1.9 1.9 0 0 0 .8.4l1.3.3a15.5 15.5 0 0 1 1.6.4 2.5 2.5 0 0 1 1.1.7 1.9 1.9 0 0 1 .4 1.3 2.1 2.1 0 0 1-.9 1.8 4.5 4.5 0 0 1-2.6.6 6.7 6.7 0 0 1-2-.3zM292.1 431.3a4 4 0 0 1 1.6 1.6 5 5 0 0 1 0 4.5 4 4 0 0 1-1.6 1.6 4.4 4.4 0 0 1-2.2.5 4 4 0 0 1-1.9-.4 3.5 3.5 0 0 1-1.4-1.3v1.7h-1.1v-12.2h1.2v5.2a3.5 3.5 0 0 1 1.4-1.3 4 4 0 0 1 1.8-.4 4.5 4.5 0 0 1 2.2.5zm-.6 6.8a3 3 0 0 0 1.2-1.2 3.9 3.9 0 0 0 0-3.5 3 3 0 0 0-1.2-1.2 3.4 3.4 0 0 0-3.3 0 3 3 0 0 0-1.1 1.2 3.9 3.9 0 0 0 0 3.5 3 3 0 0 0 1.1 1.2 3.4 3.4 0 0 0 3.3 0zM303.6 430.8l-4.3 9.7a4.2 4.2 0 0 1-1.2 1.7 2.7 2.7 0 0 1-1.7.5 3.4 3.4 0 0 1-1.1-.2 2.5 2.5 0 0 1-1-.6l.6-.8a2.2 2.2 0 0 0 1.6.6 1.6 1.6 0 0 0 1-.3 3 3 0 0 0 .7-1.1l.4-.9-3.8-8.6h1.2l3.3 7.4 3.2-7.4zM309.9 439.2a4.5 4.5 0 0 1-1.5-.7l.5-1a4.3 4.3 0 0 0 1.4.8 5.5 5.5 0 0 0 1.7.2 3.2 3.2 0 0 0 1.7-.4 1.2 1.2 0 0 0 .6-1 1 1 0 0 0-.3-.7 2 2 0 0 0-.8-.4 12.7 12.7 0 0 0-1.3-.3 13.8 13.8 0 0 1-1.7-.4 2.5 2.5 0 0 1-1-.7 2 2 0 0 1-.5-1.3 2.1 2.1 0 0 1 .9-1.8 4 4 0 0 1 2.5-.7 6.5 6.5 0 0 1 1.7.2 4.4 4.4 0 0 1 1.4.6l-.5 1a4.3 4.3 0 0 0-2.6-.8 3 3 0 0 0-1.7.4 1.2 1.2 0 0 0-.5 1 1 1 0 0 0 .3.8 2 2 0 0 0 .8.4l1.3.3a15 15 0 0 1 1.7.4 2.5 2.5 0 0 1 1 .7 1.9 1.9 0 0 1 .5 1.3 2.1 2.1 0 0 1-1 1.8 4.5 4.5 0 0 1-2.6.6 6.7 6.7 0 0 1-2-.3zM322.2 439a2.1 2.1 0 0 1-.8.4 3.1 3.1 0 0 1-1 .1 2.5 2.5 0 0 1-2-.6 2.5 2.5 0 0 1-.6-1.9v-5.2h-1.5v-1h1.5V429h1.2v2h2.6v1H319v5.1a1.7 1.7 0 0 0 .4 1.2 1.5 1.5 0 0 0 1 .4 2.1 2.1 0 0 0 .8-.1 1.5 1.5 0 0 0 .6-.4zM329.9 431.6a3.3 3.3 0 0 1 .9 2.5v5.4h-1.1V438a2.6 2.6 0 0 1-1.2 1 4.1 4.1 0 0 1-1.8.4 3.6 3.6 0 0 1-2.3-.6 2.4 2.4 0 0 1 0-3.6 4 4 0 0 1 2.5-.7h2.7v-.5a2.2 2.2 0 0 0-.6-1.7 2.6 2.6 0 0 0-1.8-.6 4.6 4.6 0 0 0-1.6.2 4 4 0 0 0-1.3.8l-.5-.9a4.6 4.6 0 0 1 1.6-.8 6.1 6.1 0 0 1 1.9-.4 3.7 3.7 0 0 1 2.6.9zm-1.3 6.6a2.7 2.7 0 0 0 1-1.3v-1.4H327c-1.4 0-2.2.5-2.2 1.5a1.4 1.4 0 0 0 .6 1.2 2.6 2.6 0 0 0 1.6.4 3 3 0 0 0 1.7-.4zM338.5 439a2.1 2.1 0 0 1-.8.4 3.1 3.1 0 0 1-1 .1 2.3 2.3 0 0 1-2.5-2.5v-5.2h-1.6v-1h1.6V429h1.1v2h2.7v1h-2.6v5.1a1.6 1.6 0 0 0 .4 1.2 1.5 1.5 0 0 0 1 .4 2 2 0 0 0 .8-.1 1.6 1.6 0 0 0 .5-.4zM347.8 435.5h-7.2a3.1 3.1 0 0 0 1 2.2 3.5 3.5 0 0 0 2.4.8 3.8 3.8 0 0 0 1.5-.3 3.1 3.1 0 0 0 1.1-.8l.7.7a3.6 3.6 0 0 1-1.4 1 4.8 4.8 0 0 1-2 .4 4.8 4.8 0 0 1-2.3-.5 4 4 0 0 1-1.6-1.6 4.5 4.5 0 0 1-.6-2.3 4.7 4.7 0 0 1 .6-2.2 4.1 4.1 0 0 1 1.5-1.6 4.3 4.3 0 0 1 2.1-.6 4.2 4.2 0 0 1 2.2.6 4 4 0 0 1 1.5 1.6 4.7 4.7 0 0 1 .5 2.2zm-6.2-3a3.2 3.2 0 0 0-1 2.1h6.1a3.1 3.1 0 0 0-1-2 3.2 3.2 0 0 0-4.2 0zM124.8 41.6a6.5 6.5 0 0 1 3 1.9 4.2 4.2 0 0 1 1 2.8 4.4 4.4 0 0 1-1 2.8 5 5 0 0 1-2.7 1.7 5.2 5.2 0 0 1 3 1.9 5.4 5.4 0 0 1 1.2 3.4 5 5 0 0 1-1 3.1 6.6 6.6 0 0 1-3 2 12.6 12.6 0 0 1-4.5.8h-11V41h10.6a13.4 13.4 0 0 1 4.4.6zm-3.6 7a1.5 1.5 0 0 0 .4-1 1.4 1.4 0 0 0-.4-1.1 1.7 1.7 0 0 0-1.2-.4h-3.3v3h3.3a1.6 1.6 0 0 0 1.2-.5zm.4 7.8a1.5 1.5 0 0 0 .5-1.2 1.3 1.3 0 0 0-.5-1.1 2.6 2.6 0 0 0-1.6-.4h-3.3v3.2h3.3a2.3 2.3 0 0 0 1.6-.5zM131.5 41h7v21h-7zM153.6 62l-2.5-5.5h-2.6V62h-7V41h10.1q4.3 0 6.6 2a6.9 6.9 0 0 1 2.4 5.6 8.7 8.7 0 0 1-.9 4 6.5 6.5 0 0 1-2.4 2.7l4.1 6.7zm-5.1-10.7h3.2a2.2 2.2 0 0 0 1.7-.7 2.7 2.7 0 0 0 .6-1.9 2.6 2.6 0 0 0-.6-1.8 2.3 2.3 0 0 0-1.7-.6h-3.2zM162 41h18.9v5.5h-6V62h-7V46.5h-6zM182.5 41h7v8.2h6.5V41h7v21h-7v-7.6h-6.5V62h-7zM225 47.1a4.9 4.9 0 0 0-2.5-.8 4 4 0 0 0-2.3.7 4.3 4.3 0 0 0-1.5 1.7 5.8 5.8 0 0 0-.6 2.6 6 6 0 0 0 .6 2.6 4.4 4.4 0 0 0 1.5 1.8 4 4 0 0 0 2.3.7 5.3 5.3 0 0 0 2.4-.7 8.3 8.3 0 0 0 2.3-1.8l4 4.3a13.2 13.2 0 0 1-4.2 3.1 11.7 11.7 0 0 1-5 1.2 11.4 11.4 0 0 1-5.6-1.5 10.2 10.2 0 0 1-4-4 11.4 11.4 0 0 1-1.4-5.6 10.7 10.7 0 0 1 1.5-5.6 10.4 10.4 0 0 1 4-3.9 12.3 12.3 0 0 1 10.7-.3 12 12 0 0 1 4 2.8l-4 4.8a7.5 7.5 0 0 0-2.2-2zM232.7 41h17.8v5.3h-10.8v2.6h9.8V54h-9.8v2.6h11V62h-18zM265.5 62l-2.5-5.5h-2.6V62h-7V41h10.2a10 10 0 0 1 6.6 2 6.9 6.9 0 0 1 2.3 5.6 8.7 8.7 0 0 1-.8 4 6.5 6.5 0 0 1-2.5 2.7l4.2 6.7zm-5.1-10.7h3.2a2.2 2.2 0 0 0 1.7-.7 2.7 2.7 0 0 0 .7-1.9 2.5 2.5 0 0 0-.7-1.8 2.3 2.3 0 0 0-1.7-.6h-3.2zM273.9 41h18.9v5.5h-6V62h-7V46.5h-6zM294.5 41h7v21h-7zM304.4 41h17v5.3h-10v3.6h9.3v5.3h-9.3V62h-7zM323.4 41h7v21h-7zM346.4 47.1a4.9 4.9 0 0 0-2.6-.8 4 4 0 0 0-2.2.7 4.3 4.3 0 0 0-1.6 1.7 5.8 5.8 0 0 0-.5 2.6 6 6 0 0 0 .5 2.6 4.4 4.4 0 0 0 1.6 1.8 4 4 0 0 0 2.2.7 5.3 5.3 0 0 0 2.5-.7 8.3 8.3 0 0 0 2.3-1.8l4 4.3a13.2 13.2 0 0 1-4.2 3.1 11.7 11.7 0 0 1-5 1.2 11.4 11.4 0 0 1-5.7-1.5 10.2 10.2 0 0 1-4-4 11.3 11.3 0 0 1-1.4-5.6 10.7 10.7 0 0 1 1.5-5.6 10.4 10.4 0 0 1 4-4 12.2 12.2 0 0 1 10.7-.3 11.9 11.9 0 0 1 4 2.9l-4 4.7a7.5 7.5 0 0 0-2.1-2zM369.1 62l-1-3h-8l-1 3H352l8.9-21h7.1l8.6 21zm-7.1-8h4.4l-2.2-6.2zM374 41h19v5.5h-6V62h-7V46.5h-6zM394.6 41h17.8v5.3h-10.8v2.6h9.8V54h-9.8v2.6h11V62h-18z"/><path class="cls-5" d="M522 0h174v459H522z"/><path class="cls-1" d="M521 28v42l25.2-21L521 28z"/><circle class="cls-4" cx="609" cy="137" r="55"/><circle class="cls-4" cx="609" cy="261" r="55"/><circle class="cls-5" cx="609" cy="385" r="55"/><path class="cls-1" d="M375 173.5h.6c1.3 0 1.3 0 1.8-1.3l.7-1.9c.2-.4.4-.5.8-.4.9.2 1.7.3 2.5.6a1 1 0 0 0 1.3-.5l1.3-2.3a.6.6 0 0 1 .9-.3l2.5 1.1a.8.8 0 0 0 1.1-.2l1.9-2c.3-.4.6-.4 1-.1l2.1 1.5a.8.8 0 0 0 1.2 0l2-1.6a.7.7 0 0 1 1.1 0l1.9 2a.8.8 0 0 0 1 .2l2.4-1.2a.8.8 0 0 1 1.2.4l1.3 2a.8.8 0 0 0 1.1.5l2.4-.7c.8-.2 1 0 1.2.6l1 2.5c.1.4.4.5.8.4 1 0 1.9 0 2.8-.2.5 0 .7.2.8.7l.4 2.3a1 1 0 0 0 1.1 1l2.4.3c.5 0 .8.2.7.7l.1 2.7a.9.9 0 0 0 .7 1l2.6.8c.4.1.5.3.5.8l-.5 2.7a.8.8 0 0 0 .5 1l2.3 1.2a.7.7 0 0 1 .4 1l-1 2.4a.8.8 0 0 0 .2 1.1l2.1 1.7a.7.7 0 0 1 .2 1l-1.5 2.4a.7.7 0 0 0 0 1c.7.6 1.2 1.3 1.8 2 .4.4.5.7 0 1.2l-1.8 1.8a1 1 0 0 0-.1 1.4l1.1 2a.9.9 0 0 1-.3 1.4l-1.8 1.3a1 1 0 0 0-.5 1.3l.8 2.4a.7.7 0 0 1-.4 1l-2.2 1a1 1 0 0 0-.7 1.2l.3 2.4c0 .7 0 1-.8 1.1l-2.3.6a1 1 0 0 0-.9 1v2.5c0 .5-.3.8-.8.8l-2.8.1a.7.7 0 0 0-.8.6l-.5 2.5c-.2.6-.5.9-1.2.8l-2.2-.4a1 1 0 0 0-1.3.7l-1 2.2c-.3.8-.7.7-1.2.4l-2.5-.8a.7.7 0 0 0-1 .3l-1.5 2.2c-.3.4-.6.6-1 .2s-1.3-.7-2-1a1.4 1.4 0 0 0-1.9.2l-1.5 1.4c-.5.5-.9.4-1.3 0a19.4 19.4 0 0 0-1.9-1.6 1.1 1.1 0 0 0-1 0 23.3 23.3 0 0 0-2.4 1.4.6.6 0 0 1-1-.2l-1.5-2a1 1 0 0 0-1.3-.4l-2.5 1a.6.6 0 0 1-.8-.3c-.4-.8-.9-1.5-1.2-2.3a1 1 0 0 0-1.4-.6l-2.4.4a.6.6 0 0 1-.8-.5l-.8-2.5a.8.8 0 0 0-1-.8 20 20 0 0 1-2.8 0 .7.7 0 0 1-.5-.5l-.3-2.8c0-.5-.2-.8-.8-1-.9 0-1.7-.3-2.6-.4-.4-.1-.6-.3-.6-.8l.3-2.6a.9.9 0 0 0-.7-1.1l-2.5-1c-.5-.2-.5-.6-.4-1l.8-2.4a1 1 0 0 0-.5-1.2l-2.2-1.5a.6.6 0 0 1-.2-.9l1.1-2.3a1 1 0 0 0-.1-1.3l-2-1.9a.6.6 0 0 1 0-1l1.6-2a1 1 0 0 0 0-1.4l-1.5-2a.6.6 0 0 1 .1-1l2-1.7a1 1 0 0 0 .3-1.4l-1-2c-.4-.7 0-1 .5-1.4l2.2-1.2a.8.8 0 0 0 .4-1l-.6-2.5c-.2-.8 0-1 .7-1.1l2.5-1c.4 0 .5-.3.4-.7v-2.8c0-.5.2-.7.6-.7l2.6-.4a.9.9 0 0 0 .9-.9l.3-2.4c0-.6.3-.8 1-.8h1.3zM145 121.5h224.5a1.5 1.5 0 0 0 0-3H145a1.5 1.5 0 0 0 0 3zM145 163.5h224.5a1.5 1.5 0 0 0 0-3H145a1.5 1.5 0 0 0 0 3z"/><path class="cls-1" d="M188 95v24.5a1.5 1.5 0 0 0 3 0V95a1.5 1.5 0 0 0-3 0zM166.2 98.7l-6 14c-.8 1.8 1.8 3.3 2.6 1.6l6-14c.7-1.8-1.8-3.3-2.6-1.6zM245 95v24.5a1.5 1.5 0 0 0 3 0V95a1.5 1.5 0 0 0-3 0zM329 95v104a1.5 1.5 0 0 0 3 0V95a1.5 1.5 0 0 0-3 0zM245 162.5V199a1.5 1.5 0 0 0 3 0v-36.5a1.5 1.5 0 0 0-3 0z"/><rect class="cls-1" x="148" y="137" width="175" height="9" rx="4.5" ry="4.5"/><rect class="cls-1" x="201" y="102" width="35" height="9" rx="4.5" ry="4.5"/><rect class="cls-1" x="148" y="178" width="88" height="9" rx="4.5" ry="4.5"/><rect class="cls-1" x="339" y="102" width="28" height="9" rx="4.5" ry="4.5"/><rect class="cls-1" x="339" y="137" width="28" height="9" rx="4.5" ry="4.5"/><rect class="cls-1" x="257" y="102" width="63" height="9" rx="4.5" ry="4.5"/><rect class="cls-1" x="257" y="178" width="63" height="9" rx="4.5" ry="4.5"/><path class="cls-1" d="M163 102h-10.5a4.5 4.5 0 0 0 0 9h6.4zM179.5 102h-9.3l-3.4 9h12.7a4.5 4.5 0 0 0 0-9z"/><path class="cls-4" d="M14.5 321.1h8a11.5 11.5 0 0 1 5.2 1.2 8.4 8.4 0 0 1 3.5 3.2 9.8 9.8 0 0 1 0 9.6 8.4 8.4 0 0 1-3.5 3.2 11.5 11.5 0 0 1-5.2 1.1h-8zm7.8 15.5a7.8 7.8 0 0 0 3.6-.8 5.6 5.6 0 0 0 2.3-2.2 7 7 0 0 0 0-6.6 5.5 5.5 0 0 0-2.3-2.2 7.7 7.7 0 0 0-3.6-.8H18v12.6zM39.6 338.5A9 9 0 0 1 36 335a9.7 9.7 0 0 1 0-9.6 9 9 0 0 1 3.6-3.4 11.1 11.1 0 0 1 10 0 9 9 0 0 1 3.6 3.4 9.8 9.8 0 0 1 0 9.6 9 9 0 0 1-3.5 3.4 11.1 11.1 0 0 1-10.1 0zm8.3-2.6a6 6 0 0 0 2.3-2.3 7 7 0 0 0 0-6.6 6 6 0 0 0-2.3-2.3 7 7 0 0 0-6.6 0A6 6 0 0 0 39 327a7 7 0 0 0 0 6.6 6 6 0 0 0 2.3 2.3 7 7 0 0 0 6.6 0zM61.5 338.5A9 9 0 0 1 58 335a9.9 9.9 0 0 1 0-9.7 9.1 9.1 0 0 1 3.6-3.3 10.3 10.3 0 0 1 5-1.2 10.5 10.5 0 0 1 4 .8 8.4 8.4 0 0 1 3.2 2.2l-2.2 2.1a6.4 6.4 0 0 0-4.9-2.1 6.8 6.8 0 0 0-3.4.8A6 6 0 0 0 61 327a7 7 0 0 0 0 6.6 6 6 0 0 0 2.3 2.3 6.8 6.8 0 0 0 3.4.8 6.4 6.4 0 0 0 4.9-2.1l2.2 2a8.3 8.3 0 0 1-3.2 2.3 10.5 10.5 0 0 1-4 .8 10.3 10.3 0 0 1-5-1.2zM78.9 337.6a8.3 8.3 0 0 1-2.1-6.1V321h3.4v10.2q0 5.4 4.6 5.4t4.7-5.4v-10.2h3.3v10.4a8.3 8.3 0 0 1-2.1 6 7.9 7.9 0 0 1-5.9 2.2 8 8 0 0 1-5.9-2.1zM114.3 339.4v-12l-6 10h-1.5l-6-10v12h-3.3v-18.3h2.8l7.3 12.2 7.1-12.2h2.8v18.3zM136.2 336.6v2.8h-13.7v-18.3h13.3v2.9H126v4.8h8.8v2.7H126v5zM156.3 321.1v18.3h-2.8L143.4 327v12.4H140V321h2.8l10 12.4v-12.4zM164.9 324h-6v-2.9h15.4v2.9h-6v15.4h-3.4zM178.3 339a8.4 8.4 0 0 1-3.1-1.5l1.2-2.6a9.5 9.5 0 0 0 2.7 1.4 10.1 10.1 0 0 0 3.3.6 5.7 5.7 0 0 0 3-.7 2 2 0 0 0 1-1.7 1.7 1.7 0 0 0-.6-1.3 4 4 0 0 0-1.4-.8l-2.4-.7a25.6 25.6 0 0 1-3.3-1 5.4 5.4 0 0 1-2.3-1.5 4.2 4.2 0 0 1-.9-2.9 4.9 4.9 0 0 1 .8-2.7 5.7 5.7 0 0 1 2.5-2 10 10 0 0 1 4-.8 13 13 0 0 1 3.4.5 9.1 9.1 0 0 1 2.8 1.2l-1 2.6a10.4 10.4 0 0 0-2.5-1 9.1 9.1 0 0 0-2.5-.4 5.3 5.3 0 0 0-3 .7 2 2 0 0 0-1 1.8 1.6 1.6 0 0 0 .5 1.3 4 4 0 0 0 1.4.7l2.4.7a24.4 24.4 0 0 1 3.3 1 5.8 5.8 0 0 1 2.3 1.6 4.1 4.1 0 0 1 .9 2.8 4.8 4.8 0 0 1-.8 2.7 5.6 5.6 0 0 1-2.5 2 10 10 0 0 1-4 .7 14 14 0 0 1-4.2-.6zM26.5 364l-3.8-5.4a6 6 0 0 1-.7 0H18v5.4h-3.4v-18.3H22a10.2 10.2 0 0 1 4.1.8 6 6 0 0 1 2.7 2.2 6.9 6.9 0 0 1 0 7 6 6 0 0 1-2.9 2.3l4.2 6zm-1.3-14.5a5.3 5.3 0 0 0-3.3-1h-4v7.4h4a5.2 5.2 0 0 0 3.3-1 3.3 3.3 0 0 0 1.2-2.8 3.3 3.3 0 0 0-1.2-2.6zM47.3 361.1v2.9H33.6v-18.3h13.3v2.8H37v4.8h8.8v2.8H37v5zM70.3 365.8a6.2 6.2 0 0 1-2.1 1.6 6.5 6.5 0 0 1-2.7.6 7.2 7.2 0 0 1-3.4-.9 15.8 15.8 0 0 1-3.6-3 9.9 9.9 0 0 1-4.5-1.4 9 9 0 0 1-3.1-3.3 9.4 9.4 0 0 1-1.2-4.6A9.3 9.3 0 0 1 51 350a9 9 0 0 1 3.5-3.4 11.1 11.1 0 0 1 10.1 0 9 9 0 0 1 3.5 3.4 9.3 9.3 0 0 1 1.3 4.8 9.4 9.4 0 0 1-.9 4 9.2 9.2 0 0 1-2.4 3.2 9.7 9.7 0 0 1-3.5 1.8A5.3 5.3 0 0 0 64 365a3.4 3.4 0 0 0 1.6.4 4.1 4.1 0 0 0 3.2-1.5zM54 358.1a6 6 0 0 0 2.3 2.3 7 7 0 0 0 6.6 0 6 6 0 0 0 2.3-2.3 7 7 0 0 0 0-6.6 5.8 5.8 0 0 0-2.3-2.3 7 7 0 0 0-6.6 0 6 6 0 0 0-2.3 2.3 7 7 0 0 0 0 6.6zM75 362.1a8.3 8.3 0 0 1-2.1-6v-10.4h3.4v10.2q0 5.4 4.6 5.4t4.7-5.4v-10.2h3.3V356a8.3 8.3 0 0 1-2.1 6.1 7.9 7.9 0 0 1-5.9 2.1 8 8 0 0 1-5.9-2zM93.6 345.7H97V364h-3.4zM114 364l-3.8-5.4a6.2 6.2 0 0 1-.7 0h-4.1v5.4H102v-18.3h7.5a10.1 10.1 0 0 1 4.2.8 6 6 0 0 1 2.7 2.2 6.3 6.3 0 0 1 1 3.5 6.2 6.2 0 0 1-1 3.6 6 6 0 0 1-3 2.2l4.2 6zm-1.3-14.5a5.3 5.3 0 0 0-3.4-1h-4v7.4h4a5.2 5.2 0 0 0 3.4-1 3.3 3.3 0 0 0 1.1-2.8 3.3 3.3 0 0 0-1.1-2.6zM134.8 361.1v2.9H121v-18.3h13.3v2.8h-10v4.8h8.9v2.8h-8.9v5zM138.6 345.7h8a11.5 11.5 0 0 1 5.2 1.1 8.3 8.3 0 0 1 3.5 3.2 9.8 9.8 0 0 1 0 9.6 8.4 8.4 0 0 1-3.5 3.2 11.4 11.4 0 0 1-5.2 1.2h-8zm7.8 15.4a7.7 7.7 0 0 0 3.5-.8 5.5 5.5 0 0 0 2.4-2.2 7 7 0 0 0 0-6.6 5.6 5.6 0 0 0-2.4-2.2 7.8 7.8 0 0 0-3.5-.7H142V361zM26 386l-5.2 11.5h-1.2l-5-11.5h1.3l4.4 10 4.4-10zM32.3 389.6a3.3 3.3 0 0 1 .9 2.5v5.4h-1.1V396a2.7 2.7 0 0 1-1.2 1 4 4 0 0 1-1.8.4 3.5 3.5 0 0 1-2.3-.6 2.4 2.4 0 0 1 0-3.6 4 4 0 0 1 2.5-.7H32v-.5a2.2 2.2 0 0 0-.6-1.7 2.5 2.5 0 0 0-1.8-.6 4.7 4.7 0 0 0-1.6.2 4 4 0 0 0-1.3.8l-.5-1a4.7 4.7 0 0 1 1.6-.8 6.2 6.2 0 0 1 1.9-.3 3.7 3.7 0 0 1 2.6.9zm-1.3 6.6a2.7 2.7 0 0 0 1-1.3v-1.4h-2.7c-1.5 0-2.2.5-2.2 1.5a1.4 1.4 0 0 0 .6 1.2 2.6 2.6 0 0 0 1.6.4 3.1 3.1 0 0 0 1.7-.4zM38.7 389.2a4 4 0 0 1 2-.5v1.2h-.3a2.8 2.8 0 0 0-2.1.8 3.4 3.4 0 0 0-.8 2.4v4.4h-1.1v-8.7h1v1.7a2.8 2.8 0 0 1 1.3-1.3zM42.8 386.7a.9.9 0 0 1-.2-.6.8.8 0 0 1 .2-.6.9.9 0 0 1 1.2 0 .8.8 0 0 1 .3.6.8.8 0 0 1-.9.8.8.8 0 0 1-.6-.2zm0 2.1H44v8.7h-1.2zM54.8 393.5h-7.3a3.1 3.1 0 0 0 1 2.2 3.5 3.5 0 0 0 2.4.8 3.8 3.8 0 0 0 1.5-.3 3.1 3.1 0 0 0 1.1-.8l.7.7a3.6 3.6 0 0 1-1.4 1 4.8 4.8 0 0 1-2 .4 4.8 4.8 0 0 1-2.3-.5 4 4 0 0 1-1.6-1.6 4.5 4.5 0 0 1-.6-2.3 4.7 4.7 0 0 1 .6-2.2 4.1 4.1 0 0 1 1.5-1.6 4.5 4.5 0 0 1 4.3 0 4 4 0 0 1 1.5 1.6 4.7 4.7 0 0 1 .5 2.2zm-6.3-3a3.2 3.2 0 0 0-1 2.1h6.1a3.1 3.1 0 0 0-1-2 3.2 3.2 0 0 0-4.2 0zM57.5 397.2a4.4 4.4 0 0 1-1.5-.7l.5-1a4.2 4.2 0 0 0 1.4.8 5.5 5.5 0 0 0 1.7.2 3.2 3.2 0 0 0 1.7-.4 1.2 1.2 0 0 0 .6-1 1 1 0 0 0-.3-.7 2 2 0 0 0-.8-.4 11.8 11.8 0 0 0-1.3-.3 13.8 13.8 0 0 1-1.7-.4 2.5 2.5 0 0 1-1-.7 2 2 0 0 1-.5-1.3 2.1 2.1 0 0 1 .9-1.8 4 4 0 0 1 2.5-.7 6.5 6.5 0 0 1 1.7.2 4.6 4.6 0 0 1 1.3.6l-.5 1a4.3 4.3 0 0 0-2.5-.8 3 3 0 0 0-1.7.4 1.2 1.2 0 0 0-.6 1 1 1 0 0 0 .4.8 1.9 1.9 0 0 0 .8.4l1.3.3a15.5 15.5 0 0 1 1.6.4 2.5 2.5 0 0 1 1.1.7 1.9 1.9 0 0 1 .4 1.3 2.1 2.1 0 0 1-.9 1.8 4.5 4.5 0 0 1-2.6.6 6.7 6.7 0 0 1-2-.3zM76.1 389.3a4 4 0 0 1 1.6 1.6 5 5 0 0 1 0 4.5A4 4 0 0 1 76 397a4.4 4.4 0 0 1-2.2.6 4 4 0 0 1-1.9-.5 3.5 3.5 0 0 1-1.4-1.3v1.7h-1.1v-12.2h1.2v5.2a3.5 3.5 0 0 1 1.3-1.3 4 4 0 0 1 2-.4 4.5 4.5 0 0 1 2.1.5zm-.6 6.8a3 3 0 0 0 1.2-1.2 3.9 3.9 0 0 0 0-3.5 3 3 0 0 0-1.2-1.2 3.4 3.4 0 0 0-3.3 0 3 3 0 0 0-1.1 1.2 3.9 3.9 0 0 0 0 3.5 3 3 0 0 0 1.1 1.2 3.4 3.4 0 0 0 3.3 0zM87.6 388.8l-4.3 9.7a4.2 4.2 0 0 1-1.2 1.7 2.7 2.7 0 0 1-1.6.5 3.4 3.4 0 0 1-1.2-.2 2.5 2.5 0 0 1-1-.6l.6-.8a2.2 2.2 0 0 0 1.6.6 1.6 1.6 0 0 0 1-.3 3 3 0 0 0 .7-1.1l.4-.9-3.8-8.6H80l3.3 7.4 3.2-7.4zM94.5 397.1a4.6 4.6 0 0 1-1.8-1l.5-1a4.6 4.6 0 0 0 1.7 1 6.3 6.3 0 0 0 2.1.4 4 4 0 0 0 2.3-.6 1.8 1.8 0 0 0 .8-1.4 1.5 1.5 0 0 0-.4-1.1 2.8 2.8 0 0 0-1-.7 17.3 17.3 0 0 0-1.7-.4 18.6 18.6 0 0 1-2-.7 3.6 3.6 0 0 1-1.4-.9 2.5 2.5 0 0 1-.6-1.7 2.9 2.9 0 0 1 .5-1.6 3.3 3.3 0 0 1 1.4-1.1 5.9 5.9 0 0 1 2.3-.5 7 7 0 0 1 2 .3 5.8 5.8 0 0 1 1.6.8l-.4 1a5.6 5.6 0 0 0-1.6-.7 5.7 5.7 0 0 0-1.6-.3 3.7 3.7 0 0 0-2.2.6 1.8 1.8 0 0 0-.8 1.5 1.5 1.5 0 0 0 .4 1.1 2.6 2.6 0 0 0 1 .6c.5.2 1 .4 1.8.5a18.2 18.2 0 0 1 2 .6 3.4 3.4 0 0 1 1.3 1 2.5 2.5 0 0 1 .5 1.6 2.8 2.8 0 0 1-.4 1.6 3.2 3.2 0 0 1-1.5 1.2 6 6 0 0 1-2.3.4 7.6 7.6 0 0 1-2.5-.5zM108.2 397a2.1 2.1 0 0 1-.8.4 3.1 3.1 0 0 1-1 .1 2.5 2.5 0 0 1-1.9-.6 2.5 2.5 0 0 1-.6-1.9v-5.2h-1.6v-1h1.6V387h1.2v2h2.6v1H105v5.1a1.6 1.6 0 0 0 .3 1.2 1.5 1.5 0 0 0 1.1.4 2.1 2.1 0 0 0 .7-.1 1.5 1.5 0 0 0 .6-.4zM116 389.6a3.3 3.3 0 0 1 .9 2.5v5.4h-1.1V396a2.6 2.6 0 0 1-1.2 1 4 4 0 0 1-1.8.4 3.6 3.6 0 0 1-2.3-.6 2.4 2.4 0 0 1 0-3.6 4 4 0 0 1 2.5-.7h2.7v-.5a2.2 2.2 0 0 0-.6-1.7 2.6 2.6 0 0 0-1.8-.6 4.6 4.6 0 0 0-1.6.2 4 4 0 0 0-1.3.8l-.5-.9a4.6 4.6 0 0 1 1.6-.8 6.3 6.3 0 0 1 1.9-.4 3.7 3.7 0 0 1 2.6.9zm-1.3 6.6a2.7 2.7 0 0 0 1-1.3v-1.4H113c-1.5 0-2.2.5-2.2 1.5a1.4 1.4 0 0 0 .6 1.2 2.6 2.6 0 0 0 1.6.4 3 3 0 0 0 1.7-.4zM124.6 397a2.1 2.1 0 0 1-.8.4 3.1 3.1 0 0 1-1 .1 2.5 2.5 0 0 1-1.9-.6 2.5 2.5 0 0 1-.7-1.9v-5.2h-1.5v-1h1.6V387h1.1v2h2.6v1h-2.6v5.1a1.6 1.6 0 0 0 .4 1.2 1.5 1.5 0 0 0 1.1.4 2 2 0 0 0 .7-.1 1.6 1.6 0 0 0 .6-.4zM134 393.5h-7.3a3 3 0 0 0 1 2.2 3.5 3.5 0 0 0 2.4.8 3.8 3.8 0 0 0 1.4-.3 3.2 3.2 0 0 0 1.2-.8l.7.7a3.6 3.6 0 0 1-1.5 1 4.8 4.8 0 0 1-1.9.4 4.8 4.8 0 0 1-2.3-.5 4 4 0 0 1-1.6-1.6 4.4 4.4 0 0 1-.6-2.3 4.7 4.7 0 0 1 .5-2.2 4.1 4.1 0 0 1 1.6-1.6 4.2 4.2 0 0 1 2.1-.6 4.2 4.2 0 0 1 2.2.6 4 4 0 0 1 1.5 1.6 4.7 4.7 0 0 1 .5 2.2zm-6.4-3a3.2 3.2 0 0 0-1 2.1h6.2a3 3 0 0 0-1-2 3.2 3.2 0 0 0-4.2 0zM546.5 55.6a8.3 8.3 0 0 1-2.2-6.1V39h3.4v10.2q0 5.4 4.7 5.4c3 0 4.6-1.8 4.6-5.4V39.1h3.3v10.4a8.3 8.3 0 0 1-2 6 9.2 9.2 0 0 1-11.8 0zM566.7 57a8.6 8.6 0 0 1-3.1-1.5l1.1-2.6a9.5 9.5 0 0 0 2.8 1.4 10 10 0 0 0 3.3.6 5.7 5.7 0 0 0 3-.7 2 2 0 0 0 1-1.7 1.6 1.6 0 0 0-.6-1.3 3.9 3.9 0 0 0-1.4-.8 32 32 0 0 0-2.3-.6 25.8 25.8 0 0 1-3.4-1 5.5 5.5 0 0 1-2.3-1.6 4.2 4.2 0 0 1-.9-2.9 4.9 4.9 0 0 1 .8-2.7 5.6 5.6 0 0 1 2.5-2 10 10 0 0 1 4-.7 13.1 13.1 0 0 1 3.4.4 9.1 9.1 0 0 1 2.8 1.2l-1.1 2.6a10.4 10.4 0 0 0-2.5-1 9.1 9.1 0 0 0-2.5-.4 5.3 5.3 0 0 0-3 .7 2 2 0 0 0-1 1.8 1.6 1.6 0 0 0 .5 1.2 4 4 0 0 0 1.4.8l2.4.7a24.2 24.2 0 0 1 3.3 1 5.8 5.8 0 0 1 2.3 1.5 4.1 4.1 0 0 1 .9 2.9 4.9 4.9 0 0 1-.8 2.7 5.6 5.6 0 0 1-2.5 2 10 10 0 0 1-4 .7 14 14 0 0 1-4.1-.6zM595.3 54.6v2.8h-13.8V39.1H595V42h-10v4.8h8.9v2.8h-8.9v5zM599 39.1h8a11.5 11.5 0 0 1 5.2 1.2 8.4 8.4 0 0 1 3.5 3.2 9.8 9.8 0 0 1 0 9.6 8.4 8.4 0 0 1-3.5 3.2 11.5 11.5 0 0 1-5.2 1.1h-8zm7.8 15.5a7.8 7.8 0 0 0 3.6-.8 5.6 5.6 0 0 0 2.3-2.2 7 7 0 0 0 0-6.6 5.5 5.5 0 0 0-2.3-2.2 7.7 7.7 0 0 0-3.6-.8h-4.4v12.6zM631.2 42v5.6h8.9v2.8h-8.9v7h-3.4V39.1h13.4V42zM647.8 56.5a9 9 0 0 1-3.5-3.4 9.7 9.7 0 0 1 0-9.6 9 9 0 0 1 3.5-3.4 11.1 11.1 0 0 1 10 0 9 9 0 0 1 3.6 3.4 9.8 9.8 0 0 1 0 9.6 9 9 0 0 1-3.5 3.4 11.1 11.1 0 0 1-10.1 0zm8.3-2.6a6 6 0 0 0 2.3-2.3 7 7 0 0 0 0-6.6 6 6 0 0 0-2.3-2.3 7 7 0 0 0-6.6 0 6 6 0 0 0-2.3 2.3 7 7 0 0 0 0 6.6 6 6 0 0 0 2.3 2.3 7 7 0 0 0 6.6 0zM678.2 57.4l-3.7-5.3a6 6 0 0 1-.7 0h-4.1v5.3h-3.4V39.1h7.5a10.2 10.2 0 0 1 4.1.8 6.2 6.2 0 0 1 2.7 2.3 6.3 6.3 0 0 1 1 3.4 6.2 6.2 0 0 1-1 3.6 6 6 0 0 1-3 2.2l4.3 6zM677 43a5.2 5.2 0 0 0-3.4-1h-4v7.3h4a5.2 5.2 0 0 0 3.4-1 3.3 3.3 0 0 0 1.1-2.7A3.3 3.3 0 0 0 677 43zM671.3 100H550.5a4.5 4.5 0 0 0-4.5 4.5V171a4.5 4.5 0 0 0 4.5 4.5h120.8a4.5 4.5 0 0 0 4.6-4.5v-66.5a4.5 4.5 0 0 0-4.6-4.5z"/><path class="cls-2" d="M671.3 100H550.5a4.5 4.5 0 0 0-4.5 4.5V118h129.9v-13.5a4.5 4.5 0 0 0-4.6-4.5z"/><text transform="translate(595.5 112.3)" font-size="10" font-family="Montserrat-Black,Montserrat" letter-spacing="0em" fill="#fff">S<tspan x="6.5" y="0">TA</tspan><tspan x="20.4" y="0" letter-spacing="0">TE ID</tspan></text><rect class="cls-1" x="595.5" y="126.4" width="52.5" height="3.7" rx="1.8" ry="1.8"/><rect class="cls-3" x="551" y="106" width="22.4" height="3.7" rx="1.8" ry="1.8"/><rect class="cls-1" x="595.5" y="168.2" width="23.7" height="3" rx="1.5" ry="1.5"/><rect class="cls-1" x="595.5" y="150.4" width="34.1" height="3" rx="1.5" ry="1.5"/><rect class="cls-1" x="595.5" y="155.1" width="34.1" height="3" rx="1.5" ry="1.5"/><rect class="cls-1" x="655.3" y="149.4" width="17" height="3" rx="1.5" ry="1.5"/><path class="cls-1" d="M552.2 118h31.3v40.3h-31.3zM652.3 118H676v5.7h-23.7z"/><ellipse class="cls-3" cx="568.1" cy="133.9" rx="9.8" ry="12.9"/><path class="cls-3" d="M568.6 146.5s-13 5.2-13 11.6h13zM568.6 146.5s12.8 5.2 12.8 11.6h-12.8z"/><path class="cls-3" d="M569 144v5.9l-3.9.4-.2-6.2h4z"/><path class="cls-3" d="M571.8 144v5.9l-3.8.4-.3-6.2h4z"/><path class="cls-1" d="M659.4 163.4v-5.8a2.2 2.2 0 0 1 2.1-2h8.8a2 2 0 0 1 2 2v11.7a2 2 0 0 1-2 2h-8.8a2 2 0 0 1-2-2z"/><rect class="cls-1" x="595.5" y="132.7" width="52.5" height="3.7" rx="1.8" ry="1.8"/><rect class="cls-1" x="595.5" y="139.1" width="52.5" height="3.7" rx="1.8" ry="1.8"/><rect class="cls-1" x="622.9" y="168.2" width="23.7" height="3" rx="1.5" ry="1.5"/><path class="cls-3" d="M590.2 126.5a6.8 6.8 0 0 1-.8.3c-.6.1-.7.4-.5 1a2 2 0 0 1 0 .7l-.8-.2a1.2 1.2 0 0 1-.3-.1c-1-.6-1.2-.5-1.8.6-.6 0-1.5-.8-1.3-1.4.4-1.7-.7-2.5-2-3.3a8.5 8.5 0 0 1-1-.9 1.2 1.2 0 0 1-.3-1.6 5.6 5.6 0 0 0 .5-1.5l-.1-.8c-.1 0-.8-.3-1-.2-.6.3-.9.1-.9-.3 0-1.6-1.2-2.3-2.1-3.2a4.4 4.4 0 0 1-.9-4.3c.3-1.2 1.5-1.5 1.8-2.6 0-.5.2-.9 0-1.3-.6-.8-.4-1.4.6-1.6a3.2 3.2 0 0 0 2.8-2.7 1.7 1.7 0 0 0-.3-1 25.5 25.5 0 0 0-1.7-2l1-.1 9.8.1c.6 0 .7.2.8.8a19.5 19.5 0 0 0 1 3 2.5 2.5 0 0 1 .2.9V116l-.3 1a4.3 4.3 0 0 0 .1 1.7 3 3 0 0 1-.6 2.7 5.1 5.1 0 0 0-1.2 2l-.7 3.1z" id="q6XrDO.tif"/><path class="cls-3" d="M590 266l.6-3.9-3-5-2 1.3 2.9 2.8 1 2.3-1.2-.1 1.8 2.6z"/><path class="cls-1" d="M610.8 230.5a1.4 1.4 0 0 0 0-1.3l-.6-1.2a4.8 4.8 0 0 1 .6-4 5.5 5.5 0 0 1 1.2-1.6 6.6 6.6 0 0 1 3.5-1.2 9.6 9.6 0 0 1 3.2 0c1 .1 2 .6 2.9 0 .1 0 .3-.2.4 0a.3.3 0 0 1 .2 0 4.1 4.1 0 0 1-.5 2.7 8.3 8.3 0 0 0-.4 3.5 2.3 2.3 0 0 1-.1 1.2 3.4 3.4 0 0 0-.3.7c-.1.3.2.7.5 1s.5.7.3 1-.9.2-1.4.4a1.5 1.5 0 0 0-.8 1.5 1.2 1.2 0 0 1 0 .5c-.2.3-.5.3-.8.5s-.4.5-.1.7l9.2 9.6 11-3.7 1-3.3 3-1.5-.4 1 1.8 2.4-1.3 1.5-1.8-2.2 1 3.1-2.6 1.8.5 2.5s-10.2 3.8-12.2 3.7-9-3.6-9-3.6l-3.1 15.4 17.9 7L643 288l9.3.5-11.4 7.2-11.2-20.8-16-3.8-19 18.9-20.4-14.7-8.2 4 8-13.2 20.2 14 7.1-18.7-1.2-18.8-7 1.9-1.7 17-1.5 2.5-.1-2.2-1.2 1.3-2.8-2.7 2-3v-1l-1.9-1 2.2-14.5 12-6.4s.6-3.9 3.6-3.8a27.3 27.3 0 0 1 5.4.8z"/><path class="cls-3" d="M577.6 280.2l2.3 1.4 13.8-9.2-9.8-18.2-1.6-.7-4.7 26.7z"/><path class="cls-2" d="M582.3 253.5l9.4 17.3-14.1 9.4-8.9-17.4 13.6-9.3zM616.2 235.7s-.9 2.4.2 3l1.2.5.1-3z"/><path class="cls-2" d="M617.3 237.7s5-.2 2.5 3.3a96.6 96.6 0 0 0-5 8.4l3 7-1 2.4-2.2-2.3s-1.6-5.8-.6-8.6a81.2 81.2 0 0 1 3.8-7.7l-.9-1.3"/><path class="cls-4" d="M411.3 396.8a5.5 5.5 0 0 1-2.2-2 6.2 6.2 0 0 1 0-6 5.5 5.5 0 0 1 2.2-2.2 6.4 6.4 0 0 1 3-.7 6.6 6.6 0 0 1 2.4.4 4.9 4.9 0 0 1 1.9 1.2l-.8.8a4.6 4.6 0 0 0-3.4-1.3 5 5 0 0 0-2.5.6 4.8 4.8 0 0 0 0 8.3 5 5 0 0 0 2.5.6 4.5 4.5 0 0 0 3.4-1.4l.8.8a5 5 0 0 1-1.9 1.2 6.4 6.4 0 0 1-2.3.5 6.3 6.3 0 0 1-3.1-.8zM421 385.3h1.1v12.2h-1.2zM425.3 386.7a.8.8 0 0 1-.2-.6.8.8 0 0 1 .2-.6.9.9 0 0 1 .6-.2.8.8 0 0 1 .7.2.8.8 0 0 1 .2.6.9.9 0 0 1-1.5.6zm0 2.1h1.2v8.7h-1.2zM431 397a4 4 0 0 1-1.5-1.6 4.8 4.8 0 0 1 0-4.5 4.1 4.1 0 0 1 1.6-1.6 4.7 4.7 0 0 1 2.2-.5 4.4 4.4 0 0 1 2 .4 3.3 3.3 0 0 1 1.4 1.3l-.8.6a2.8 2.8 0 0 0-1.1-1 3.3 3.3 0 0 0-1.4-.4 3.4 3.4 0 0 0-1.7.5 3 3 0 0 0-1.2 1.2 3.6 3.6 0 0 0-.4 1.7 3.5 3.5 0 0 0 .4 1.8 3 3 0 0 0 1.2 1.2 3.4 3.4 0 0 0 1.7.4 3.3 3.3 0 0 0 1.4-.3 2.6 2.6 0 0 0 1-1l1 .6a3.2 3.2 0 0 1-1.5 1.3 4.3 4.3 0 0 1-2 .4 4.7 4.7 0 0 1-2.2-.5zM442 393.1l-2 1.9v2.5h-1v-12.2h1v8.2l5.2-4.7h1.5l-3.7 3.5 4 5.2h-1.5zM457.6 397a2.1 2.1 0 0 1-.8.4 3.1 3.1 0 0 1-1 .1 2.5 2.5 0 0 1-1.9-.6 2.5 2.5 0 0 1-.6-1.9v-5.2h-1.6v-1h1.6V387h1.1v2h2.6v1h-2.6v5.1a1.6 1.6 0 0 0 .4 1.2 1.5 1.5 0 0 0 1 .4 2.1 2.1 0 0 0 .8-.1 1.5 1.5 0 0 0 .5-.4zM466.7 389.7a3.7 3.7 0 0 1 1 2.8v5h-1.2v-5a2.9 2.9 0 0 0-.7-2 2.5 2.5 0 0 0-1.9-.7 3 3 0 0 0-2.2.8 3.2 3.2 0 0 0-.8 2.3v4.6h-1.2v-12.2h1.2v5a3 3 0 0 1 1.3-1.1 4.2 4.2 0 0 1 2-.5 3.5 3.5 0 0 1 2.5 1zM478.4 393.5h-7.2a3.1 3.1 0 0 0 1 2.2 3.4 3.4 0 0 0 2.3.8 3.8 3.8 0 0 0 1.5-.3 3.1 3.1 0 0 0 1.2-.8l.6.7a3.7 3.7 0 0 1-1.4 1 5 5 0 0 1-2 .4 4.8 4.8 0 0 1-2.3-.5 4.1 4.1 0 0 1-1.6-1.6 4.5 4.5 0 0 1-.5-2.3 4.6 4.6 0 0 1 .5-2.2 4.1 4.1 0 0 1 1.5-1.6 4.2 4.2 0 0 1 2.2-.6 4.2 4.2 0 0 1 2.1.6 4 4 0 0 1 1.5 1.6 4.6 4.6 0 0 1 .6 2.2zm-6.3-3a3.1 3.1 0 0 0-1 2.1h6.2a3.2 3.2 0 0 0-1-2 3 3 0 0 0-2.2-.8 3 3 0 0 0-2 .8zM491.7 389.3a4 4 0 0 1 1.6 1.6 5 5 0 0 1 0 4.5 4 4 0 0 1-1.6 1.6 4.4 4.4 0 0 1-2.2.5 4 4 0 0 1-2-.4 3.6 3.6 0 0 1-1.3-1.3v1.7H485v-12.2h1.2v5.2a3.6 3.6 0 0 1 1.4-1.3 4.1 4.1 0 0 1 1.9-.4 4.5 4.5 0 0 1 2.2.5zm-.6 6.8a3 3 0 0 0 1.2-1.2 3.9 3.9 0 0 0 0-3.5 3 3 0 0 0-1.2-1.2 3.3 3.3 0 0 0-1.6-.4 3.2 3.2 0 0 0-1.7.4 3 3 0 0 0-1.1 1.2 3.9 3.9 0 0 0 0 3.5 3 3 0 0 0 1.1 1.2 3.2 3.2 0 0 0 1.7.4 3.3 3.3 0 0 0 1.6-.4zM501.8 389.6a3.3 3.3 0 0 1 .9 2.5v5.4h-1.1V396a2.7 2.7 0 0 1-1.2 1 4.1 4.1 0 0 1-1.8.4 3.6 3.6 0 0 1-2.3-.6 2.3 2.3 0 0 1-.9-1.9 2.2 2.2 0 0 1 .8-1.7 4 4 0 0 1 2.6-.7h2.7v-.5a2.2 2.2 0 0 0-.6-1.7 2.5 2.5 0 0 0-1.8-.6 4.7 4.7 0 0 0-1.6.2 4 4 0 0 0-1.3.8l-.5-.9a4.6 4.6 0 0 1 1.6-.8 6.2 6.2 0 0 1 1.9-.3 3.7 3.7 0 0 1 2.6.8zm-1.3 6.6a2.7 2.7 0 0 0 1-1.3v-1.4h-2.7c-1.5 0-2.2.5-2.2 1.5a1.4 1.4 0 0 0 .5 1.2 2.6 2.6 0 0 0 1.6.4 3.1 3.1 0 0 0 1.8-.4zM508.2 389.2a4 4 0 0 1 2-.5v1.2h-.3a2.8 2.8 0 0 0-2.1.8 3.4 3.4 0 0 0-.8 2.4v4.4H506v-8.7h1.1v1.7a2.8 2.8 0 0 1 1.2-1.3zM415.8 409a4 4 0 0 1 1.5 1.6 5 5 0 0 1 0 4.5 4.1 4.1 0 0 1-1.5 1.6 4.4 4.4 0 0 1-2.2.5 4.2 4.2 0 0 1-2-.4 3.6 3.6 0 0 1-1.4-1.3v1.7h-1V405h1v5.2a3.7 3.7 0 0 1 1.5-1.3 4.2 4.2 0 0 1 1.9-.4 4.4 4.4 0 0 1 2.2.5zm-.7 6.8a3 3 0 0 0 1.2-1.2 3.9 3.9 0 0 0 0-3.5 3 3 0 0 0-1.2-1.2 3.5 3.5 0 0 0-3.3 0 3 3 0 0 0-1.1 1.2 4 4 0 0 0 0 3.5 3 3 0 0 0 1.1 1.2 3.5 3.5 0 0 0 3.3 0zM427.8 413.2h-7.3a3.1 3.1 0 0 0 1 2.2 3.4 3.4 0 0 0 2.4.8 3.6 3.6 0 0 0 1.5-.3 3.2 3.2 0 0 0 1.2-.8l.6.7a3.7 3.7 0 0 1-1.4 1 5 5 0 0 1-2 .4 4.8 4.8 0 0 1-2.3-.5 4.1 4.1 0 0 1-1.6-1.6 4.5 4.5 0 0 1-.6-2.3 4.6 4.6 0 0 1 .6-2.2 4 4 0 0 1 1.5-1.6 4.2 4.2 0 0 1 2.2-.5 4.2 4.2 0 0 1 2.1.5 3.9 3.9 0 0 1 1.5 1.6 4.6 4.6 0 0 1 .6 2.2zm-6.3-3a3.1 3.1 0 0 0-1 2.1h6.1a3.1 3.1 0 0 0-1-2 3 3 0 0 0-2-.8 3 3 0 0 0-2 .8zM430.2 405h1.1v12.2h-1.1zM435.9 416.7a4.1 4.1 0 0 1-1.6-1.6 4.7 4.7 0 0 1 0-4.5 4 4 0 0 1 1.6-1.6 4.5 4.5 0 0 1 2.2-.5 4.6 4.6 0 0 1 2.3.5 4 4 0 0 1 1.5 1.6 4.8 4.8 0 0 1 0 4.5 4 4 0 0 1-1.5 1.6 4.5 4.5 0 0 1-2.3.6 4.4 4.4 0 0 1-2.2-.6zm3.9-1a3 3 0 0 0 1.1-1.1 4 4 0 0 0 0-3.5 3 3 0 0 0-1.1-1.2 3.5 3.5 0 0 0-3.3 0 3 3 0 0 0-1.2 1.2 3.9 3.9 0 0 0 0 3.5 3 3 0 0 0 1.2 1.2 3.5 3.5 0 0 0 3.3 0zM457.3 408.5l-3.3 8.7h-1l-2.7-7.1-2.8 7h-1l-3.3-8.6h1.1l2.7 7.4 2.8-7.4h1l2.8 7.4 2.7-7.4zM465.1 406.3a1.7 1.7 0 0 0-.4 1.2v1h2.7v1h-2.7v7.7h-1.1v-7.7H462v-1h1.5v-1a2.6 2.6 0 0 1 .7-2 2.6 2.6 0 0 1 2-.6 3 3 0 0 1 .9.1 2 2 0 0 1 .8.4l-.4.9a2 2 0 0 0-1.3-.4 1.5 1.5 0 0 0-1.1.4zM470 416.7a4.2 4.2 0 0 1-1.5-1.6 4.8 4.8 0 0 1 0-4.5 4 4 0 0 1 1.6-1.6 4.8 4.8 0 0 1 4.5 0 4 4 0 0 1 1.5 1.6 4.8 4.8 0 0 1 0 4.5 4 4 0 0 1-1.5 1.6 4.7 4.7 0 0 1-4.5 0zm4-1a2.9 2.9 0 0 0 1.1-1.1 4 4 0 0 0 0-3.5 2.9 2.9 0 0 0-1.1-1.2 3.5 3.5 0 0 0-3.3 0 3 3 0 0 0-1.1 1.2 3.9 3.9 0 0 0 0 3.5 3 3 0 0 0 1.1 1.2 3.5 3.5 0 0 0 3.3 0zM481.4 408.9a4.2 4.2 0 0 1 2-.4v1h-.2a2.8 2.8 0 0 0-2.2 1 3.4 3.4 0 0 0-.7 2.3v4.4H479v-8.7h1.1v1.7a2.9 2.9 0 0 1 1.2-1.3zM422.4 429.1a3.8 3.8 0 0 1 1 2.8v5h-1.2V432a3 3 0 0 0-.6-2 2.4 2.4 0 0 0-1.9-.8 2.7 2.7 0 0 0-2 .9 3.2 3.2 0 0 0-.9 2.3v4.5h-1.1V432a3 3 0 0 0-.7-2 2.4 2.4 0 0 0-1.8-.8 2.7 2.7 0 0 0-2.1.9 3.2 3.2 0 0 0-.8 2.3v4.5H409v-8.6h1.1v1.5a3.2 3.2 0 0 1 1.3-1.2 4.1 4.1 0 0 1 2-.4 3.7 3.7 0 0 1 1.8.4 2.8 2.8 0 0 1 1.2 1.4 3.4 3.4 0 0 1 1.3-1.3 4.3 4.3 0 0 1 2-.5 3.5 3.5 0 0 1 2.6.9zM427.9 436.4a4 4 0 0 1-1.6-1.6 4.7 4.7 0 0 1 0-4.5 4.1 4.1 0 0 1 1.6-1.6 4.9 4.9 0 0 1 4.5 0 4.1 4.1 0 0 1 1.5 1.6 4.8 4.8 0 0 1 0 4.5 4 4 0 0 1-1.5 1.6 4.7 4.7 0 0 1-4.5 0zm3.9-.9a3 3 0 0 0 1.1-1.2 4 4 0 0 0 0-3.5 3 3 0 0 0-1.1-1.2 3.2 3.2 0 0 0-1.7-.4 3.3 3.3 0 0 0-1.6.4 3 3 0 0 0-1.2 1.2 3.9 3.9 0 0 0 0 3.5 3 3 0 0 0 1.2 1.2 3.3 3.3 0 0 0 1.6.4 3.2 3.2 0 0 0 1.7-.4zM439.2 428.6a4 4 0 0 1 2-.4v1.1h-.3a2.7 2.7 0 0 0-2 .8 3.3 3.3 0 0 0-.9 2.4v4.4H437v-8.6h1.1v1.6a2.9 2.9 0 0 1 1.2-1.3zM450.8 433h-7.3a3.1 3.1 0 0 0 1 2 3.4 3.4 0 0 0 2.4 1 3.8 3.8 0 0 0 1.5-.4 3.1 3.1 0 0 0 1.2-.8l.6.7a3.7 3.7 0 0 1-1.4 1 5 5 0 0 1-2 .4 4.8 4.8 0 0 1-2.3-.6 4.1 4.1 0 0 1-1.6-1.5 4.5 4.5 0 0 1-.6-2.3 4.6 4.6 0 0 1 .6-2.3 4 4 0 0 1 1.5-1.5 4.2 4.2 0 0 1 2.2-.6 4.2 4.2 0 0 1 2.1.6 4 4 0 0 1 1.5 1.5 4.6 4.6 0 0 1 .6 2.3zm-6.3-3a3.2 3.2 0 0 0-1 2h6.1a3.2 3.2 0 0 0-1-2 3.2 3.2 0 0 0-4.2 0zM457.4 426.1a.8.8 0 0 1-.2-.6.8.8 0 0 1 .2-.6.9.9 0 0 1 .7-.2.8.8 0 0 1 .6.2.8.8 0 0 1 .2.6.9.9 0 0 1-1.4.6zm0 2.1h1.2v8.7h-1.2zM468.9 429.1a3.7 3.7 0 0 1 1 2.8v5h-1.2V432a3 3 0 0 0-.7-2 2.5 2.5 0 0 0-1.9-.8 2.9 2.9 0 0 0-2.2.9 3 3 0 0 0-.8 2.3v4.5h-1.2v-8.6h1.1v1.5a3.3 3.3 0 0 1 1.3-1.2 4.2 4.2 0 0 1 2-.4 3.5 3.5 0 0 1 2.6 1zM474.7 426a1.7 1.7 0 0 0-.4 1.2v1h2.7v1h-2.6v7.7h-1.2v-7.7h-1.5v-1h1.5v-1a2.6 2.6 0 0 1 .7-2 2.6 2.6 0 0 1 2-.6 3.3 3.3 0 0 1 .9.1 2.2 2.2 0 0 1 .7.4l-.4.9a2 2 0 0 0-1.2-.4 1.5 1.5 0 0 0-1.2.4zM479.7 436.4a4.1 4.1 0 0 1-1.6-1.6 4.7 4.7 0 0 1 0-4.5 4.2 4.2 0 0 1 1.6-1.6 4.6 4.6 0 0 1 2.3-.5 4.5 4.5 0 0 1 2.2.5 4.1 4.1 0 0 1 1.6 1.6 4.8 4.8 0 0 1 0 4.5 4 4 0 0 1-1.6 1.6 4.4 4.4 0 0 1-2.2.6 4.5 4.5 0 0 1-2.3-.6zm3.9-.9a3 3 0 0 0 1.1-1.2 4 4 0 0 0 0-3.5 3 3 0 0 0-1.1-1.2 3.2 3.2 0 0 0-1.7-.4 3.3 3.3 0 0 0-1.6.4 3 3 0 0 0-1.1 1.2 3.9 3.9 0 0 0 0 3.5 3 3 0 0 0 1.1 1.2 3.3 3.3 0 0 0 1.6.4 3.2 3.2 0 0 0 1.7-.4z"/><path class="cls-9" d="M477.6 317.6c-1.6-3.6-5.6-5.6-9.3-6-7.9-1-12.8 6.8-16.2 12.6a3.5 3.5 0 0 0-.2.5 21.3 21.3 0 0 1 8-.7l1-1.4.4-.6.1-.2.4-.5a20.4 20.4 0 0 1 2-2l.3-.2 1.5-.8h.2l.8-.3a10 10 0 0 1 1.1 0 6.4 6.4 0 0 0 .7.2l.5.1.4.2.3.1.5.3.8.5.3.3.3.3.4.7.1.3c.1.1.1 1.2.1.4v2.6c-.2.3-.2.6-.3 1a35 35 0 0 1-1.6 4.7l-.1.4a1.5 1.5 0 0 0-.2.3l-.6 1.5-1.5 3a50.2 50.2 0 0 1-3.6 5.7l-.5.7-1 1.3a24.5 24.5 0 0 1-2.3 2.1c-.1.1-.4.5-.6.5s.6-.4.3-.2l-.3.2a13.2 13.2 0 0 1-1.3.8l-.6.3h-.1l-.7.2h-1.4l-.7-.2-.6-.3-.7-.5-.2-.1a3.3 3.3 0 0 0-4.6 0c-1.1 1-1.4 3.3 0 4.5a11.6 11.6 0 0 0 7.3 3.1 12 12 0 0 0 6.5-2c4.3-2.8 7.5-7.2 10-11.6a51.8 51.8 0 0 0 5.3-12.6 13.7 13.7 0 0 0-.4-9.2zm-6.7 1.7c.5.3.2.1.1 0zm-16 27c-.6-.3 0 0 .1 0zm.2 0zm17-22.8c0 .5 0 .2 0 0zm-.1-2.8c.1.3 0 .1 0 0z"/><path class="cls-9" d="M457 346.5a.6.6 0 0 0-.3 0 1.5 1.5 0 0 1 .3 0z"/><path class="cls-9" d="M452 356.9l-.4.5-.2.2-.4.5a16.2 16.2 0 0 1-1.2 1.3l-.8.7-.2.2h-.1l-1.4.8h-.3l-.8.3a10 10 0 0 1-1 0 6.4 6.4 0 0 0-.7-.2l-.5-.1-.4-.2-.3-.1-.5-.3-.8-.5-.4-.3-.3-.3-.3-.7-.2-.4v-.3-1.2-1.4l.3-1a35 35 0 0 1 1.5-4.8l.2-.4.1-.2.7-1.6 1.5-3a50.2 50.2 0 0 1 3.5-5.6l.5-.7 1.1-1.3a24.5 24.5 0 0 1 2.2-2.2c.2 0 .5-.4.6-.5l-.3.3.4-.3a13.2 13.2 0 0 1 1.3-.8l.5-.2h.2l.7-.3h.3c.2 0 .2 0 0 .1h1c.3 0 .5 0 .7.2l.7.3.7.4.2.2a3.3 3.3 0 0 0 4.6 0c1-1.1 1.4-3.3 0-4.5a11.5 11.5 0 0 0-7.3-3.1 12 12 0 0 0-6.5 2 32.6 32.6 0 0 0-10 11.6 51.8 51.8 0 0 0-5.4 12.6 13.7 13.7 0 0 0 .4 9.2c1.7 3.5 5.7 5.6 9.4 6 7.8.9 12.7-6.9 16.1-12.7a2.3 2.3 0 0 0 .2-.4 21.3 21.3 0 0 1-7.9.6l-1 1.6zm6-23.7c.5.1 0 0-.2-.1zm-.2-.1zm-17 22.7c0-.5 0-.1 0 0zm0 2.9c-.1-.3 0-.2 0 0zm1 1.3c-.4-.2-.1 0 0 0z"/><path class="cls-9" d="M455.8 332.9a.6.6 0 0 0 .3 0 1.4 1.4 0 0 1-.3 0z"/></g></g></svg>